<ttFont>
    <TTGlyph name=".notdef" xMin="82" yMin="-220" xMax="786" yMax="1030">
      <contour>
        <pt x="82" y="1030" on="1"/>
        <pt x="786" y="1030" on="1"/>
        <pt x="786" y="-220" on="1"/>
        <pt x="82" y="-220" on="1"/>
      </contour>
      <contour>
        <pt x="645" y="-88" on="1"/>
        <pt x="645" y="899" on="1"/>
        <pt x="224" y="899" on="1"/>
        <pt x="224" y="-88" on="1"/>
      </contour>
    </TTGlyph>
    <TTGlyph name="A" xMin="0" yMin="0" xMax="785" yMax="740">
      <contour>
        <pt x="0" y="10" on="1"/>
        <pt x="260" y="740" on="1"/>
        <pt x="524" y="740" on="1"/>
        <pt x="785" y="10" on="1"/>
        <pt x="785" y="0" on="1"/>
        <pt x="610" y="0" on="1"/>
        <pt x="549" y="176" on="1"/>
        <pt x="235" y="176" on="1"/>
        <pt x="174" y="0" on="1"/>
        <pt x="0" y="0" on="1"/>
      </contour>
      <contour>
        <pt x="505" y="313" on="1"/>
        <pt x="451" y="463" on="1"/>
        <pt x="400" y="620" on="1"/>
        <pt x="384" y="620" on="1"/>
        <pt x="333" y="462" on="1"/>
        <pt x="279" y="313" on="1"/>
      </contour>
    </TTGlyph>
    <TTGlyph name="A.sc" xMin="3" yMin="0" xMax="717" yMax="577">
      <contour>
        <pt x="3" y="9" on="1"/>
        <pt x="234" y="577" on="1"/>
        <pt x="486" y="577" on="1"/>
        <pt x="717" y="9" on="1"/>
        <pt x="717" y="0" on="1"/>
        <pt x="551" y="0" on="1"/>
        <pt x="500" y="118" on="1"/>
        <pt x="220" y="118" on="1"/>
        <pt x="169" y="0" on="1"/>
        <pt x="3" y="0" on="1"/>
      </contour>
      <contour>
        <pt x="464" y="231" on="1"/>
        <pt x="413" y="353" on="1"/>
        <pt x="366" y="464" on="1"/>
        <pt x="352" y="464" on="1"/>
        <pt x="306" y="352" on="1"/>
        <pt x="255" y="231" on="1"/>
      </contour>
    </TTGlyph>
    <TTGlyph name="AE" xMin="-5" yMin="0" xMax="1002" yMax="740">
      <contour>
        <pt x="-5" y="10" on="1"/>
        <pt x="318" y="740" on="1"/>
        <pt x="985" y="740" on="1"/>
        <pt x="985" y="604" on="1"/>
        <pt x="647" y="604" on="1"/>
        <pt x="657" y="440" on="1"/>
        <pt x="968" y="440" on="1"/>
        <pt x="968" y="304" on="1"/>
        <pt x="666" y="304" on="1"/>
        <pt x="677" y="136" on="1"/>
        <pt x="1002" y="136" on="1"/>
        <pt x="1002" y="0" on="1"/>
        <pt x="499" y="0" on="1"/>
        <pt x="492" y="172" on="1"/>
        <pt x="244" y="172" on="1"/>
        <pt x="168" y="0" on="1"/>
        <pt x="-5" y="0" on="1"/>
      </contour>
      <contour>
        <pt x="307" y="316" on="1"/>
        <pt x="486" y="316" on="1"/>
        <pt x="474" y="617" on="1"/>
        <pt x="441" y="617" on="1"/>
      </contour>
    </TTGlyph>
    <TTGlyph name="AE.sc" xMin="-2" yMin="0" xMax="919" yMax="577">
      <contour>
        <pt x="-2" y="9" on="1"/>
        <pt x="291" y="577" on="1"/>
        <pt x="903" y="577" on="1"/>
        <pt x="903" y="454" on="1"/>
        <pt x="600" y="454" on="1"/>
        <pt x="607" y="343" on="1"/>
        <pt x="889" y="343" on="1"/>
        <pt x="889" y="238" on="1"/>
        <pt x="618" y="238" on="1"/>
        <pt x="628" y="124" on="1"/>
        <pt x="919" y="124" on="1"/>
        <pt x="919" y="0" on="1"/>
        <pt x="457" y="0" on="1"/>
        <pt x="452" y="118" on="1"/>
        <pt x="224" y="118" on="1"/>
        <pt x="163" y="0" on="1"/>
        <pt x="-2" y="0" on="1"/>
      </contour>
      <contour>
        <pt x="284" y="228" on="1"/>
        <pt x="445" y="228" on="1"/>
        <pt x="436" y="463" on="1"/>
        <pt x="407" y="463" on="1"/>
      </contour>
    </TTGlyph>
    <TTGlyph name="AEacute" xMin="-5" yMin="0" xMax="1002" yMax="986">
      <contour>
        <pt x="499" y="815" on="1"/>
        <pt x="566" y="986" on="1"/>
        <pt x="746" y="986" on="1"/>
        <pt x="627" y="806" on="1"/>
      </contour>
      <contour>
        <pt x="-5" y="10" on="1"/>
        <pt x="318" y="740" on="1"/>
        <pt x="985" y="740" on="1"/>
        <pt x="985" y="604" on="1"/>
        <pt x="647" y="604" on="1"/>
        <pt x="657" y="440" on="1"/>
        <pt x="968" y="440" on="1"/>
        <pt x="968" y="304" on="1"/>
        <pt x="666" y="304" on="1"/>
        <pt x="677" y="136" on="1"/>
        <pt x="1002" y="136" on="1"/>
        <pt x="1002" y="0" on="1"/>
        <pt x="499" y="0" on="1"/>
        <pt x="492" y="172" on="1"/>
        <pt x="244" y="172" on="1"/>
        <pt x="168" y="0" on="1"/>
        <pt x="-5" y="0" on="1"/>
      </contour>
      <contour>
        <pt x="307" y="316" on="1"/>
        <pt x="486" y="316" on="1"/>
        <pt x="474" y="617" on="1"/>
        <pt x="441" y="617" on="1"/>
      </contour>
    </TTGlyph>
    <TTGlyph name="AEacute.sc" xMin="-2" yMin="0" xMax="919" yMax="782">
      <contour>
        <pt x="-2" y="9" on="1"/>
        <pt x="291" y="577" on="1"/>
        <pt x="903" y="577" on="1"/>
        <pt x="903" y="454" on="1"/>
        <pt x="600" y="454" on="1"/>
        <pt x="607" y="343" on="1"/>
        <pt x="889" y="343" on="1"/>
        <pt x="889" y="238" on="1"/>
        <pt x="618" y="238" on="1"/>
        <pt x="628" y="124" on="1"/>
        <pt x="919" y="124" on="1"/>
        <pt x="919" y="0" on="1"/>
        <pt x="457" y="0" on="1"/>
        <pt x="452" y="118" on="1"/>
        <pt x="224" y="118" on="1"/>
        <pt x="163" y="0" on="1"/>
        <pt x="-2" y="0" on="1"/>
      </contour>
      <contour>
        <pt x="445" y="228" on="1"/>
        <pt x="436" y="463" on="1"/>
        <pt x="407" y="463" on="1"/>
        <pt x="284" y="228" on="1"/>
      </contour>
      <contour>
        <pt x="451" y="638" on="1"/>
        <pt x="509" y="782" on="1"/>
        <pt x="680" y="782" on="1"/>
        <pt x="573" y="630" on="1"/>
      </contour>
    </TTGlyph>
    <TTGlyph name="Aacute" xMin="0" yMin="0" xMax="785" yMax="986">
      <contour>
        <pt x="0" y="10" on="1"/>
        <pt x="260" y="740" on="1"/>
        <pt x="524" y="740" on="1"/>
        <pt x="785" y="10" on="1"/>
        <pt x="785" y="0" on="1"/>
        <pt x="610" y="0" on="1"/>
        <pt x="549" y="176" on="1"/>
        <pt x="235" y="176" on="1"/>
        <pt x="174" y="0" on="1"/>
        <pt x="0" y="0" on="1"/>
      </contour>
      <contour>
        <pt x="505" y="313" on="1"/>
        <pt x="451" y="463" on="1"/>
        <pt x="400" y="620" on="1"/>
        <pt x="384" y="620" on="1"/>
        <pt x="333" y="462" on="1"/>
        <pt x="279" y="313" on="1"/>
      </contour>
      <contour>
        <pt x="323" y="815" on="1"/>
        <pt x="390" y="986" on="1"/>
        <pt x="570" y="986" on="1"/>
        <pt x="451" y="806" on="1"/>
      </contour>
    </TTGlyph>
    <TTGlyph name="Aacute.sc" xMin="3" yMin="0" xMax="717" yMax="782">
      <contour>
        <pt x="3" y="9" on="1"/>
        <pt x="234" y="577" on="1"/>
        <pt x="486" y="577" on="1"/>
        <pt x="717" y="9" on="1"/>
        <pt x="717" y="0" on="1"/>
        <pt x="551" y="0" on="1"/>
        <pt x="500" y="118" on="1"/>
        <pt x="220" y="118" on="1"/>
        <pt x="169" y="0" on="1"/>
        <pt x="3" y="0" on="1"/>
      </contour>
      <contour>
        <pt x="463" y="239" on="1"/>
        <pt x="413" y="353" on="1"/>
        <pt x="366" y="464" on="1"/>
        <pt x="352" y="464" on="1"/>
        <pt x="306" y="352" on="1"/>
        <pt x="256" y="239" on="1"/>
      </contour>
      <contour>
        <pt x="295" y="638" on="1"/>
        <pt x="353" y="782" on="1"/>
        <pt x="524" y="782" on="1"/>
        <pt x="416" y="630" on="1"/>
      </contour>
    </TTGlyph>
    <TTGlyph name="Abreve" xMin="0" yMin="0" xMax="785" yMax="990">
      <contour>
        <pt x="0" y="10" on="1"/>
        <pt x="260" y="740" on="1"/>
        <pt x="524" y="740" on="1"/>
        <pt x="785" y="10" on="1"/>
        <pt x="785" y="0" on="1"/>
        <pt x="610" y="0" on="1"/>
        <pt x="549" y="176" on="1"/>
        <pt x="235" y="176" on="1"/>
        <pt x="174" y="0" on="1"/>
        <pt x="0" y="0" on="1"/>
      </contour>
      <contour>
        <pt x="505" y="313" on="1"/>
        <pt x="451" y="463" on="1"/>
        <pt x="400" y="620" on="1"/>
        <pt x="384" y="620" on="1"/>
        <pt x="333" y="462" on="1"/>
        <pt x="279" y="313" on="1"/>
      </contour>
      <contour>
        <pt x="392" y="813" on="1"/>
        <pt x="327" y="813" on="0"/>
        <pt x="239" y="840" on="0"/>
        <pt x="185" y="888" on="0"/>
        <pt x="161" y="952" on="0"/>
        <pt x="161" y="990" on="1"/>
        <pt x="278" y="990" on="1"/>
        <pt x="278" y="946" on="0"/>
        <pt x="328" y="898" on="0"/>
        <pt x="392" y="898" on="1"/>
        <pt x="456" y="898" on="0"/>
        <pt x="505" y="946" on="0"/>
        <pt x="505" y="990" on="1"/>
        <pt x="622" y="990" on="1"/>
        <pt x="622" y="951" on="0"/>
        <pt x="598" y="886" on="0"/>
        <pt x="544" y="839" on="0"/>
        <pt x="456" y="813" on="0"/>
      </contour>
    </TTGlyph>
    <TTGlyph name="Abreve.sc" xMin="3" yMin="0" xMax="717" yMax="782">
      <contour>
        <pt x="360" y="634" on="1"/>
        <pt x="300" y="634" on="0"/>
        <pt x="218" y="657" on="0"/>
        <pt x="168" y="698" on="0"/>
        <pt x="147" y="752" on="0"/>
        <pt x="147" y="782" on="1"/>
        <pt x="258" y="782" on="1"/>
        <pt x="258" y="749" on="0"/>
        <pt x="302" y="711" on="0"/>
        <pt x="360" y="711" on="1"/>
        <pt x="419" y="711" on="0"/>
        <pt x="462" y="749" on="0"/>
        <pt x="462" y="782" on="1"/>
        <pt x="571" y="782" on="1"/>
        <pt x="571" y="750" on="0"/>
        <pt x="550" y="696" on="0"/>
        <pt x="500" y="657" on="0"/>
        <pt x="420" y="634" on="0"/>
      </contour>
      <contour>
        <pt x="3" y="9" on="1"/>
        <pt x="234" y="577" on="1"/>
        <pt x="486" y="577" on="1"/>
        <pt x="717" y="9" on="1"/>
        <pt x="717" y="0" on="1"/>
        <pt x="551" y="0" on="1"/>
        <pt x="500" y="118" on="1"/>
        <pt x="220" y="118" on="1"/>
        <pt x="169" y="0" on="1"/>
        <pt x="3" y="0" on="1"/>
      </contour>
      <contour>
        <pt x="463" y="239" on="1"/>
        <pt x="413" y="353" on="1"/>
        <pt x="366" y="464" on="1"/>
        <pt x="352" y="464" on="1"/>
        <pt x="306" y="352" on="1"/>
        <pt x="256" y="239" on="1"/>
      </contour>
    </TTGlyph>
    <TTGlyph name="Acircumflex" xMin="0" yMin="0" xMax="785" yMax="1001">
      <contour>
        <pt x="0" y="10" on="1"/>
        <pt x="260" y="740" on="1"/>
        <pt x="524" y="740" on="1"/>
        <pt x="785" y="10" on="1"/>
        <pt x="785" y="0" on="1"/>
        <pt x="610" y="0" on="1"/>
        <pt x="549" y="176" on="1"/>
        <pt x="235" y="176" on="1"/>
        <pt x="174" y="0" on="1"/>
        <pt x="0" y="0" on="1"/>
      </contour>
      <contour>
        <pt x="505" y="313" on="1"/>
        <pt x="451" y="463" on="1"/>
        <pt x="400" y="620" on="1"/>
        <pt x="384" y="620" on="1"/>
        <pt x="333" y="462" on="1"/>
        <pt x="279" y="313" on="1"/>
      </contour>
      <contour>
        <pt x="182" y="921" on="1"/>
        <pt x="391" y="1001" on="1"/>
        <pt x="605" y="921" on="1"/>
        <pt x="605" y="803" on="1"/>
        <pt x="393" y="882" on="1"/>
        <pt x="182" y="803" on="1"/>
      </contour>
    </TTGlyph>
    <TTGlyph name="Acircumflex.sc" xMin="3" yMin="0" xMax="717" yMax="796">
      <contour>
        <pt x="3" y="9" on="1"/>
        <pt x="234" y="577" on="1"/>
        <pt x="486" y="577" on="1"/>
        <pt x="717" y="9" on="1"/>
        <pt x="717" y="0" on="1"/>
        <pt x="551" y="0" on="1"/>
        <pt x="500" y="118" on="1"/>
        <pt x="220" y="118" on="1"/>
        <pt x="169" y="0" on="1"/>
        <pt x="3" y="0" on="1"/>
      </contour>
      <contour>
        <pt x="463" y="239" on="1"/>
        <pt x="413" y="353" on="1"/>
        <pt x="366" y="464" on="1"/>
        <pt x="352" y="464" on="1"/>
        <pt x="306" y="352" on="1"/>
        <pt x="256" y="239" on="1"/>
      </contour>
      <contour>
        <pt x="166" y="732" on="1"/>
        <pt x="359" y="796" on="1"/>
        <pt x="556" y="732" on="1"/>
        <pt x="556" y="624" on="1"/>
        <pt x="361" y="687" on="1"/>
        <pt x="166" y="624" on="1"/>
      </contour>
    </TTGlyph>
    <TTGlyph name="Adblgrave" xMin="0" yMin="0" xMax="785" yMax="983">
      <contour>
        <pt x="0" y="10" on="1"/>
        <pt x="260" y="740" on="1"/>
        <pt x="524" y="740" on="1"/>
        <pt x="785" y="10" on="1"/>
        <pt x="785" y="0" on="1"/>
        <pt x="610" y="0" on="1"/>
        <pt x="549" y="176" on="1"/>
        <pt x="235" y="176" on="1"/>
        <pt x="174" y="0" on="1"/>
        <pt x="0" y="0" on="1"/>
      </contour>
      <contour>
        <pt x="505" y="313" on="1"/>
        <pt x="451" y="463" on="1"/>
        <pt x="400" y="620" on="1"/>
        <pt x="384" y="620" on="1"/>
        <pt x="333" y="462" on="1"/>
        <pt x="279" y="313" on="1"/>
      </contour>
      <contour>
        <pt x="209" y="803" on="1"/>
        <pt x="90" y="983" on="1"/>
        <pt x="267" y="983" on="1"/>
        <pt x="333" y="815" on="1"/>
      </contour>
      <contour>
        <pt x="427" y="803" on="1"/>
        <pt x="307" y="983" on="1"/>
        <pt x="484" y="983" on="1"/>
        <pt x="550" y="815" on="1"/>
      </contour>
    </TTGlyph>
    <TTGlyph name="Adblgrave.sc" xMin="3" yMin="0" xMax="717" yMax="781">
      <contour>
        <pt x="3" y="9" on="1"/>
        <pt x="234" y="577" on="1"/>
        <pt x="486" y="577" on="1"/>
        <pt x="717" y="9" on="1"/>
        <pt x="717" y="0" on="1"/>
        <pt x="551" y="0" on="1"/>
        <pt x="500" y="118" on="1"/>
        <pt x="220" y="118" on="1"/>
        <pt x="169" y="0" on="1"/>
        <pt x="3" y="0" on="1"/>
      </contour>
      <contour>
        <pt x="463" y="239" on="1"/>
        <pt x="413" y="353" on="1"/>
        <pt x="366" y="464" on="1"/>
        <pt x="352" y="464" on="1"/>
        <pt x="306" y="352" on="1"/>
        <pt x="256" y="239" on="1"/>
      </contour>
      <contour>
        <pt x="78" y="781" on="1"/>
        <pt x="248" y="781" on="1"/>
        <pt x="305" y="638" on="1"/>
        <pt x="186" y="629" on="1"/>
      </contour>
      <contour>
        <pt x="278" y="781" on="1"/>
        <pt x="448" y="781" on="1"/>
        <pt x="506" y="638" on="1"/>
        <pt x="387" y="629" on="1"/>
      </contour>
    </TTGlyph>
    <TTGlyph name="Adieresis" xMin="0" yMin="0" xMax="785" yMax="994">
      <contour>
        <pt x="0" y="10" on="1"/>
        <pt x="260" y="740" on="1"/>
        <pt x="524" y="740" on="1"/>
        <pt x="785" y="10" on="1"/>
        <pt x="785" y="0" on="1"/>
        <pt x="610" y="0" on="1"/>
        <pt x="549" y="176" on="1"/>
        <pt x="235" y="176" on="1"/>
        <pt x="174" y="0" on="1"/>
        <pt x="0" y="0" on="1"/>
      </contour>
      <contour>
        <pt x="505" y="313" on="1"/>
        <pt x="451" y="463" on="1"/>
        <pt x="400" y="620" on="1"/>
        <pt x="384" y="620" on="1"/>
        <pt x="333" y="462" on="1"/>
        <pt x="279" y="313" on="1"/>
      </contour>
      <contour>
        <pt x="239" y="805" on="1"/>
        <pt x="187" y="805" on="0"/>
        <pt x="142" y="849" on="0"/>
        <pt x="142" y="900" on="1"/>
        <pt x="142" y="949" on="0"/>
        <pt x="187" y="994" on="0"/>
        <pt x="239" y="994" on="1"/>
        <pt x="291" y="994" on="0"/>
        <pt x="335" y="948" on="0"/>
        <pt x="335" y="900" on="1"/>
        <pt x="335" y="852" on="0"/>
        <pt x="291" y="805" on="0"/>
      </contour>
      <contour>
        <pt x="545" y="805" on="1"/>
        <pt x="493" y="805" on="0"/>
        <pt x="448" y="849" on="0"/>
        <pt x="448" y="900" on="1"/>
        <pt x="448" y="949" on="0"/>
        <pt x="493" y="994" on="0"/>
        <pt x="545" y="994" on="1"/>
        <pt x="597" y="994" on="0"/>
        <pt x="641" y="948" on="0"/>
        <pt x="641" y="900" on="1"/>
        <pt x="641" y="852" on="0"/>
        <pt x="597" y="805" on="0"/>
      </contour>
    </TTGlyph>
    <TTGlyph name="Adieresis.sc" xMin="3" yMin="0" xMax="717" yMax="796">
      <contour>
        <pt x="221" y="623" on="1"/>
        <pt x="172" y="623" on="0"/>
        <pt x="130" y="663" on="0"/>
        <pt x="130" y="709" on="1"/>
        <pt x="130" y="754" on="0"/>
        <pt x="172" y="796" on="0"/>
        <pt x="221" y="796" on="1"/>
        <pt x="271" y="796" on="0"/>
        <pt x="312" y="753" on="0"/>
        <pt x="312" y="709" on="1"/>
        <pt x="312" y="665" on="0"/>
        <pt x="271" y="623" on="0"/>
      </contour>
      <contour>
        <pt x="498" y="623" on="1"/>
        <pt x="448" y="623" on="0"/>
        <pt x="407" y="663" on="0"/>
        <pt x="407" y="709" on="1"/>
        <pt x="407" y="754" on="0"/>
        <pt x="448" y="796" on="0"/>
        <pt x="498" y="796" on="1"/>
        <pt x="548" y="796" on="0"/>
        <pt x="589" y="753" on="0"/>
        <pt x="589" y="709" on="1"/>
        <pt x="589" y="665" on="0"/>
        <pt x="548" y="623" on="0"/>
      </contour>
      <contour>
        <pt x="3" y="9" on="1"/>
        <pt x="234" y="577" on="1"/>
        <pt x="486" y="577" on="1"/>
        <pt x="717" y="9" on="1"/>
        <pt x="717" y="0" on="1"/>
        <pt x="551" y="0" on="1"/>
        <pt x="500" y="118" on="1"/>
        <pt x="220" y="118" on="1"/>
        <pt x="169" y="0" on="1"/>
        <pt x="3" y="0" on="1"/>
      </contour>
      <contour>
        <pt x="463" y="239" on="1"/>
        <pt x="413" y="353" on="1"/>
        <pt x="366" y="464" on="1"/>
        <pt x="352" y="464" on="1"/>
        <pt x="306" y="352" on="1"/>
        <pt x="256" y="239" on="1"/>
      </contour>
    </TTGlyph>
    <TTGlyph name="Agrave" xMin="0" yMin="0" xMax="785" yMax="986">
      <contour>
        <pt x="0" y="10" on="1"/>
        <pt x="260" y="740" on="1"/>
        <pt x="524" y="740" on="1"/>
        <pt x="785" y="10" on="1"/>
        <pt x="785" y="0" on="1"/>
        <pt x="610" y="0" on="1"/>
        <pt x="549" y="176" on="1"/>
        <pt x="235" y="176" on="1"/>
        <pt x="174" y="0" on="1"/>
        <pt x="0" y="0" on="1"/>
      </contour>
      <contour>
        <pt x="505" y="313" on="1"/>
        <pt x="451" y="463" on="1"/>
        <pt x="400" y="620" on="1"/>
        <pt x="384" y="620" on="1"/>
        <pt x="333" y="462" on="1"/>
        <pt x="279" y="313" on="1"/>
      </contour>
      <contour>
        <pt x="313" y="806" on="1"/>
        <pt x="194" y="986" on="1"/>
        <pt x="374" y="986" on="1"/>
        <pt x="441" y="817" on="1"/>
      </contour>
    </TTGlyph>
    <TTGlyph name="Agrave.sc" xMin="3" yMin="0" xMax="717" yMax="782">
      <contour>
        <pt x="3" y="9" on="1"/>
        <pt x="234" y="577" on="1"/>
        <pt x="486" y="577" on="1"/>
        <pt x="717" y="9" on="1"/>
        <pt x="717" y="0" on="1"/>
        <pt x="551" y="0" on="1"/>
        <pt x="500" y="118" on="1"/>
        <pt x="220" y="118" on="1"/>
        <pt x="169" y="0" on="1"/>
        <pt x="3" y="0" on="1"/>
      </contour>
      <contour>
        <pt x="463" y="239" on="1"/>
        <pt x="413" y="353" on="1"/>
        <pt x="366" y="464" on="1"/>
        <pt x="352" y="464" on="1"/>
        <pt x="306" y="352" on="1"/>
        <pt x="256" y="239" on="1"/>
      </contour>
      <contour>
        <pt x="284" y="630" on="1"/>
        <pt x="175" y="782" on="1"/>
        <pt x="347" y="782" on="1"/>
        <pt x="404" y="638" on="1"/>
      </contour>
    </TTGlyph>
    <TTGlyph name="Ainvertedbreve" xMin="0" yMin="0" xMax="785" yMax="997">
      <contour>
        <pt x="0" y="10" on="1"/>
        <pt x="260" y="740" on="1"/>
        <pt x="524" y="740" on="1"/>
        <pt x="785" y="10" on="1"/>
        <pt x="785" y="0" on="1"/>
        <pt x="610" y="0" on="1"/>
        <pt x="549" y="176" on="1"/>
        <pt x="235" y="176" on="1"/>
        <pt x="174" y="0" on="1"/>
        <pt x="0" y="0" on="1"/>
      </contour>
      <contour>
        <pt x="505" y="313" on="1"/>
        <pt x="451" y="463" on="1"/>
        <pt x="400" y="620" on="1"/>
        <pt x="384" y="620" on="1"/>
        <pt x="333" y="462" on="1"/>
        <pt x="279" y="313" on="1"/>
      </contour>
      <contour>
        <pt x="506" y="820" on="1"/>
        <pt x="506" y="863" on="0"/>
        <pt x="456" y="911" on="0"/>
        <pt x="392" y="911" on="1"/>
        <pt x="328" y="911" on="0"/>
        <pt x="278" y="863" on="0"/>
        <pt x="278" y="820" on="1"/>
        <pt x="161" y="820" on="1"/>
        <pt x="161" y="857" on="0"/>
        <pt x="185" y="922" on="0"/>
        <pt x="239" y="970" on="0"/>
        <pt x="327" y="997" on="0"/>
        <pt x="392" y="997" on="1"/>
        <pt x="456" y="997" on="0"/>
        <pt x="544" y="970" on="0"/>
        <pt x="599" y="923" on="0"/>
        <pt x="623" y="858" on="0"/>
        <pt x="623" y="820" on="1"/>
      </contour>
    </TTGlyph>
    <TTGlyph name="Ainvertedbreve.sc" xMin="3" yMin="0" xMax="717" yMax="789">
      <contour>
        <pt x="147" y="641" on="1"/>
        <pt x="147" y="671" on="0"/>
        <pt x="168" y="725" on="0"/>
        <pt x="218" y="765" on="0"/>
        <pt x="300" y="789" on="0"/>
        <pt x="360" y="789" on="1"/>
        <pt x="420" y="789" on="0"/>
        <pt x="500" y="766" on="0"/>
        <pt x="550" y="726" on="0"/>
        <pt x="571" y="672" on="0"/>
        <pt x="571" y="641" on="1"/>
        <pt x="462" y="641" on="1"/>
        <pt x="462" y="673" on="0"/>
        <pt x="419" y="710" on="0"/>
        <pt x="360" y="710" on="1"/>
        <pt x="302" y="710" on="0"/>
        <pt x="258" y="673" on="0"/>
        <pt x="258" y="641" on="1"/>
      </contour>
      <contour>
        <pt x="3" y="9" on="1"/>
        <pt x="234" y="577" on="1"/>
        <pt x="486" y="577" on="1"/>
        <pt x="717" y="9" on="1"/>
        <pt x="717" y="0" on="1"/>
        <pt x="551" y="0" on="1"/>
        <pt x="500" y="118" on="1"/>
        <pt x="220" y="118" on="1"/>
        <pt x="169" y="0" on="1"/>
        <pt x="3" y="0" on="1"/>
      </contour>
      <contour>
        <pt x="463" y="239" on="1"/>
        <pt x="413" y="353" on="1"/>
        <pt x="366" y="464" on="1"/>
        <pt x="352" y="464" on="1"/>
        <pt x="306" y="352" on="1"/>
        <pt x="256" y="239" on="1"/>
      </contour>
    </TTGlyph>
    <TTGlyph name="Amacron" xMin="0" yMin="0" xMax="785" yMax="959">
      <contour>
        <pt x="0" y="10" on="1"/>
        <pt x="260" y="740" on="1"/>
        <pt x="524" y="740" on="1"/>
        <pt x="785" y="10" on="1"/>
        <pt x="785" y="0" on="1"/>
        <pt x="610" y="0" on="1"/>
        <pt x="549" y="176" on="1"/>
        <pt x="235" y="176" on="1"/>
        <pt x="174" y="0" on="1"/>
        <pt x="0" y="0" on="1"/>
      </contour>
      <contour>
        <pt x="505" y="313" on="1"/>
        <pt x="451" y="463" on="1"/>
        <pt x="400" y="620" on="1"/>
        <pt x="384" y="620" on="1"/>
        <pt x="333" y="462" on="1"/>
        <pt x="279" y="313" on="1"/>
      </contour>
      <contour>
        <pt x="183" y="959" on="1"/>
        <pt x="602" y="959" on="1"/>
        <pt x="602" y="843" on="1"/>
        <pt x="183" y="843" on="1"/>
      </contour>
    </TTGlyph>
    <TTGlyph name="Amacron.sc" xMin="3" yMin="0" xMax="717" yMax="766">
      <contour>
        <pt x="3" y="9" on="1"/>
        <pt x="234" y="577" on="1"/>
        <pt x="486" y="577" on="1"/>
        <pt x="717" y="9" on="1"/>
        <pt x="717" y="0" on="1"/>
        <pt x="551" y="0" on="1"/>
        <pt x="500" y="118" on="1"/>
        <pt x="220" y="118" on="1"/>
        <pt x="169" y="0" on="1"/>
        <pt x="3" y="0" on="1"/>
      </contour>
      <contour>
        <pt x="463" y="239" on="1"/>
        <pt x="413" y="353" on="1"/>
        <pt x="366" y="464" on="1"/>
        <pt x="352" y="464" on="1"/>
        <pt x="306" y="352" on="1"/>
        <pt x="256" y="239" on="1"/>
      </contour>
      <contour>
        <pt x="167" y="766" on="1"/>
        <pt x="553" y="766" on="1"/>
        <pt x="553" y="658" on="1"/>
        <pt x="167" y="658" on="1"/>
      </contour>
    </TTGlyph>
    <TTGlyph name="Aogonek" xMin="-1" yMin="-220" xMax="784" yMax="740">
      <contour>
        <pt x="694" y="-220" on="1"/>
        <pt x="622" y="-220" on="0"/>
        <pt x="545" y="-174" on="0"/>
        <pt x="545" y="-129" on="1"/>
        <pt x="545" y="-94" on="0"/>
        <pt x="594" y="-26" on="0"/>
        <pt x="640" y="0" on="1"/>
        <pt x="609" y="0" on="1"/>
        <pt x="548" y="176" on="1"/>
        <pt x="234" y="176" on="1"/>
        <pt x="173" y="0" on="1"/>
        <pt x="-1" y="0" on="1"/>
        <pt x="-1" y="10" on="1"/>
        <pt x="259" y="740" on="1"/>
        <pt x="523" y="740" on="1"/>
        <pt x="784" y="10" on="1"/>
        <pt x="784" y="-10" on="1"/>
        <pt x="714" y="-40" on="0"/>
        <pt x="658" y="-81" on="0"/>
        <pt x="658" y="-104" on="1"/>
        <pt x="658" y="-129" on="0"/>
        <pt x="692" y="-129" on="1"/>
        <pt x="706" y="-129" on="0"/>
        <pt x="760" y="-120" on="0"/>
        <pt x="784" y="-114" on="1"/>
        <pt x="784" y="-208" on="1"/>
        <pt x="746" y="-220" on="0"/>
      </contour>
      <contour>
        <pt x="504" y="313" on="1"/>
        <pt x="450" y="463" on="1"/>
        <pt x="399" y="620" on="1"/>
        <pt x="383" y="620" on="1"/>
        <pt x="332" y="462" on="1"/>
        <pt x="278" y="313" on="1"/>
      </contour>
    </TTGlyph>
    <TTGlyph name="Aogonek.sc" xMin="2" yMin="-172" xMax="717" yMax="577">
      <contour>
        <pt x="634" y="-172" on="1"/>
        <pt x="568" y="-172" on="0"/>
        <pt x="496" y="-131" on="0"/>
        <pt x="496" y="-97" on="1"/>
        <pt x="496" y="-71" on="0"/>
        <pt x="538" y="-16" on="0"/>
        <pt x="573" y="0" on="1"/>
        <pt x="549" y="0" on="1"/>
        <pt x="499" y="118" on="1"/>
        <pt x="219" y="118" on="1"/>
        <pt x="168" y="0" on="1"/>
        <pt x="2" y="0" on="1"/>
        <pt x="2" y="9" on="1"/>
        <pt x="233" y="577" on="1"/>
        <pt x="485" y="577" on="1"/>
        <pt x="716" y="9" on="1"/>
        <pt x="716" y="-5" on="1"/>
        <pt x="679" y="-18" on="0"/>
        <pt x="635" y="-37" on="0"/>
        <pt x="611" y="-52" on="0"/>
        <pt x="604" y="-63" on="0"/>
        <pt x="604" y="-69" on="1"/>
        <pt x="604" y="-79" on="0"/>
        <pt x="616" y="-85" on="0"/>
        <pt x="630" y="-85" on="1"/>
        <pt x="637" y="-85" on="0"/>
        <pt x="660" y="-84" on="0"/>
        <pt x="685" y="-81" on="0"/>
        <pt x="709" y="-77" on="0"/>
        <pt x="717" y="-75" on="1"/>
        <pt x="717" y="-162" on="1"/>
        <pt x="697" y="-167" on="0"/>
        <pt x="654" y="-172" on="0"/>
      </contour>
      <contour>
        <pt x="461" y="239" on="1"/>
        <pt x="412" y="354" on="1"/>
        <pt x="365" y="464" on="1"/>
        <pt x="351" y="464" on="1"/>
        <pt x="305" y="353" on="1"/>
        <pt x="254" y="239" on="1"/>
      </contour>
    </TTGlyph>
    <TTGlyph name="Aring" xMin="0" yMin="0" xMax="785" yMax="1018">
      <contour>
        <pt x="0" y="10" on="1"/>
        <pt x="260" y="740" on="1"/>
        <pt x="524" y="740" on="1"/>
        <pt x="785" y="10" on="1"/>
        <pt x="785" y="0" on="1"/>
        <pt x="610" y="0" on="1"/>
        <pt x="549" y="176" on="1"/>
        <pt x="235" y="176" on="1"/>
        <pt x="174" y="0" on="1"/>
        <pt x="0" y="0" on="1"/>
      </contour>
      <contour>
        <pt x="505" y="313" on="1"/>
        <pt x="451" y="463" on="1"/>
        <pt x="400" y="620" on="1"/>
        <pt x="384" y="620" on="1"/>
        <pt x="333" y="462" on="1"/>
        <pt x="279" y="313" on="1"/>
      </contour>
      <contour>
        <pt x="393" y="787" on="1"/>
        <pt x="363" y="787" on="0"/>
        <pt x="312" y="804" on="0"/>
        <pt x="274" y="834" on="0"/>
        <pt x="253" y="876" on="0"/>
        <pt x="253" y="902" on="1"/>
        <pt x="253" y="927" on="0"/>
        <pt x="274" y="970" on="0"/>
        <pt x="312" y="1001" on="0"/>
        <pt x="363" y="1018" on="0"/>
        <pt x="393" y="1018" on="1"/>
        <pt x="423" y="1018" on="0"/>
        <pt x="474" y="1001" on="0"/>
        <pt x="512" y="970" on="0"/>
        <pt x="533" y="927" on="0"/>
        <pt x="533" y="902" on="1"/>
        <pt x="533" y="876" on="0"/>
        <pt x="512" y="834" on="0"/>
        <pt x="474" y="804" on="0"/>
        <pt x="423" y="787" on="0"/>
      </contour>
      <contour>
        <pt x="393" y="847" on="1"/>
        <pt x="430" y="847" on="0"/>
        <pt x="461" y="874" on="0"/>
        <pt x="461" y="902" on="1"/>
        <pt x="461" y="930" on="0"/>
        <pt x="430" y="957" on="0"/>
        <pt x="393" y="957" on="1"/>
        <pt x="356" y="957" on="0"/>
        <pt x="325" y="930" on="0"/>
        <pt x="325" y="902" on="1"/>
        <pt x="325" y="874" on="0"/>
        <pt x="356" y="847" on="0"/>
      </contour>
    </TTGlyph>
    <TTGlyph name="Aring.sc" xMin="3" yMin="0" xMax="717" yMax="796">
      <contour>
        <pt x="3" y="9" on="1"/>
        <pt x="234" y="577" on="1"/>
        <pt x="486" y="577" on="1"/>
        <pt x="717" y="9" on="1"/>
        <pt x="717" y="0" on="1"/>
        <pt x="551" y="0" on="1"/>
        <pt x="500" y="118" on="1"/>
        <pt x="220" y="118" on="1"/>
        <pt x="169" y="0" on="1"/>
        <pt x="3" y="0" on="1"/>
      </contour>
      <contour>
        <pt x="463" y="239" on="1"/>
        <pt x="413" y="353" on="1"/>
        <pt x="366" y="464" on="1"/>
        <pt x="352" y="464" on="1"/>
        <pt x="306" y="352" on="1"/>
        <pt x="256" y="239" on="1"/>
      </contour>
      <contour>
        <pt x="361" y="612" on="1"/>
        <pt x="307" y="612" on="0"/>
        <pt x="234" y="661" on="0"/>
        <pt x="234" y="703" on="1"/>
        <pt x="234" y="724" on="0"/>
        <pt x="253" y="758" on="0"/>
        <pt x="288" y="782" on="0"/>
        <pt x="334" y="796" on="0"/>
        <pt x="361" y="796" on="1"/>
        <pt x="416" y="796" on="0"/>
        <pt x="488" y="745" on="0"/>
        <pt x="488" y="703" on="1"/>
        <pt x="488" y="661" on="0"/>
        <pt x="416" y="612" on="0"/>
      </contour>
      <contour>
        <pt x="361" y="664" on="1"/>
        <pt x="394" y="664" on="0"/>
        <pt x="421" y="683" on="0"/>
        <pt x="421" y="703" on="1"/>
        <pt x="421" y="723" on="0"/>
        <pt x="394" y="743" on="0"/>
        <pt x="361" y="743" on="1"/>
        <pt x="328" y="743" on="0"/>
        <pt x="301" y="723" on="0"/>
        <pt x="301" y="703" on="1"/>
        <pt x="301" y="683" on="0"/>
        <pt x="328" y="664" on="0"/>
      </contour>
    </TTGlyph>
    <TTGlyph name="Aringacute" xMin="0" yMin="0" xMax="785" yMax="1010">
      <contour>
        <pt x="0" y="10" on="1"/>
        <pt x="237" y="677" on="1"/>
        <pt x="202" y="710" on="0"/>
        <pt x="202" y="758" on="1"/>
        <pt x="202" y="812" on="0"/>
        <pt x="277" y="884" on="0"/>
        <pt x="341" y="895" on="1"/>
        <pt x="389" y="1010" on="1"/>
        <pt x="568" y="1010" on="1"/>
        <pt x="485" y="885" on="1"/>
        <pt x="532" y="868" on="0"/>
        <pt x="587" y="803" on="0"/>
        <pt x="587" y="758" on="1"/>
        <pt x="587" y="732" on="0"/>
        <pt x="566" y="689" on="0"/>
        <pt x="549" y="672" on="1"/>
        <pt x="785" y="10" on="1"/>
        <pt x="785" y="0" on="1"/>
        <pt x="611" y="0" on="1"/>
        <pt x="550" y="172" on="1"/>
        <pt x="234" y="172" on="1"/>
        <pt x="174" y="0" on="1"/>
        <pt x="0" y="0" on="1"/>
      </contour>
      <contour>
        <pt x="393" y="698" on="1"/>
        <pt x="433" y="698" on="0"/>
        <pt x="481" y="731" on="0"/>
        <pt x="481" y="758" on="1"/>
        <pt x="481" y="787" on="0"/>
        <pt x="433" y="819" on="0"/>
        <pt x="393" y="819" on="1"/>
        <pt x="355" y="819" on="0"/>
        <pt x="309" y="787" on="0"/>
        <pt x="309" y="758" on="1"/>
        <pt x="309" y="731" on="0"/>
        <pt x="355" y="698" on="0"/>
      </contour>
      <contour>
        <pt x="504" y="316" on="1"/>
        <pt x="451" y="463" on="1"/>
        <pt x="407" y="602" on="1"/>
        <pt x="377" y="602" on="1"/>
        <pt x="332" y="462" on="1"/>
        <pt x="280" y="316" on="1"/>
      </contour>
    </TTGlyph>
    <TTGlyph name="Aringacute.sc" xMin="3" yMin="0" xMax="717" yMax="798">
      <contour>
        <pt x="3" y="9" on="1"/>
        <pt x="214" y="531" on="1"/>
        <pt x="185" y="558" on="0"/>
        <pt x="185" y="593" on="1"/>
        <pt x="185" y="637" on="0"/>
        <pt x="252" y="695" on="0"/>
        <pt x="311" y="706" on="1"/>
        <pt x="352" y="798" on="1"/>
        <pt x="523" y="798" on="1"/>
        <pt x="448" y="696" on="1"/>
        <pt x="491" y="682" on="0"/>
        <pt x="541" y="628" on="0"/>
        <pt x="541" y="593" on="1"/>
        <pt x="541" y="573" on="0"/>
        <pt x="523" y="540" on="0"/>
        <pt x="507" y="526" on="1"/>
        <pt x="717" y="9" on="1"/>
        <pt x="717" y="0" on="1"/>
        <pt x="551" y="0" on="1"/>
        <pt x="500" y="118" on="1"/>
        <pt x="220" y="118" on="1"/>
        <pt x="169" y="0" on="1"/>
        <pt x="3" y="0" on="1"/>
      </contour>
      <contour>
        <pt x="361" y="549" on="1"/>
        <pt x="397" y="549" on="0"/>
        <pt x="440" y="573" on="0"/>
        <pt x="440" y="593" on="1"/>
        <pt x="440" y="613" on="0"/>
        <pt x="397" y="637" on="0"/>
        <pt x="361" y="637" on="1"/>
        <pt x="326" y="637" on="0"/>
        <pt x="285" y="613" on="0"/>
        <pt x="285" y="593" on="1"/>
        <pt x="285" y="573" on="0"/>
        <pt x="327" y="549" on="0"/>
      </contour>
      <contour>
        <pt x="464" y="239" on="1"/>
        <pt x="413" y="353" on="1"/>
        <pt x="372" y="459" on="1"/>
        <pt x="347" y="459" on="1"/>
        <pt x="306" y="352" on="1"/>
        <pt x="258" y="239" on="1"/>
      </contour>
    </TTGlyph>
    <TTGlyph name="Atilde" xMin="0" yMin="0" xMax="785" yMax="984">
      <contour>
        <pt x="0" y="10" on="1"/>
        <pt x="260" y="740" on="1"/>
        <pt x="524" y="740" on="1"/>
        <pt x="785" y="10" on="1"/>
        <pt x="785" y="0" on="1"/>
        <pt x="610" y="0" on="1"/>
        <pt x="549" y="176" on="1"/>
        <pt x="235" y="176" on="1"/>
        <pt x="174" y="0" on="1"/>
        <pt x="0" y="0" on="1"/>
      </contour>
      <contour>
        <pt x="505" y="313" on="1"/>
        <pt x="451" y="463" on="1"/>
        <pt x="400" y="620" on="1"/>
        <pt x="384" y="620" on="1"/>
        <pt x="333" y="462" on="1"/>
        <pt x="279" y="313" on="1"/>
      </contour>
      <contour>
        <pt x="146" y="863" on="1"/>
        <pt x="181" y="924" on="0"/>
        <pt x="270" y="984" on="0"/>
        <pt x="312" y="984" on="1"/>
        <pt x="340" y="984" on="0"/>
        <pt x="392" y="972" on="0"/>
        <pt x="444" y="958" on="0"/>
        <pt x="496" y="946" on="0"/>
        <pt x="523" y="946" on="1"/>
        <pt x="548" y="946" on="0"/>
        <pt x="595" y="961" on="0"/>
        <pt x="626" y="983" on="1"/>
        <pt x="649" y="948" on="1"/>
        <pt x="614" y="888" on="0"/>
        <pt x="523" y="827" on="0"/>
        <pt x="482" y="827" on="1"/>
        <pt x="455" y="827" on="0"/>
        <pt x="402" y="839" on="0"/>
        <pt x="349" y="853" on="0"/>
        <pt x="297" y="865" on="0"/>
        <pt x="271" y="865" on="1"/>
        <pt x="246" y="865" on="0"/>
        <pt x="199" y="851" on="0"/>
        <pt x="170" y="829" on="1"/>
      </contour>
    </TTGlyph>
    <TTGlyph name="Atilde.sc" xMin="3" yMin="0" xMax="717" yMax="783">
      <contour>
        <pt x="3" y="9" on="1"/>
        <pt x="234" y="577" on="1"/>
        <pt x="486" y="577" on="1"/>
        <pt x="717" y="9" on="1"/>
        <pt x="717" y="0" on="1"/>
        <pt x="551" y="0" on="1"/>
        <pt x="500" y="118" on="1"/>
        <pt x="220" y="118" on="1"/>
        <pt x="169" y="0" on="1"/>
        <pt x="3" y="0" on="1"/>
      </contour>
      <contour>
        <pt x="463" y="239" on="1"/>
        <pt x="413" y="353" on="1"/>
        <pt x="366" y="464" on="1"/>
        <pt x="352" y="464" on="1"/>
        <pt x="306" y="352" on="1"/>
        <pt x="256" y="239" on="1"/>
      </contour>
      <contour>
        <pt x="133" y="674" on="1"/>
        <pt x="165" y="729" on="0"/>
        <pt x="247" y="783" on="0"/>
        <pt x="285" y="783" on="1"/>
        <pt x="310" y="783" on="0"/>
        <pt x="359" y="774" on="0"/>
        <pt x="407" y="764" on="0"/>
        <pt x="455" y="755" on="0"/>
        <pt x="479" y="755" on="1"/>
        <pt x="501" y="755" on="0"/>
        <pt x="544" y="766" on="0"/>
        <pt x="573" y="783" on="1"/>
        <pt x="593" y="754" on="1"/>
        <pt x="560" y="699" on="0"/>
        <pt x="477" y="644" on="0"/>
        <pt x="440" y="644" on="1"/>
        <pt x="415" y="644" on="0"/>
        <pt x="366" y="653" on="0"/>
        <pt x="318" y="664" on="0"/>
        <pt x="269" y="673" on="0"/>
        <pt x="245" y="673" on="1"/>
        <pt x="223" y="673" on="0"/>
        <pt x="180" y="661" on="0"/>
        <pt x="154" y="644" on="1"/>
      </contour>
    </TTGlyph>
    <TTGlyph name="B" xMin="77" yMin="-10" xMax="720" yMax="750">
      <contour>
        <pt x="400" y="-10" on="1"/>
        <pt x="320" y="-10" on="0"/>
        <pt x="166" y="-3" on="0"/>
        <pt x="77" y="5" on="1"/>
        <pt x="77" y="735" on="1"/>
        <pt x="157" y="743" on="0"/>
        <pt x="297" y="750" on="0"/>
        <pt x="366" y="750" on="1"/>
        <pt x="538" y="750" on="0"/>
        <pt x="695" y="651" on="0"/>
        <pt x="695" y="542" on="1"/>
        <pt x="695" y="480" on="0"/>
        <pt x="627" y="398" on="0"/>
        <pt x="562" y="381" on="1"/>
        <pt x="562" y="377" on="1"/>
        <pt x="640" y="363" on="0"/>
        <pt x="720" y="273" on="0"/>
        <pt x="720" y="201" on="1"/>
        <pt x="720" y="92" on="0"/>
        <pt x="565" y="-10" on="0"/>
      </contour>
      <contour>
        <pt x="388" y="114" on="1"/>
        <pt x="469" y="114" on="0"/>
        <pt x="544" y="165" on="0"/>
        <pt x="544" y="219" on="1"/>
        <pt x="544" y="271" on="0"/>
        <pt x="475" y="319" on="0"/>
        <pt x="397" y="319" on="1"/>
        <pt x="248" y="319" on="1"/>
        <pt x="248" y="120" on="1"/>
        <pt x="257" y="118" on="0"/>
        <pt x="278" y="116" on="0"/>
        <pt x="309" y="114" on="0"/>
        <pt x="354" y="114" on="0"/>
      </contour>
      <contour>
        <pt x="381" y="432" on="1"/>
        <pt x="457" y="432" on="0"/>
        <pt x="520" y="476" on="0"/>
        <pt x="520" y="530" on="1"/>
        <pt x="520" y="583" on="0"/>
        <pt x="454" y="626" on="0"/>
        <pt x="373" y="626" on="1"/>
        <pt x="335" y="626" on="0"/>
        <pt x="273" y="623" on="0"/>
        <pt x="248" y="619" on="1"/>
        <pt x="248" y="432" on="1"/>
      </contour>
    </TTGlyph>
    <TTGlyph name="B.sc" xMin="72" yMin="-8" xMax="661" yMax="585">
      <contour>
        <pt x="374" y="-8" on="1"/>
        <pt x="300" y="-8" on="0"/>
        <pt x="156" y="-2" on="0"/>
        <pt x="72" y="4" on="1"/>
        <pt x="72" y="573" on="1"/>
        <pt x="145" y="579" on="0"/>
        <pt x="275" y="585" on="0"/>
        <pt x="340" y="585" on="1"/>
        <pt x="496" y="585" on="0"/>
        <pt x="638" y="505" on="0"/>
        <pt x="638" y="420" on="1"/>
        <pt x="638" y="327" on="0"/>
        <pt x="518" y="298" on="1"/>
        <pt x="518" y="295" on="1"/>
        <pt x="588" y="284" on="0"/>
        <pt x="661" y="214" on="0"/>
        <pt x="661" y="159" on="1"/>
        <pt x="661" y="72" on="0"/>
        <pt x="522" y="-8" on="0"/>
      </contour>
      <contour>
        <pt x="361" y="104" on="1"/>
        <pt x="430" y="104" on="0"/>
        <pt x="493" y="139" on="0"/>
        <pt x="493" y="177" on="1"/>
        <pt x="493" y="213" on="0"/>
        <pt x="434" y="244" on="0"/>
        <pt x="368" y="244" on="1"/>
        <pt x="236" y="244" on="1"/>
        <pt x="236" y="107" on="1"/>
        <pt x="244" y="106" on="0"/>
        <pt x="262" y="105" on="0"/>
        <pt x="289" y="104" on="0"/>
        <pt x="329" y="104" on="0"/>
      </contour>
      <contour>
        <pt x="352" y="341" on="1"/>
        <pt x="418" y="341" on="0"/>
        <pt x="472" y="371" on="0"/>
        <pt x="472" y="408" on="1"/>
        <pt x="472" y="445" on="0"/>
        <pt x="416" y="473" on="0"/>
        <pt x="345" y="473" on="1"/>
        <pt x="312" y="473" on="0"/>
        <pt x="257" y="472" on="0"/>
        <pt x="236" y="469" on="1"/>
        <pt x="236" y="341" on="1"/>
      </contour>
    </TTGlyph>
    <TTGlyph name="C" xMin="41" yMin="-13" xMax="604" yMax="753">
      <contour>
        <pt x="434" y="-13" on="1"/>
        <pt x="235" y="-13" on="0"/>
        <pt x="41" y="175" on="0"/>
        <pt x="41" y="369" on="1"/>
        <pt x="41" y="753" on="0"/>
        <pt x="419" y="753" on="1"/>
        <pt x="455" y="753" on="0"/>
        <pt x="544" y="746" on="0"/>
        <pt x="604" y="738" on="1"/>
        <pt x="604" y="594" on="1"/>
        <pt x="569" y="598" on="0"/>
        <pt x="520" y="604" on="0"/>
        <pt x="483" y="607" on="0"/>
        <pt x="454" y="608" on="0"/>
        <pt x="440" y="608" on="1"/>
        <pt x="378" y="608" on="0"/>
        <pt x="296" y="584" on="0"/>
        <pt x="246" y="529" on="0"/>
        <pt x="225" y="437" on="0"/>
        <pt x="225" y="369" on="1"/>
        <pt x="225" y="303" on="0"/>
        <pt x="246" y="212" on="0"/>
        <pt x="295" y="157" on="0"/>
        <pt x="375" y="133" on="0"/>
        <pt x="435" y="133" on="1"/>
        <pt x="452" y="133" on="0"/>
        <pt x="499" y="136" on="0"/>
        <pt x="547" y="140" on="0"/>
        <pt x="590" y="146" on="0"/>
        <pt x="604" y="149" on="1"/>
        <pt x="604" y="6" on="1"/>
        <pt x="563" y="-3" on="0"/>
        <pt x="472" y="-13" on="0"/>
      </contour>
    </TTGlyph>
    <TTGlyph name="C.sc" xMin="41" yMin="-12" xMax="551" yMax="588">
      <contour>
        <pt x="400" y="-12" on="1"/>
        <pt x="216" y="-12" on="0"/>
        <pt x="41" y="136" on="0"/>
        <pt x="41" y="288" on="1"/>
        <pt x="41" y="588" on="0"/>
        <pt x="384" y="588" on="1"/>
        <pt x="422" y="588" on="0"/>
        <pt x="503" y="583" on="0"/>
        <pt x="551" y="578" on="1"/>
        <pt x="551" y="442" on="1"/>
        <pt x="526" y="445" on="0"/>
        <pt x="488" y="448" on="0"/>
        <pt x="454" y="450" on="0"/>
        <pt x="422" y="451" on="0"/>
        <pt x="404" y="451" on="1"/>
        <pt x="347" y="451" on="0"/>
        <pt x="274" y="436" on="0"/>
        <pt x="233" y="399" on="0"/>
        <pt x="217" y="336" on="0"/>
        <pt x="217" y="288" on="1"/>
        <pt x="217" y="241" on="0"/>
        <pt x="233" y="179" on="0"/>
        <pt x="273" y="142" on="0"/>
        <pt x="344" y="127" on="0"/>
        <pt x="400" y="127" on="1"/>
        <pt x="416" y="127" on="0"/>
        <pt x="458" y="129" on="0"/>
        <pt x="501" y="132" on="0"/>
        <pt x="539" y="135" on="0"/>
        <pt x="551" y="137" on="1"/>
        <pt x="551" y="1" on="1"/>
        <pt x="517" y="-5" on="0"/>
        <pt x="438" y="-12" on="0"/>
      </contour>
    </TTGlyph>
    <TTGlyph name="Cacute" xMin="41" yMin="-13" xMax="604" yMax="986">
      <contour>
        <pt x="434" y="-13" on="1"/>
        <pt x="235" y="-13" on="0"/>
        <pt x="41" y="175" on="0"/>
        <pt x="41" y="369" on="1"/>
        <pt x="41" y="753" on="0"/>
        <pt x="419" y="753" on="1"/>
        <pt x="455" y="753" on="0"/>
        <pt x="544" y="746" on="0"/>
        <pt x="604" y="738" on="1"/>
        <pt x="604" y="594" on="1"/>
        <pt x="569" y="598" on="0"/>
        <pt x="520" y="604" on="0"/>
        <pt x="483" y="607" on="0"/>
        <pt x="454" y="608" on="0"/>
        <pt x="440" y="608" on="1"/>
        <pt x="378" y="608" on="0"/>
        <pt x="296" y="584" on="0"/>
        <pt x="246" y="529" on="0"/>
        <pt x="225" y="437" on="0"/>
        <pt x="225" y="369" on="1"/>
        <pt x="225" y="303" on="0"/>
        <pt x="246" y="212" on="0"/>
        <pt x="295" y="157" on="0"/>
        <pt x="375" y="133" on="0"/>
        <pt x="435" y="133" on="1"/>
        <pt x="452" y="133" on="0"/>
        <pt x="499" y="136" on="0"/>
        <pt x="547" y="140" on="0"/>
        <pt x="590" y="146" on="0"/>
        <pt x="604" y="149" on="1"/>
        <pt x="604" y="6" on="1"/>
        <pt x="563" y="-3" on="0"/>
        <pt x="472" y="-13" on="0"/>
      </contour>
      <contour>
        <pt x="293" y="815" on="1"/>
        <pt x="360" y="986" on="1"/>
        <pt x="540" y="986" on="1"/>
        <pt x="421" y="806" on="1"/>
      </contour>
    </TTGlyph>
    <TTGlyph name="Cacute.sc" xMin="41" yMin="-12" xMax="550" yMax="782">
      <contour>
        <pt x="400" y="-12" on="1"/>
        <pt x="216" y="-12" on="0"/>
        <pt x="41" y="135" on="0"/>
        <pt x="41" y="288" on="1"/>
        <pt x="41" y="440" on="0"/>
        <pt x="210" y="588" on="0"/>
        <pt x="384" y="588" on="1"/>
        <pt x="415" y="588" on="0"/>
        <pt x="494" y="584" on="0"/>
        <pt x="550" y="578" on="1"/>
        <pt x="550" y="442" on="1"/>
        <pt x="518" y="445" on="0"/>
        <pt x="473" y="449" on="0"/>
        <pt x="441" y="450" on="0"/>
        <pt x="416" y="451" on="0"/>
        <pt x="403" y="451" on="1"/>
        <pt x="348" y="451" on="0"/>
        <pt x="276" y="437" on="0"/>
        <pt x="233" y="401" on="0"/>
        <pt x="216" y="338" on="0"/>
        <pt x="216" y="288" on="1"/>
        <pt x="216" y="240" on="0"/>
        <pt x="233" y="177" on="0"/>
        <pt x="275" y="141" on="0"/>
        <pt x="346" y="127" on="0"/>
        <pt x="400" y="127" on="1"/>
        <pt x="415" y="127" on="0"/>
        <pt x="456" y="129" on="0"/>
        <pt x="499" y="132" on="0"/>
        <pt x="538" y="135" on="0"/>
        <pt x="550" y="137" on="1"/>
        <pt x="550" y="1" on="1"/>
        <pt x="513" y="-5" on="0"/>
        <pt x="433" y="-12" on="0"/>
      </contour>
      <contour>
        <pt x="265" y="638" on="1"/>
        <pt x="323" y="782" on="1"/>
        <pt x="494" y="782" on="1"/>
        <pt x="386" y="630" on="1"/>
      </contour>
    </TTGlyph>
    <TTGlyph name="Ccaron" xMin="41" yMin="-13" xMax="604" yMax="1001">
      <contour>
        <pt x="434" y="-13" on="1"/>
        <pt x="235" y="-13" on="0"/>
        <pt x="41" y="175" on="0"/>
        <pt x="41" y="369" on="1"/>
        <pt x="41" y="753" on="0"/>
        <pt x="419" y="753" on="1"/>
        <pt x="455" y="753" on="0"/>
        <pt x="544" y="746" on="0"/>
        <pt x="604" y="738" on="1"/>
        <pt x="604" y="594" on="1"/>
        <pt x="569" y="598" on="0"/>
        <pt x="520" y="604" on="0"/>
        <pt x="483" y="607" on="0"/>
        <pt x="454" y="608" on="0"/>
        <pt x="440" y="608" on="1"/>
        <pt x="378" y="608" on="0"/>
        <pt x="296" y="584" on="0"/>
        <pt x="246" y="529" on="0"/>
        <pt x="225" y="437" on="0"/>
        <pt x="225" y="369" on="1"/>
        <pt x="225" y="303" on="0"/>
        <pt x="246" y="212" on="0"/>
        <pt x="295" y="157" on="0"/>
        <pt x="375" y="133" on="0"/>
        <pt x="435" y="133" on="1"/>
        <pt x="452" y="133" on="0"/>
        <pt x="499" y="136" on="0"/>
        <pt x="547" y="140" on="0"/>
        <pt x="590" y="146" on="0"/>
        <pt x="604" y="149" on="1"/>
        <pt x="604" y="6" on="1"/>
        <pt x="563" y="-3" on="0"/>
        <pt x="472" y="-13" on="0"/>
      </contour>
      <contour>
        <pt x="153" y="1001" on="1"/>
        <pt x="365" y="921" on="1"/>
        <pt x="576" y="1001" on="1"/>
        <pt x="576" y="882" on="1"/>
        <pt x="362" y="803" on="1"/>
        <pt x="153" y="882" on="1"/>
      </contour>
    </TTGlyph>
    <TTGlyph name="Ccaron.sc" xMin="41" yMin="-12" xMax="550" yMax="796">
      <contour>
        <pt x="400" y="-12" on="1"/>
        <pt x="216" y="-12" on="0"/>
        <pt x="41" y="135" on="0"/>
        <pt x="41" y="288" on="1"/>
        <pt x="41" y="440" on="0"/>
        <pt x="210" y="588" on="0"/>
        <pt x="384" y="588" on="1"/>
        <pt x="415" y="588" on="0"/>
        <pt x="494" y="584" on="0"/>
        <pt x="550" y="578" on="1"/>
        <pt x="550" y="442" on="1"/>
        <pt x="518" y="445" on="0"/>
        <pt x="473" y="449" on="0"/>
        <pt x="441" y="450" on="0"/>
        <pt x="416" y="451" on="0"/>
        <pt x="403" y="451" on="1"/>
        <pt x="348" y="451" on="0"/>
        <pt x="276" y="437" on="0"/>
        <pt x="233" y="401" on="0"/>
        <pt x="216" y="338" on="0"/>
        <pt x="216" y="288" on="1"/>
        <pt x="216" y="240" on="0"/>
        <pt x="233" y="177" on="0"/>
        <pt x="275" y="141" on="0"/>
        <pt x="346" y="127" on="0"/>
        <pt x="400" y="127" on="1"/>
        <pt x="415" y="127" on="0"/>
        <pt x="456" y="129" on="0"/>
        <pt x="499" y="132" on="0"/>
        <pt x="538" y="135" on="0"/>
        <pt x="550" y="137" on="1"/>
        <pt x="550" y="1" on="1"/>
        <pt x="513" y="-5" on="0"/>
        <pt x="433" y="-12" on="0"/>
      </contour>
      <contour>
        <pt x="138" y="796" on="1"/>
        <pt x="332" y="733" on="1"/>
        <pt x="527" y="796" on="1"/>
        <pt x="527" y="687" on="1"/>
        <pt x="330" y="624" on="1"/>
        <pt x="138" y="687" on="1"/>
      </contour>
    </TTGlyph>
    <TTGlyph name="Ccedilla" xMin="41" yMin="-220" xMax="604" yMax="753">
      <contour>
        <pt x="359" y="-220" on="1"/>
        <pt x="335" y="-220" on="0"/>
        <pt x="277" y="-213" on="0"/>
        <pt x="248" y="-208" on="1"/>
        <pt x="248" y="-106" on="1"/>
        <pt x="267" y="-111" on="0"/>
        <pt x="313" y="-119" on="0"/>
        <pt x="333" y="-119" on="1"/>
        <pt x="359" y="-119" on="0"/>
        <pt x="379" y="-103" on="0"/>
        <pt x="379" y="-87" on="1"/>
        <pt x="379" y="-73" on="0"/>
        <pt x="361" y="-33" on="0"/>
        <pt x="341" y="-7" on="1"/>
        <pt x="41" y="33" on="0"/>
        <pt x="41" y="369" on="1"/>
        <pt x="41" y="753" on="0"/>
        <pt x="419" y="753" on="1"/>
        <pt x="455" y="753" on="0"/>
        <pt x="544" y="746" on="0"/>
        <pt x="604" y="738" on="1"/>
        <pt x="604" y="594" on="1"/>
        <pt x="569" y="598" on="0"/>
        <pt x="520" y="604" on="0"/>
        <pt x="483" y="607" on="0"/>
        <pt x="454" y="608" on="0"/>
        <pt x="440" y="608" on="1"/>
        <pt x="378" y="608" on="0"/>
        <pt x="296" y="584" on="0"/>
        <pt x="246" y="529" on="0"/>
        <pt x="225" y="437" on="0"/>
        <pt x="225" y="369" on="1"/>
        <pt x="225" y="303" on="0"/>
        <pt x="246" y="212" on="0"/>
        <pt x="295" y="157" on="0"/>
        <pt x="375" y="133" on="0"/>
        <pt x="435" y="133" on="1"/>
        <pt x="452" y="133" on="0"/>
        <pt x="499" y="136" on="0"/>
        <pt x="547" y="140" on="0"/>
        <pt x="590" y="146" on="0"/>
        <pt x="604" y="149" on="1"/>
        <pt x="604" y="6" on="1"/>
        <pt x="568" y="-2" on="0"/>
        <pt x="488" y="-11" on="0"/>
        <pt x="453" y="-13" on="1"/>
        <pt x="476" y="-43" on="0"/>
        <pt x="493" y="-85" on="0"/>
        <pt x="493" y="-107" on="1"/>
        <pt x="493" y="-161" on="0"/>
        <pt x="421" y="-220" on="0"/>
      </contour>
    </TTGlyph>
    <TTGlyph name="Ccedilla.sc" xMin="41" yMin="-172" xMax="551" yMax="588">
      <contour>
        <pt x="333" y="-172" on="1"/>
        <pt x="311" y="-172" on="0"/>
        <pt x="257" y="-165" on="0"/>
        <pt x="231" y="-162" on="1"/>
        <pt x="231" y="-69" on="1"/>
        <pt x="248" y="-73" on="0"/>
        <pt x="291" y="-79" on="0"/>
        <pt x="310" y="-79" on="1"/>
        <pt x="332" y="-79" on="0"/>
        <pt x="347" y="-70" on="0"/>
        <pt x="347" y="-62" on="1"/>
        <pt x="347" y="-54" on="0"/>
        <pt x="334" y="-28" on="0"/>
        <pt x="320" y="-8" on="1"/>
        <pt x="178" y="6" on="0"/>
        <pt x="41" y="152" on="0"/>
        <pt x="41" y="288" on="1"/>
        <pt x="41" y="440" on="0"/>
        <pt x="210" y="588" on="0"/>
        <pt x="384" y="588" on="1"/>
        <pt x="416" y="588" on="0"/>
        <pt x="495" y="584" on="0"/>
        <pt x="551" y="578" on="1"/>
        <pt x="551" y="442" on="1"/>
        <pt x="518" y="445" on="0"/>
        <pt x="474" y="449" on="0"/>
        <pt x="441" y="450" on="0"/>
        <pt x="417" y="451" on="0"/>
        <pt x="404" y="451" on="1"/>
        <pt x="349" y="451" on="0"/>
        <pt x="277" y="437" on="0"/>
        <pt x="234" y="401" on="0"/>
        <pt x="217" y="338" on="0"/>
        <pt x="217" y="288" on="1"/>
        <pt x="217" y="240" on="0"/>
        <pt x="234" y="177" on="0"/>
        <pt x="276" y="141" on="0"/>
        <pt x="346" y="127" on="0"/>
        <pt x="400" y="127" on="1"/>
        <pt x="415" y="127" on="0"/>
        <pt x="457" y="129" on="0"/>
        <pt x="500" y="132" on="0"/>
        <pt x="539" y="135" on="0"/>
        <pt x="551" y="137" on="1"/>
        <pt x="551" y="1" on="1"/>
        <pt x="520" y="-4" on="0"/>
        <pt x="453" y="-10" on="0"/>
        <pt x="424" y="-12" on="1"/>
        <pt x="441" y="-35" on="0"/>
        <pt x="454" y="-66" on="0"/>
        <pt x="454" y="-83" on="1"/>
        <pt x="454" y="-126" on="0"/>
        <pt x="388" y="-172" on="0"/>
      </contour>
    </TTGlyph>
    <TTGlyph name="Ccircumflex" xMin="41" yMin="-13" xMax="604" yMax="1001">
      <contour>
        <pt x="434" y="-13" on="1"/>
        <pt x="235" y="-13" on="0"/>
        <pt x="41" y="175" on="0"/>
        <pt x="41" y="369" on="1"/>
        <pt x="41" y="753" on="0"/>
        <pt x="419" y="753" on="1"/>
        <pt x="455" y="753" on="0"/>
        <pt x="544" y="746" on="0"/>
        <pt x="604" y="738" on="1"/>
        <pt x="604" y="594" on="1"/>
        <pt x="569" y="598" on="0"/>
        <pt x="520" y="604" on="0"/>
        <pt x="483" y="607" on="0"/>
        <pt x="454" y="608" on="0"/>
        <pt x="440" y="608" on="1"/>
        <pt x="378" y="608" on="0"/>
        <pt x="296" y="584" on="0"/>
        <pt x="246" y="529" on="0"/>
        <pt x="225" y="437" on="0"/>
        <pt x="225" y="369" on="1"/>
        <pt x="225" y="303" on="0"/>
        <pt x="246" y="212" on="0"/>
        <pt x="295" y="157" on="0"/>
        <pt x="375" y="133" on="0"/>
        <pt x="435" y="133" on="1"/>
        <pt x="452" y="133" on="0"/>
        <pt x="499" y="136" on="0"/>
        <pt x="547" y="140" on="0"/>
        <pt x="590" y="146" on="0"/>
        <pt x="604" y="149" on="1"/>
        <pt x="604" y="6" on="1"/>
        <pt x="563" y="-3" on="0"/>
        <pt x="472" y="-13" on="0"/>
      </contour>
      <contour>
        <pt x="151" y="921" on="1"/>
        <pt x="360" y="1001" on="1"/>
        <pt x="574" y="921" on="1"/>
        <pt x="574" y="803" on="1"/>
        <pt x="362" y="882" on="1"/>
        <pt x="151" y="803" on="1"/>
      </contour>
    </TTGlyph>
    <TTGlyph name="Ccircumflex.sc" xMin="41" yMin="-12" xMax="550" yMax="796">
      <contour>
        <pt x="400" y="-12" on="1"/>
        <pt x="216" y="-12" on="0"/>
        <pt x="41" y="135" on="0"/>
        <pt x="41" y="288" on="1"/>
        <pt x="41" y="440" on="0"/>
        <pt x="210" y="588" on="0"/>
        <pt x="384" y="588" on="1"/>
        <pt x="415" y="588" on="0"/>
        <pt x="494" y="584" on="0"/>
        <pt x="550" y="578" on="1"/>
        <pt x="550" y="442" on="1"/>
        <pt x="518" y="445" on="0"/>
        <pt x="473" y="449" on="0"/>
        <pt x="441" y="450" on="0"/>
        <pt x="416" y="451" on="0"/>
        <pt x="403" y="451" on="1"/>
        <pt x="348" y="451" on="0"/>
        <pt x="276" y="437" on="0"/>
        <pt x="233" y="401" on="0"/>
        <pt x="216" y="338" on="0"/>
        <pt x="216" y="288" on="1"/>
        <pt x="216" y="240" on="0"/>
        <pt x="233" y="177" on="0"/>
        <pt x="275" y="141" on="0"/>
        <pt x="346" y="127" on="0"/>
        <pt x="400" y="127" on="1"/>
        <pt x="415" y="127" on="0"/>
        <pt x="456" y="129" on="0"/>
        <pt x="499" y="132" on="0"/>
        <pt x="538" y="135" on="0"/>
        <pt x="550" y="137" on="1"/>
        <pt x="550" y="1" on="1"/>
        <pt x="513" y="-5" on="0"/>
        <pt x="433" y="-12" on="0"/>
      </contour>
      <contour>
        <pt x="136" y="732" on="1"/>
        <pt x="329" y="796" on="1"/>
        <pt x="526" y="732" on="1"/>
        <pt x="526" y="624" on="1"/>
        <pt x="331" y="687" on="1"/>
        <pt x="136" y="624" on="1"/>
      </contour>
    </TTGlyph>
    <TTGlyph name="Cdotaccent" xMin="41" yMin="-13" xMax="604" yMax="992">
      <contour>
        <pt x="384" y="804" on="1"/>
        <pt x="332" y="804" on="0"/>
        <pt x="287" y="847" on="0"/>
        <pt x="287" y="898" on="1"/>
        <pt x="287" y="947" on="0"/>
        <pt x="332" y="992" on="0"/>
        <pt x="384" y="992" on="1"/>
        <pt x="436" y="992" on="0"/>
        <pt x="480" y="946" on="0"/>
        <pt x="480" y="898" on="1"/>
        <pt x="480" y="850" on="0"/>
        <pt x="436" y="804" on="0"/>
      </contour>
      <contour>
        <pt x="434" y="-13" on="1"/>
        <pt x="235" y="-13" on="0"/>
        <pt x="41" y="175" on="0"/>
        <pt x="41" y="369" on="1"/>
        <pt x="41" y="753" on="0"/>
        <pt x="419" y="753" on="1"/>
        <pt x="455" y="753" on="0"/>
        <pt x="544" y="746" on="0"/>
        <pt x="604" y="738" on="1"/>
        <pt x="604" y="594" on="1"/>
        <pt x="569" y="598" on="0"/>
        <pt x="520" y="604" on="0"/>
        <pt x="483" y="607" on="0"/>
        <pt x="454" y="608" on="0"/>
        <pt x="440" y="608" on="1"/>
        <pt x="378" y="608" on="0"/>
        <pt x="296" y="584" on="0"/>
        <pt x="246" y="529" on="0"/>
        <pt x="225" y="437" on="0"/>
        <pt x="225" y="369" on="1"/>
        <pt x="225" y="303" on="0"/>
        <pt x="246" y="212" on="0"/>
        <pt x="295" y="157" on="0"/>
        <pt x="375" y="133" on="0"/>
        <pt x="435" y="133" on="1"/>
        <pt x="452" y="133" on="0"/>
        <pt x="499" y="136" on="0"/>
        <pt x="547" y="140" on="0"/>
        <pt x="590" y="146" on="0"/>
        <pt x="604" y="149" on="1"/>
        <pt x="604" y="6" on="1"/>
        <pt x="563" y="-3" on="0"/>
        <pt x="472" y="-13" on="0"/>
      </contour>
    </TTGlyph>
    <TTGlyph name="Cdotaccent.sc" xMin="41" yMin="-12" xMax="550" yMax="795">
      <contour>
        <pt x="400" y="-12" on="1"/>
        <pt x="216" y="-12" on="0"/>
        <pt x="41" y="135" on="0"/>
        <pt x="41" y="288" on="1"/>
        <pt x="41" y="440" on="0"/>
        <pt x="210" y="588" on="0"/>
        <pt x="384" y="588" on="1"/>
        <pt x="415" y="588" on="0"/>
        <pt x="494" y="584" on="0"/>
        <pt x="550" y="578" on="1"/>
        <pt x="550" y="442" on="1"/>
        <pt x="518" y="445" on="0"/>
        <pt x="473" y="449" on="0"/>
        <pt x="441" y="450" on="0"/>
        <pt x="416" y="451" on="0"/>
        <pt x="403" y="451" on="1"/>
        <pt x="348" y="451" on="0"/>
        <pt x="276" y="437" on="0"/>
        <pt x="233" y="401" on="0"/>
        <pt x="216" y="338" on="0"/>
        <pt x="216" y="288" on="1"/>
        <pt x="216" y="240" on="0"/>
        <pt x="233" y="177" on="0"/>
        <pt x="275" y="141" on="0"/>
        <pt x="346" y="127" on="0"/>
        <pt x="400" y="127" on="1"/>
        <pt x="415" y="127" on="0"/>
        <pt x="456" y="129" on="0"/>
        <pt x="499" y="132" on="0"/>
        <pt x="538" y="135" on="0"/>
        <pt x="550" y="137" on="1"/>
        <pt x="550" y="1" on="1"/>
        <pt x="513" y="-5" on="0"/>
        <pt x="433" y="-12" on="0"/>
      </contour>
      <contour>
        <pt x="352" y="622" on="1"/>
        <pt x="303" y="622" on="0"/>
        <pt x="261" y="662" on="0"/>
        <pt x="261" y="709" on="1"/>
        <pt x="261" y="754" on="0"/>
        <pt x="303" y="795" on="0"/>
        <pt x="352" y="795" on="1"/>
        <pt x="402" y="795" on="0"/>
        <pt x="443" y="752" on="0"/>
        <pt x="443" y="709" on="1"/>
        <pt x="443" y="665" on="0"/>
        <pt x="402" y="622" on="0"/>
      </contour>
    </TTGlyph>
    <TTGlyph name="D" xMin="77" yMin="-10" xMax="780" yMax="750">
      <contour>
        <pt x="308" y="-10" on="1"/>
        <pt x="274" y="-10" on="0"/>
        <pt x="206" y="-8" on="0"/>
        <pt x="145" y="-4" on="0"/>
        <pt x="94" y="2" on="0"/>
        <pt x="77" y="5" on="1"/>
        <pt x="77" y="738" on="1"/>
        <pt x="161" y="743" on="0"/>
        <pt x="301" y="750" on="0"/>
        <pt x="349" y="750" on="1"/>
        <pt x="572" y="750" on="0"/>
        <pt x="780" y="566" on="0"/>
        <pt x="780" y="369" on="1"/>
        <pt x="780" y="268" on="0"/>
        <pt x="727" y="124" on="0"/>
        <pt x="613" y="33" on="0"/>
        <pt x="434" y="-10" on="0"/>
      </contour>
      <contour>
        <pt x="378" y="131" on="1"/>
        <pt x="438" y="131" on="0"/>
        <pt x="522" y="156" on="0"/>
        <pt x="575" y="213" on="0"/>
        <pt x="598" y="303" on="0"/>
        <pt x="598" y="369" on="1"/>
        <pt x="598" y="434" on="0"/>
        <pt x="574" y="524" on="0"/>
        <pt x="520" y="581" on="0"/>
        <pt x="435" y="607" on="0"/>
        <pt x="374" y="607" on="1"/>
        <pt x="328" y="607" on="0"/>
        <pt x="255" y="601" on="1"/>
        <pt x="255" y="141" on="1"/>
        <pt x="311" y="131" on="0"/>
      </contour>
    </TTGlyph>
    <TTGlyph name="D.sc" xMin="73" yMin="-8" xMax="714" yMax="585">
      <contour>
        <pt x="326" y="-8" on="1"/>
        <pt x="291" y="-8" on="0"/>
        <pt x="217" y="-6" on="0"/>
        <pt x="150" y="-3" on="0"/>
        <pt x="92" y="1" on="0"/>
        <pt x="73" y="3" on="1"/>
        <pt x="73" y="575" on="1"/>
        <pt x="148" y="580" on="0"/>
        <pt x="278" y="585" on="0"/>
        <pt x="325" y="585" on="1"/>
        <pt x="524" y="585" on="0"/>
        <pt x="714" y="439" on="0"/>
        <pt x="714" y="287" on="1"/>
        <pt x="714" y="135" on="0"/>
        <pt x="525" y="-8" on="0"/>
      </contour>
      <contour>
        <pt x="353" y="125" on="1"/>
        <pt x="405" y="125" on="0"/>
        <pt x="477" y="142" on="0"/>
        <pt x="522" y="180" on="0"/>
        <pt x="541" y="242" on="0"/>
        <pt x="541" y="287" on="1"/>
        <pt x="541" y="332" on="0"/>
        <pt x="520" y="394" on="0"/>
        <pt x="475" y="433" on="0"/>
        <pt x="401" y="451" on="0"/>
        <pt x="349" y="451" on="1"/>
        <pt x="328" y="451" on="0"/>
        <pt x="276" y="449" on="0"/>
        <pt x="243" y="447" on="1"/>
        <pt x="243" y="132" on="1"/>
        <pt x="267" y="128" on="0"/>
        <pt x="321" y="125" on="0"/>
      </contour>
    </TTGlyph>
    <TTGlyph name="Dcaron" xMin="77" yMin="-10" xMax="780" yMax="1001">
      <contour>
        <pt x="189" y="1001" on="1"/>
        <pt x="401" y="921" on="1"/>
        <pt x="612" y="1001" on="1"/>
        <pt x="612" y="882" on="1"/>
        <pt x="398" y="803" on="1"/>
        <pt x="189" y="882" on="1"/>
      </contour>
      <contour>
        <pt x="308" y="-10" on="1"/>
        <pt x="274" y="-10" on="0"/>
        <pt x="206" y="-8" on="0"/>
        <pt x="145" y="-4" on="0"/>
        <pt x="94" y="2" on="0"/>
        <pt x="77" y="5" on="1"/>
        <pt x="77" y="738" on="1"/>
        <pt x="161" y="743" on="0"/>
        <pt x="301" y="750" on="0"/>
        <pt x="349" y="750" on="1"/>
        <pt x="572" y="750" on="0"/>
        <pt x="780" y="566" on="0"/>
        <pt x="780" y="369" on="1"/>
        <pt x="780" y="268" on="0"/>
        <pt x="727" y="124" on="0"/>
        <pt x="613" y="33" on="0"/>
        <pt x="434" y="-10" on="0"/>
      </contour>
      <contour>
        <pt x="378" y="131" on="1"/>
        <pt x="438" y="131" on="0"/>
        <pt x="522" y="156" on="0"/>
        <pt x="575" y="213" on="0"/>
        <pt x="598" y="303" on="0"/>
        <pt x="598" y="369" on="1"/>
        <pt x="598" y="434" on="0"/>
        <pt x="574" y="524" on="0"/>
        <pt x="520" y="581" on="0"/>
        <pt x="435" y="607" on="0"/>
        <pt x="374" y="607" on="1"/>
        <pt x="328" y="607" on="0"/>
        <pt x="255" y="601" on="1"/>
        <pt x="255" y="141" on="1"/>
        <pt x="311" y="131" on="0"/>
      </contour>
    </TTGlyph>
    <TTGlyph name="Dcaron.sc" xMin="73" yMin="-8" xMax="714" yMax="796">
      <contour>
        <pt x="326" y="-8" on="1"/>
        <pt x="291" y="-8" on="0"/>
        <pt x="217" y="-6" on="0"/>
        <pt x="150" y="-3" on="0"/>
        <pt x="92" y="1" on="0"/>
        <pt x="73" y="3" on="1"/>
        <pt x="73" y="575" on="1"/>
        <pt x="148" y="580" on="0"/>
        <pt x="278" y="585" on="0"/>
        <pt x="325" y="585" on="1"/>
        <pt x="524" y="585" on="0"/>
        <pt x="714" y="439" on="0"/>
        <pt x="714" y="287" on="1"/>
        <pt x="714" y="135" on="0"/>
        <pt x="525" y="-8" on="0"/>
      </contour>
      <contour>
        <pt x="353" y="125" on="1"/>
        <pt x="405" y="125" on="0"/>
        <pt x="477" y="142" on="0"/>
        <pt x="522" y="180" on="0"/>
        <pt x="541" y="242" on="0"/>
        <pt x="541" y="287" on="1"/>
        <pt x="541" y="332" on="0"/>
        <pt x="520" y="394" on="0"/>
        <pt x="475" y="433" on="0"/>
        <pt x="401" y="451" on="0"/>
        <pt x="349" y="451" on="1"/>
        <pt x="328" y="451" on="0"/>
        <pt x="276" y="449" on="0"/>
        <pt x="243" y="447" on="1"/>
        <pt x="243" y="132" on="1"/>
        <pt x="267" y="128" on="0"/>
        <pt x="321" y="125" on="0"/>
      </contour>
      <contour>
        <pt x="178" y="687" on="1"/>
        <pt x="178" y="796" on="1"/>
        <pt x="373" y="733" on="1"/>
        <pt x="568" y="796" on="1"/>
        <pt x="568" y="687" on="1"/>
        <pt x="370" y="624" on="1"/>
      </contour>
    </TTGlyph>
    <TTGlyph name="Dcroat" xMin="5" yMin="-10" xMax="801" yMax="750">
      <contour>
        <pt x="5" y="440" on="1"/>
        <pt x="98" y="440" on="1"/>
        <pt x="98" y="738" on="1"/>
        <pt x="182" y="743" on="0"/>
        <pt x="322" y="750" on="0"/>
        <pt x="370" y="750" on="1"/>
        <pt x="593" y="750" on="0"/>
        <pt x="801" y="566" on="0"/>
        <pt x="801" y="369" on="1"/>
        <pt x="801" y="268" on="0"/>
        <pt x="748" y="124" on="0"/>
        <pt x="634" y="33" on="0"/>
        <pt x="455" y="-10" on="0"/>
        <pt x="329" y="-10" on="1"/>
        <pt x="295" y="-10" on="0"/>
        <pt x="227" y="-8" on="0"/>
        <pt x="166" y="-4" on="0"/>
        <pt x="115" y="2" on="0"/>
        <pt x="98" y="5" on="1"/>
        <pt x="98" y="306" on="1"/>
        <pt x="5" y="306" on="1"/>
      </contour>
      <contour>
        <pt x="399" y="131" on="1"/>
        <pt x="459" y="131" on="0"/>
        <pt x="543" y="156" on="0"/>
        <pt x="596" y="213" on="0"/>
        <pt x="619" y="303" on="0"/>
        <pt x="619" y="369" on="1"/>
        <pt x="619" y="434" on="0"/>
        <pt x="595" y="524" on="0"/>
        <pt x="541" y="581" on="0"/>
        <pt x="456" y="607" on="0"/>
        <pt x="395" y="607" on="1"/>
        <pt x="349" y="607" on="0"/>
        <pt x="276" y="601" on="1"/>
        <pt x="276" y="440" on="1"/>
        <pt x="413" y="440" on="1"/>
        <pt x="413" y="306" on="1"/>
        <pt x="276" y="306" on="1"/>
        <pt x="276" y="141" on="1"/>
        <pt x="332" y="131" on="0"/>
      </contour>
    </TTGlyph>
    <TTGlyph name="Dcroat.sc" xMin="15" yMin="-8" xMax="738" yMax="585">
      <contour>
        <pt x="15" y="356" on="1"/>
        <pt x="97" y="356" on="1"/>
        <pt x="97" y="575" on="1"/>
        <pt x="177" y="580" on="0"/>
        <pt x="304" y="585" on="0"/>
        <pt x="349" y="585" on="1"/>
        <pt x="550" y="585" on="0"/>
        <pt x="738" y="441" on="0"/>
        <pt x="738" y="287" on="1"/>
        <pt x="738" y="208" on="0"/>
        <pt x="690" y="96" on="0"/>
        <pt x="586" y="25" on="0"/>
        <pt x="423" y="-8" on="0"/>
        <pt x="308" y="-8" on="1"/>
        <pt x="277" y="-8" on="0"/>
        <pt x="214" y="-6" on="0"/>
        <pt x="158" y="-3" on="0"/>
        <pt x="112" y="1" on="0"/>
        <pt x="97" y="3" on="1"/>
        <pt x="97" y="228" on="1"/>
        <pt x="15" y="228" on="1"/>
      </contour>
      <contour>
        <pt x="376" y="125" on="1"/>
        <pt x="428" y="125" on="0"/>
        <pt x="501" y="141" on="0"/>
        <pt x="545" y="179" on="0"/>
        <pt x="565" y="241" on="0"/>
        <pt x="565" y="287" on="1"/>
        <pt x="565" y="332" on="0"/>
        <pt x="544" y="395" on="0"/>
        <pt x="498" y="434" on="0"/>
        <pt x="425" y="451" on="0"/>
        <pt x="373" y="451" on="1"/>
        <pt x="354" y="451" on="0"/>
        <pt x="302" y="449" on="0"/>
        <pt x="267" y="447" on="1"/>
        <pt x="267" y="356" on="1"/>
        <pt x="383" y="356" on="1"/>
        <pt x="383" y="228" on="1"/>
        <pt x="267" y="228" on="1"/>
        <pt x="267" y="132" on="1"/>
        <pt x="292" y="129" on="0"/>
        <pt x="347" y="125" on="0"/>
      </contour>
    </TTGlyph>
    <TTGlyph name="Ddotbelow" xMin="77" yMin="-206" xMax="780" yMax="750">
      <contour>
        <pt x="397" y="-206" on="1"/>
        <pt x="357" y="-206" on="0"/>
        <pt x="321" y="-171" on="0"/>
        <pt x="321" y="-133" on="1"/>
        <pt x="321" y="-94" on="0"/>
        <pt x="357" y="-59" on="0"/>
        <pt x="397" y="-59" on="1"/>
        <pt x="439" y="-59" on="0"/>
        <pt x="473" y="-95" on="0"/>
        <pt x="473" y="-133" on="1"/>
        <pt x="473" y="-171" on="0"/>
        <pt x="439" y="-206" on="0"/>
      </contour>
      <contour>
        <pt x="308" y="-10" on="1"/>
        <pt x="274" y="-10" on="0"/>
        <pt x="206" y="-8" on="0"/>
        <pt x="145" y="-4" on="0"/>
        <pt x="94" y="2" on="0"/>
        <pt x="77" y="5" on="1"/>
        <pt x="77" y="738" on="1"/>
        <pt x="161" y="743" on="0"/>
        <pt x="301" y="750" on="0"/>
        <pt x="349" y="750" on="1"/>
        <pt x="572" y="750" on="0"/>
        <pt x="780" y="566" on="0"/>
        <pt x="780" y="369" on="1"/>
        <pt x="780" y="268" on="0"/>
        <pt x="727" y="124" on="0"/>
        <pt x="613" y="33" on="0"/>
        <pt x="434" y="-10" on="0"/>
      </contour>
      <contour>
        <pt x="378" y="131" on="1"/>
        <pt x="438" y="131" on="0"/>
        <pt x="522" y="156" on="0"/>
        <pt x="575" y="213" on="0"/>
        <pt x="598" y="303" on="0"/>
        <pt x="598" y="369" on="1"/>
        <pt x="598" y="434" on="0"/>
        <pt x="574" y="524" on="0"/>
        <pt x="520" y="581" on="0"/>
        <pt x="435" y="607" on="0"/>
        <pt x="374" y="607" on="1"/>
        <pt x="328" y="607" on="0"/>
        <pt x="255" y="601" on="1"/>
        <pt x="255" y="141" on="1"/>
        <pt x="311" y="131" on="0"/>
      </contour>
    </TTGlyph>
    <TTGlyph name="Ddotbelow.sc" xMin="73" yMin="-168" xMax="714" yMax="585">
      <contour>
        <pt x="326" y="-8" on="1"/>
        <pt x="291" y="-8" on="0"/>
        <pt x="217" y="-6" on="0"/>
        <pt x="150" y="-3" on="0"/>
        <pt x="92" y="1" on="0"/>
        <pt x="73" y="3" on="1"/>
        <pt x="73" y="575" on="1"/>
        <pt x="148" y="580" on="0"/>
        <pt x="278" y="585" on="0"/>
        <pt x="325" y="585" on="1"/>
        <pt x="524" y="585" on="0"/>
        <pt x="714" y="439" on="0"/>
        <pt x="714" y="287" on="1"/>
        <pt x="714" y="135" on="0"/>
        <pt x="525" y="-8" on="0"/>
      </contour>
      <contour>
        <pt x="353" y="125" on="1"/>
        <pt x="405" y="125" on="0"/>
        <pt x="477" y="142" on="0"/>
        <pt x="522" y="180" on="0"/>
        <pt x="541" y="242" on="0"/>
        <pt x="541" y="287" on="1"/>
        <pt x="541" y="332" on="0"/>
        <pt x="520" y="394" on="0"/>
        <pt x="475" y="433" on="0"/>
        <pt x="401" y="451" on="0"/>
        <pt x="349" y="451" on="1"/>
        <pt x="328" y="451" on="0"/>
        <pt x="276" y="449" on="0"/>
        <pt x="243" y="447" on="1"/>
        <pt x="243" y="132" on="1"/>
        <pt x="267" y="128" on="0"/>
        <pt x="321" y="125" on="0"/>
      </contour>
      <contour>
        <pt x="368" y="-168" on="1"/>
        <pt x="330" y="-168" on="0"/>
        <pt x="297" y="-137" on="0"/>
        <pt x="297" y="-103" on="1"/>
        <pt x="297" y="-69" on="0"/>
        <pt x="330" y="-38" on="0"/>
        <pt x="368" y="-38" on="1"/>
        <pt x="407" y="-38" on="0"/>
        <pt x="439" y="-71" on="0"/>
        <pt x="439" y="-103" on="1"/>
        <pt x="439" y="-135" on="0"/>
        <pt x="407" y="-168" on="0"/>
      </contour>
    </TTGlyph>
    <TTGlyph name="Delta" xMin="23" yMin="0" xMax="853" yMax="740">
      <contour>
        <pt x="335" y="740" on="1"/>
        <pt x="541" y="740" on="1"/>
        <pt x="853" y="0" on="1"/>
        <pt x="23" y="0" on="1"/>
      </contour>
      <contour>
        <pt x="632" y="135" on="1"/>
        <pt x="438" y="593" on="1"/>
        <pt x="244" y="135" on="1"/>
      </contour>
    </TTGlyph>
    <TTGlyph name="E" xMin="77" yMin="0" xMax="655" yMax="740">
      <contour>
        <pt x="77" y="740" on="1"/>
        <pt x="645" y="740" on="1"/>
        <pt x="645" y="604" on="1"/>
        <pt x="255" y="604" on="1"/>
        <pt x="255" y="440" on="1"/>
        <pt x="612" y="440" on="1"/>
        <pt x="612" y="304" on="1"/>
        <pt x="255" y="304" on="1"/>
        <pt x="255" y="136" on="1"/>
        <pt x="655" y="136" on="1"/>
        <pt x="655" y="0" on="1"/>
        <pt x="77" y="0" on="1"/>
      </contour>
    </TTGlyph>
    <TTGlyph name="E.sc" xMin="73" yMin="0" xMax="602" yMax="577">
      <contour>
        <pt x="73" y="577" on="1"/>
        <pt x="594" y="577" on="1"/>
        <pt x="594" y="454" on="1"/>
        <pt x="244" y="454" on="1"/>
        <pt x="244" y="344" on="1"/>
        <pt x="562" y="344" on="1"/>
        <pt x="562" y="238" on="1"/>
        <pt x="244" y="238" on="1"/>
        <pt x="244" y="124" on="1"/>
        <pt x="602" y="124" on="1"/>
        <pt x="602" y="0" on="1"/>
        <pt x="73" y="0" on="1"/>
      </contour>
    </TTGlyph>
    <TTGlyph name="Eacute" xMin="77" yMin="0" xMax="655" yMax="986">
      <contour>
        <pt x="286" y="815" on="1"/>
        <pt x="353" y="986" on="1"/>
        <pt x="533" y="986" on="1"/>
        <pt x="414" y="806" on="1"/>
      </contour>
      <contour>
        <pt x="77" y="740" on="1"/>
        <pt x="645" y="740" on="1"/>
        <pt x="645" y="604" on="1"/>
        <pt x="255" y="604" on="1"/>
        <pt x="255" y="440" on="1"/>
        <pt x="612" y="440" on="1"/>
        <pt x="612" y="304" on="1"/>
        <pt x="255" y="304" on="1"/>
        <pt x="255" y="136" on="1"/>
        <pt x="655" y="136" on="1"/>
        <pt x="655" y="0" on="1"/>
        <pt x="77" y="0" on="1"/>
      </contour>
    </TTGlyph>
    <TTGlyph name="Eacute.sc" xMin="73" yMin="0" xMax="602" yMax="782">
      <contour>
        <pt x="73" y="577" on="1"/>
        <pt x="594" y="577" on="1"/>
        <pt x="594" y="454" on="1"/>
        <pt x="244" y="454" on="1"/>
        <pt x="244" y="344" on="1"/>
        <pt x="562" y="344" on="1"/>
        <pt x="562" y="238" on="1"/>
        <pt x="244" y="238" on="1"/>
        <pt x="244" y="124" on="1"/>
        <pt x="602" y="124" on="1"/>
        <pt x="602" y="0" on="1"/>
        <pt x="73" y="0" on="1"/>
      </contour>
      <contour>
        <pt x="262" y="638" on="1"/>
        <pt x="320" y="782" on="1"/>
        <pt x="491" y="782" on="1"/>
        <pt x="383" y="630" on="1"/>
      </contour>
    </TTGlyph>
    <TTGlyph name="Ebreve" xMin="77" yMin="0" xMax="655" yMax="990">
      <contour>
        <pt x="354" y="813" on="1"/>
        <pt x="289" y="813" on="0"/>
        <pt x="201" y="840" on="0"/>
        <pt x="147" y="888" on="0"/>
        <pt x="123" y="952" on="0"/>
        <pt x="123" y="990" on="1"/>
        <pt x="240" y="990" on="1"/>
        <pt x="240" y="946" on="0"/>
        <pt x="290" y="898" on="0"/>
        <pt x="354" y="898" on="1"/>
        <pt x="418" y="898" on="0"/>
        <pt x="467" y="946" on="0"/>
        <pt x="467" y="990" on="1"/>
        <pt x="584" y="990" on="1"/>
        <pt x="584" y="951" on="0"/>
        <pt x="560" y="886" on="0"/>
        <pt x="506" y="839" on="0"/>
        <pt x="418" y="813" on="0"/>
      </contour>
      <contour>
        <pt x="77" y="740" on="1"/>
        <pt x="645" y="740" on="1"/>
        <pt x="645" y="604" on="1"/>
        <pt x="255" y="604" on="1"/>
        <pt x="255" y="440" on="1"/>
        <pt x="612" y="440" on="1"/>
        <pt x="612" y="304" on="1"/>
        <pt x="255" y="304" on="1"/>
        <pt x="255" y="136" on="1"/>
        <pt x="655" y="136" on="1"/>
        <pt x="655" y="0" on="1"/>
        <pt x="77" y="0" on="1"/>
      </contour>
    </TTGlyph>
    <TTGlyph name="Ebreve.sc" xMin="73" yMin="0" xMax="602" yMax="782">
      <contour>
        <pt x="326" y="634" on="1"/>
        <pt x="266" y="634" on="0"/>
        <pt x="184" y="657" on="0"/>
        <pt x="135" y="698" on="0"/>
        <pt x="114" y="752" on="0"/>
        <pt x="114" y="782" on="1"/>
        <pt x="224" y="782" on="1"/>
        <pt x="224" y="749" on="0"/>
        <pt x="268" y="711" on="0"/>
        <pt x="326" y="711" on="1"/>
        <pt x="385" y="711" on="0"/>
        <pt x="428" y="749" on="0"/>
        <pt x="428" y="782" on="1"/>
        <pt x="537" y="782" on="1"/>
        <pt x="537" y="750" on="0"/>
        <pt x="516" y="696" on="0"/>
        <pt x="467" y="657" on="0"/>
        <pt x="386" y="634" on="0"/>
      </contour>
      <contour>
        <pt x="73" y="577" on="1"/>
        <pt x="594" y="577" on="1"/>
        <pt x="594" y="454" on="1"/>
        <pt x="244" y="454" on="1"/>
        <pt x="244" y="344" on="1"/>
        <pt x="562" y="344" on="1"/>
        <pt x="562" y="238" on="1"/>
        <pt x="244" y="238" on="1"/>
        <pt x="244" y="124" on="1"/>
        <pt x="602" y="124" on="1"/>
        <pt x="602" y="0" on="1"/>
        <pt x="73" y="0" on="1"/>
      </contour>
    </TTGlyph>
    <TTGlyph name="Ecaron" xMin="77" yMin="0" xMax="655" yMax="1001">
      <contour>
        <pt x="149" y="1001" on="1"/>
        <pt x="361" y="921" on="1"/>
        <pt x="572" y="1001" on="1"/>
        <pt x="572" y="882" on="1"/>
        <pt x="358" y="803" on="1"/>
        <pt x="149" y="882" on="1"/>
      </contour>
      <contour>
        <pt x="77" y="740" on="1"/>
        <pt x="645" y="740" on="1"/>
        <pt x="645" y="604" on="1"/>
        <pt x="255" y="604" on="1"/>
        <pt x="255" y="440" on="1"/>
        <pt x="612" y="440" on="1"/>
        <pt x="612" y="304" on="1"/>
        <pt x="255" y="304" on="1"/>
        <pt x="255" y="136" on="1"/>
        <pt x="655" y="136" on="1"/>
        <pt x="655" y="0" on="1"/>
        <pt x="77" y="0" on="1"/>
      </contour>
    </TTGlyph>
    <TTGlyph name="Ecaron.sc" xMin="73" yMin="0" xMax="602" yMax="796">
      <contour>
        <pt x="73" y="577" on="1"/>
        <pt x="594" y="577" on="1"/>
        <pt x="594" y="454" on="1"/>
        <pt x="244" y="454" on="1"/>
        <pt x="244" y="344" on="1"/>
        <pt x="562" y="344" on="1"/>
        <pt x="562" y="238" on="1"/>
        <pt x="244" y="238" on="1"/>
        <pt x="244" y="124" on="1"/>
        <pt x="602" y="124" on="1"/>
        <pt x="602" y="0" on="1"/>
        <pt x="73" y="0" on="1"/>
      </contour>
      <contour>
        <pt x="137" y="687" on="1"/>
        <pt x="137" y="796" on="1"/>
        <pt x="332" y="733" on="1"/>
        <pt x="526" y="796" on="1"/>
        <pt x="526" y="687" on="1"/>
        <pt x="330" y="624" on="1"/>
      </contour>
    </TTGlyph>
    <TTGlyph name="Ecircumflex" xMin="77" yMin="0" xMax="655" yMax="1001">
      <contour>
        <pt x="77" y="740" on="1"/>
        <pt x="645" y="740" on="1"/>
        <pt x="645" y="604" on="1"/>
        <pt x="255" y="604" on="1"/>
        <pt x="255" y="440" on="1"/>
        <pt x="612" y="440" on="1"/>
        <pt x="612" y="304" on="1"/>
        <pt x="255" y="304" on="1"/>
        <pt x="255" y="136" on="1"/>
        <pt x="655" y="136" on="1"/>
        <pt x="655" y="0" on="1"/>
        <pt x="77" y="0" on="1"/>
      </contour>
      <contour>
        <pt x="164" y="921" on="1"/>
        <pt x="373" y="1001" on="1"/>
        <pt x="587" y="921" on="1"/>
        <pt x="587" y="803" on="1"/>
        <pt x="375" y="882" on="1"/>
        <pt x="164" y="803" on="1"/>
      </contour>
    </TTGlyph>
    <TTGlyph name="Ecircumflex.sc" xMin="73" yMin="0" xMax="602" yMax="796">
      <contour>
        <pt x="73" y="577" on="1"/>
        <pt x="594" y="577" on="1"/>
        <pt x="594" y="454" on="1"/>
        <pt x="244" y="454" on="1"/>
        <pt x="244" y="344" on="1"/>
        <pt x="562" y="344" on="1"/>
        <pt x="562" y="238" on="1"/>
        <pt x="244" y="238" on="1"/>
        <pt x="244" y="124" on="1"/>
        <pt x="602" y="124" on="1"/>
        <pt x="602" y="0" on="1"/>
        <pt x="73" y="0" on="1"/>
      </contour>
      <contour>
        <pt x="153" y="732" on="1"/>
        <pt x="346" y="796" on="1"/>
        <pt x="542" y="732" on="1"/>
        <pt x="542" y="624" on="1"/>
        <pt x="348" y="687" on="1"/>
        <pt x="153" y="624" on="1"/>
      </contour>
    </TTGlyph>
    <TTGlyph name="Edblgrave" xMin="65" yMin="0" xMax="655" yMax="983">
      <contour>
        <pt x="77" y="740" on="1"/>
        <pt x="645" y="740" on="1"/>
        <pt x="645" y="604" on="1"/>
        <pt x="255" y="604" on="1"/>
        <pt x="255" y="440" on="1"/>
        <pt x="612" y="440" on="1"/>
        <pt x="612" y="304" on="1"/>
        <pt x="255" y="304" on="1"/>
        <pt x="255" y="136" on="1"/>
        <pt x="655" y="136" on="1"/>
        <pt x="655" y="0" on="1"/>
        <pt x="77" y="0" on="1"/>
      </contour>
      <contour>
        <pt x="184" y="803" on="1"/>
        <pt x="65" y="983" on="1"/>
        <pt x="242" y="983" on="1"/>
        <pt x="308" y="815" on="1"/>
      </contour>
      <contour>
        <pt x="402" y="803" on="1"/>
        <pt x="282" y="983" on="1"/>
        <pt x="459" y="983" on="1"/>
        <pt x="525" y="815" on="1"/>
      </contour>
    </TTGlyph>
    <TTGlyph name="Edblgrave.sc" xMin="58" yMin="0" xMax="602" yMax="781">
      <contour>
        <pt x="73" y="577" on="1"/>
        <pt x="594" y="577" on="1"/>
        <pt x="594" y="454" on="1"/>
        <pt x="244" y="454" on="1"/>
        <pt x="244" y="344" on="1"/>
        <pt x="562" y="344" on="1"/>
        <pt x="562" y="238" on="1"/>
        <pt x="244" y="238" on="1"/>
        <pt x="244" y="124" on="1"/>
        <pt x="602" y="124" on="1"/>
        <pt x="602" y="0" on="1"/>
        <pt x="73" y="0" on="1"/>
      </contour>
      <contour>
        <pt x="58" y="781" on="1"/>
        <pt x="227" y="781" on="1"/>
        <pt x="285" y="638" on="1"/>
        <pt x="166" y="629" on="1"/>
      </contour>
      <contour>
        <pt x="259" y="781" on="1"/>
        <pt x="428" y="781" on="1"/>
        <pt x="487" y="638" on="1"/>
        <pt x="367" y="629" on="1"/>
      </contour>
    </TTGlyph>
    <TTGlyph name="Edieresis" xMin="77" yMin="0" xMax="655" yMax="994">
      <contour>
        <pt x="218" y="805" on="1"/>
        <pt x="166" y="805" on="0"/>
        <pt x="121" y="849" on="0"/>
        <pt x="121" y="900" on="1"/>
        <pt x="121" y="949" on="0"/>
        <pt x="166" y="994" on="0"/>
        <pt x="218" y="994" on="1"/>
        <pt x="270" y="994" on="0"/>
        <pt x="314" y="948" on="0"/>
        <pt x="314" y="900" on="1"/>
        <pt x="314" y="852" on="0"/>
        <pt x="270" y="805" on="0"/>
      </contour>
      <contour>
        <pt x="524" y="805" on="1"/>
        <pt x="472" y="805" on="0"/>
        <pt x="427" y="849" on="0"/>
        <pt x="427" y="900" on="1"/>
        <pt x="427" y="949" on="0"/>
        <pt x="472" y="994" on="0"/>
        <pt x="524" y="994" on="1"/>
        <pt x="576" y="994" on="0"/>
        <pt x="620" y="948" on="0"/>
        <pt x="620" y="900" on="1"/>
        <pt x="620" y="852" on="0"/>
        <pt x="576" y="805" on="0"/>
      </contour>
      <contour>
        <pt x="77" y="740" on="1"/>
        <pt x="645" y="740" on="1"/>
        <pt x="645" y="604" on="1"/>
        <pt x="255" y="604" on="1"/>
        <pt x="255" y="440" on="1"/>
        <pt x="612" y="440" on="1"/>
        <pt x="612" y="304" on="1"/>
        <pt x="255" y="304" on="1"/>
        <pt x="255" y="136" on="1"/>
        <pt x="655" y="136" on="1"/>
        <pt x="655" y="0" on="1"/>
        <pt x="77" y="0" on="1"/>
      </contour>
    </TTGlyph>
    <TTGlyph name="Edieresis.sc" xMin="73" yMin="0" xMax="602" yMax="796">
      <contour>
        <pt x="204" y="623" on="1"/>
        <pt x="156" y="623" on="0"/>
        <pt x="113" y="663" on="0"/>
        <pt x="113" y="709" on="1"/>
        <pt x="113" y="754" on="0"/>
        <pt x="156" y="796" on="0"/>
        <pt x="204" y="796" on="1"/>
        <pt x="255" y="796" on="0"/>
        <pt x="295" y="753" on="0"/>
        <pt x="295" y="709" on="1"/>
        <pt x="295" y="665" on="0"/>
        <pt x="255" y="623" on="0"/>
      </contour>
      <contour>
        <pt x="482" y="623" on="1"/>
        <pt x="433" y="623" on="0"/>
        <pt x="391" y="663" on="0"/>
        <pt x="391" y="709" on="1"/>
        <pt x="391" y="754" on="0"/>
        <pt x="433" y="796" on="0"/>
        <pt x="482" y="796" on="1"/>
        <pt x="531" y="796" on="0"/>
        <pt x="572" y="753" on="0"/>
        <pt x="572" y="709" on="1"/>
        <pt x="572" y="665" on="0"/>
        <pt x="531" y="623" on="0"/>
      </contour>
      <contour>
        <pt x="73" y="577" on="1"/>
        <pt x="594" y="577" on="1"/>
        <pt x="594" y="454" on="1"/>
        <pt x="244" y="454" on="1"/>
        <pt x="244" y="344" on="1"/>
        <pt x="562" y="344" on="1"/>
        <pt x="562" y="238" on="1"/>
        <pt x="244" y="238" on="1"/>
        <pt x="244" y="124" on="1"/>
        <pt x="602" y="124" on="1"/>
        <pt x="602" y="0" on="1"/>
        <pt x="73" y="0" on="1"/>
      </contour>
    </TTGlyph>
    <TTGlyph name="Edotaccent" xMin="77" yMin="0" xMax="655" yMax="992">
      <contour>
        <pt x="355" y="804" on="1"/>
        <pt x="303" y="804" on="0"/>
        <pt x="258" y="847" on="0"/>
        <pt x="258" y="898" on="1"/>
        <pt x="258" y="947" on="0"/>
        <pt x="303" y="992" on="0"/>
        <pt x="355" y="992" on="1"/>
        <pt x="407" y="992" on="0"/>
        <pt x="451" y="946" on="0"/>
        <pt x="451" y="898" on="1"/>
        <pt x="451" y="850" on="0"/>
        <pt x="407" y="804" on="0"/>
      </contour>
      <contour>
        <pt x="77" y="740" on="1"/>
        <pt x="645" y="740" on="1"/>
        <pt x="645" y="604" on="1"/>
        <pt x="255" y="604" on="1"/>
        <pt x="255" y="440" on="1"/>
        <pt x="612" y="440" on="1"/>
        <pt x="612" y="304" on="1"/>
        <pt x="255" y="304" on="1"/>
        <pt x="255" y="136" on="1"/>
        <pt x="655" y="136" on="1"/>
        <pt x="655" y="0" on="1"/>
        <pt x="77" y="0" on="1"/>
      </contour>
    </TTGlyph>
    <TTGlyph name="Edotaccent.sc" xMin="73" yMin="0" xMax="602" yMax="795">
      <contour>
        <pt x="326" y="622" on="1"/>
        <pt x="277" y="622" on="0"/>
        <pt x="235" y="662" on="0"/>
        <pt x="235" y="709" on="1"/>
        <pt x="235" y="754" on="0"/>
        <pt x="277" y="795" on="0"/>
        <pt x="326" y="795" on="1"/>
        <pt x="376" y="795" on="0"/>
        <pt x="417" y="752" on="0"/>
        <pt x="417" y="709" on="1"/>
        <pt x="417" y="665" on="0"/>
        <pt x="376" y="622" on="0"/>
      </contour>
      <contour>
        <pt x="73" y="577" on="1"/>
        <pt x="594" y="577" on="1"/>
        <pt x="594" y="454" on="1"/>
        <pt x="244" y="454" on="1"/>
        <pt x="244" y="344" on="1"/>
        <pt x="562" y="344" on="1"/>
        <pt x="562" y="238" on="1"/>
        <pt x="244" y="238" on="1"/>
        <pt x="244" y="124" on="1"/>
        <pt x="602" y="124" on="1"/>
        <pt x="602" y="0" on="1"/>
        <pt x="73" y="0" on="1"/>
      </contour>
    </TTGlyph>
    <TTGlyph name="Edotbelow" xMin="77" yMin="-206" xMax="655" yMax="740">
      <contour>
        <pt x="77" y="740" on="1"/>
        <pt x="645" y="740" on="1"/>
        <pt x="645" y="604" on="1"/>
        <pt x="255" y="604" on="1"/>
        <pt x="255" y="440" on="1"/>
        <pt x="612" y="440" on="1"/>
        <pt x="612" y="304" on="1"/>
        <pt x="255" y="304" on="1"/>
        <pt x="255" y="136" on="1"/>
        <pt x="655" y="136" on="1"/>
        <pt x="655" y="0" on="1"/>
        <pt x="77" y="0" on="1"/>
      </contour>
      <contour>
        <pt x="381" y="-206" on="1"/>
        <pt x="341" y="-206" on="0"/>
        <pt x="305" y="-171" on="0"/>
        <pt x="305" y="-133" on="1"/>
        <pt x="305" y="-94" on="0"/>
        <pt x="341" y="-59" on="0"/>
        <pt x="381" y="-59" on="1"/>
        <pt x="423" y="-59" on="0"/>
        <pt x="457" y="-95" on="0"/>
        <pt x="457" y="-133" on="1"/>
        <pt x="457" y="-171" on="0"/>
        <pt x="423" y="-206" on="0"/>
      </contour>
    </TTGlyph>
    <TTGlyph name="Edotbelow.sc" xMin="73" yMin="-168" xMax="602" yMax="577">
      <contour>
        <pt x="351" y="-168" on="1"/>
        <pt x="313" y="-168" on="0"/>
        <pt x="281" y="-137" on="0"/>
        <pt x="281" y="-103" on="1"/>
        <pt x="281" y="-69" on="0"/>
        <pt x="313" y="-38" on="0"/>
        <pt x="351" y="-38" on="1"/>
        <pt x="390" y="-38" on="0"/>
        <pt x="422" y="-71" on="0"/>
        <pt x="422" y="-103" on="1"/>
        <pt x="422" y="-135" on="0"/>
        <pt x="390" y="-168" on="0"/>
      </contour>
      <contour>
        <pt x="73" y="577" on="1"/>
        <pt x="594" y="577" on="1"/>
        <pt x="594" y="454" on="1"/>
        <pt x="244" y="454" on="1"/>
        <pt x="244" y="344" on="1"/>
        <pt x="562" y="344" on="1"/>
        <pt x="562" y="238" on="1"/>
        <pt x="244" y="238" on="1"/>
        <pt x="244" y="124" on="1"/>
        <pt x="602" y="124" on="1"/>
        <pt x="602" y="0" on="1"/>
        <pt x="73" y="0" on="1"/>
      </contour>
    </TTGlyph>
    <TTGlyph name="Egrave" xMin="77" yMin="0" xMax="655" yMax="986">
      <contour>
        <pt x="321" y="806" on="1"/>
        <pt x="202" y="986" on="1"/>
        <pt x="382" y="986" on="1"/>
        <pt x="449" y="817" on="1"/>
      </contour>
      <contour>
        <pt x="77" y="740" on="1"/>
        <pt x="645" y="740" on="1"/>
        <pt x="645" y="604" on="1"/>
        <pt x="255" y="604" on="1"/>
        <pt x="255" y="440" on="1"/>
        <pt x="612" y="440" on="1"/>
        <pt x="612" y="304" on="1"/>
        <pt x="255" y="304" on="1"/>
        <pt x="255" y="136" on="1"/>
        <pt x="655" y="136" on="1"/>
        <pt x="655" y="0" on="1"/>
        <pt x="77" y="0" on="1"/>
      </contour>
    </TTGlyph>
    <TTGlyph name="Egrave.sc" xMin="73" yMin="0" xMax="602" yMax="782">
      <contour>
        <pt x="73" y="577" on="1"/>
        <pt x="594" y="577" on="1"/>
        <pt x="594" y="454" on="1"/>
        <pt x="244" y="454" on="1"/>
        <pt x="244" y="344" on="1"/>
        <pt x="562" y="344" on="1"/>
        <pt x="562" y="238" on="1"/>
        <pt x="244" y="238" on="1"/>
        <pt x="244" y="124" on="1"/>
        <pt x="602" y="124" on="1"/>
        <pt x="602" y="0" on="1"/>
        <pt x="73" y="0" on="1"/>
      </contour>
      <contour>
        <pt x="188" y="782" on="1"/>
        <pt x="360" y="782" on="1"/>
        <pt x="417" y="638" on="1"/>
        <pt x="296" y="630" on="1"/>
      </contour>
    </TTGlyph>
    <TTGlyph name="Einvertedbreve" xMin="77" yMin="0" xMax="655" yMax="997">
      <contour>
        <pt x="77" y="740" on="1"/>
        <pt x="645" y="740" on="1"/>
        <pt x="645" y="604" on="1"/>
        <pt x="255" y="604" on="1"/>
        <pt x="255" y="440" on="1"/>
        <pt x="612" y="440" on="1"/>
        <pt x="612" y="304" on="1"/>
        <pt x="255" y="304" on="1"/>
        <pt x="255" y="136" on="1"/>
        <pt x="655" y="136" on="1"/>
        <pt x="655" y="0" on="1"/>
        <pt x="77" y="0" on="1"/>
      </contour>
      <contour>
        <pt x="476" y="820" on="1"/>
        <pt x="476" y="863" on="0"/>
        <pt x="426" y="911" on="0"/>
        <pt x="362" y="911" on="1"/>
        <pt x="298" y="911" on="0"/>
        <pt x="248" y="863" on="0"/>
        <pt x="248" y="820" on="1"/>
        <pt x="131" y="820" on="1"/>
        <pt x="131" y="857" on="0"/>
        <pt x="155" y="922" on="0"/>
        <pt x="209" y="970" on="0"/>
        <pt x="297" y="997" on="0"/>
        <pt x="362" y="997" on="1"/>
        <pt x="426" y="997" on="0"/>
        <pt x="514" y="970" on="0"/>
        <pt x="569" y="923" on="0"/>
        <pt x="593" y="858" on="0"/>
        <pt x="593" y="820" on="1"/>
      </contour>
    </TTGlyph>
    <TTGlyph name="Einvertedbreve.sc" xMin="73" yMin="0" xMax="602" yMax="789">
      <contour>
        <pt x="121" y="641" on="1"/>
        <pt x="121" y="671" on="0"/>
        <pt x="142" y="725" on="0"/>
        <pt x="192" y="765" on="0"/>
        <pt x="274" y="789" on="0"/>
        <pt x="334" y="789" on="1"/>
        <pt x="394" y="789" on="0"/>
        <pt x="475" y="766" on="0"/>
        <pt x="524" y="726" on="0"/>
        <pt x="546" y="672" on="0"/>
        <pt x="546" y="641" on="1"/>
        <pt x="436" y="641" on="1"/>
        <pt x="436" y="673" on="0"/>
        <pt x="393" y="710" on="0"/>
        <pt x="334" y="710" on="1"/>
        <pt x="275" y="710" on="0"/>
        <pt x="232" y="673" on="0"/>
        <pt x="232" y="641" on="1"/>
      </contour>
      <contour>
        <pt x="73" y="577" on="1"/>
        <pt x="594" y="577" on="1"/>
        <pt x="594" y="454" on="1"/>
        <pt x="244" y="454" on="1"/>
        <pt x="244" y="344" on="1"/>
        <pt x="562" y="344" on="1"/>
        <pt x="562" y="238" on="1"/>
        <pt x="244" y="238" on="1"/>
        <pt x="244" y="124" on="1"/>
        <pt x="602" y="124" on="1"/>
        <pt x="602" y="0" on="1"/>
        <pt x="73" y="0" on="1"/>
      </contour>
    </TTGlyph>
    <TTGlyph name="Emacron" xMin="77" yMin="0" xMax="655" yMax="959">
      <contour>
        <pt x="155" y="959" on="1"/>
        <pt x="574" y="959" on="1"/>
        <pt x="574" y="843" on="1"/>
        <pt x="155" y="843" on="1"/>
      </contour>
      <contour>
        <pt x="77" y="740" on="1"/>
        <pt x="645" y="740" on="1"/>
        <pt x="645" y="604" on="1"/>
        <pt x="255" y="604" on="1"/>
        <pt x="255" y="440" on="1"/>
        <pt x="612" y="440" on="1"/>
        <pt x="612" y="304" on="1"/>
        <pt x="255" y="304" on="1"/>
        <pt x="255" y="136" on="1"/>
        <pt x="655" y="136" on="1"/>
        <pt x="655" y="0" on="1"/>
        <pt x="77" y="0" on="1"/>
      </contour>
    </TTGlyph>
    <TTGlyph name="Emacron.sc" xMin="73" yMin="0" xMax="602" yMax="766">
      <contour>
        <pt x="73" y="577" on="1"/>
        <pt x="594" y="577" on="1"/>
        <pt x="594" y="454" on="1"/>
        <pt x="244" y="454" on="1"/>
        <pt x="244" y="344" on="1"/>
        <pt x="562" y="344" on="1"/>
        <pt x="562" y="238" on="1"/>
        <pt x="244" y="238" on="1"/>
        <pt x="244" y="124" on="1"/>
        <pt x="602" y="124" on="1"/>
        <pt x="602" y="0" on="1"/>
        <pt x="73" y="0" on="1"/>
      </contour>
      <contour>
        <pt x="144" y="766" on="1"/>
        <pt x="530" y="766" on="1"/>
        <pt x="530" y="658" on="1"/>
        <pt x="144" y="658" on="1"/>
      </contour>
    </TTGlyph>
    <TTGlyph name="Eng" xMin="77" yMin="-209" xMax="782" yMax="740">
      <contour>
        <pt x="536" y="-171" on="1"/>
        <pt x="569" y="-106" on="0"/>
        <pt x="605" y="-7" on="0"/>
        <pt x="610" y="40" on="1"/>
        <pt x="318" y="393" on="1"/>
        <pt x="244" y="488" on="1"/>
        <pt x="235" y="488" on="1"/>
        <pt x="235" y="0" on="1"/>
        <pt x="77" y="0" on="1"/>
        <pt x="77" y="740" on="1"/>
        <pt x="213" y="740" on="1"/>
        <pt x="549" y="338" on="1"/>
        <pt x="615" y="251" on="1"/>
        <pt x="624" y="251" on="1"/>
        <pt x="624" y="740" on="1"/>
        <pt x="782" y="740" on="1"/>
        <pt x="782" y="119" on="1"/>
        <pt x="782" y="87" on="0"/>
        <pt x="762" y="4" on="0"/>
        <pt x="728" y="-84" on="0"/>
        <pt x="682" y="-172" on="0"/>
        <pt x="655" y="-209" on="1"/>
      </contour>
    </TTGlyph>
    <TTGlyph name="Eng.sc" xMin="73" yMin="-169" xMax="693" yMax="577">
      <contour>
        <pt x="476" y="-133" on="1"/>
        <pt x="506" y="-77" on="0"/>
        <pt x="535" y="-8" on="0"/>
        <pt x="540" y="22" on="1"/>
        <pt x="301" y="272" on="1"/>
        <pt x="232" y="349" on="1"/>
        <pt x="224" y="349" on="1"/>
        <pt x="224" y="0" on="1"/>
        <pt x="73" y="0" on="1"/>
        <pt x="73" y="577" on="1"/>
        <pt x="202" y="577" on="1"/>
        <pt x="474" y="294" on="1"/>
        <pt x="535" y="227" on="1"/>
        <pt x="543" y="227" on="1"/>
        <pt x="543" y="577" on="1"/>
        <pt x="693" y="577" on="1"/>
        <pt x="693" y="103" on="1"/>
        <pt x="693" y="46" on="0"/>
        <pt x="638" y="-98" on="0"/>
        <pt x="588" y="-169" on="1"/>
      </contour>
    </TTGlyph>
    <TTGlyph name="Eogonek" xMin="77" yMin="-220" xMax="655" yMax="740">
      <contour>
        <pt x="77" y="740" on="1"/>
        <pt x="645" y="740" on="1"/>
        <pt x="645" y="604" on="1"/>
        <pt x="255" y="604" on="1"/>
        <pt x="255" y="440" on="1"/>
        <pt x="612" y="440" on="1"/>
        <pt x="612" y="304" on="1"/>
        <pt x="255" y="304" on="1"/>
        <pt x="255" y="136" on="1"/>
        <pt x="655" y="136" on="1"/>
        <pt x="655" y="-10" on="1"/>
        <pt x="585" y="-40" on="0"/>
        <pt x="529" y="-81" on="0"/>
        <pt x="529" y="-104" on="1"/>
        <pt x="529" y="-129" on="0"/>
        <pt x="563" y="-129" on="1"/>
        <pt x="577" y="-129" on="0"/>
        <pt x="631" y="-120" on="0"/>
        <pt x="655" y="-114" on="1"/>
        <pt x="655" y="-208" on="1"/>
        <pt x="617" y="-220" on="0"/>
        <pt x="565" y="-220" on="1"/>
        <pt x="493" y="-220" on="0"/>
        <pt x="416" y="-174" on="0"/>
        <pt x="416" y="-129" on="1"/>
        <pt x="416" y="-94" on="0"/>
        <pt x="465" y="-26" on="0"/>
        <pt x="511" y="0" on="1"/>
        <pt x="77" y="0" on="1"/>
      </contour>
    </TTGlyph>
    <TTGlyph name="Eogonek.sc" xMin="73" yMin="-172" xMax="603" yMax="577">
      <contour>
        <pt x="521" y="-172" on="1"/>
        <pt x="449" y="-172" on="0"/>
        <pt x="382" y="-133" on="0"/>
        <pt x="382" y="-97" on="1"/>
        <pt x="382" y="-66" on="0"/>
        <pt x="424" y="-17" on="0"/>
        <pt x="460" y="0" on="1"/>
        <pt x="73" y="0" on="1"/>
        <pt x="73" y="577" on="1"/>
        <pt x="594" y="577" on="1"/>
        <pt x="594" y="454" on="1"/>
        <pt x="244" y="454" on="1"/>
        <pt x="244" y="344" on="1"/>
        <pt x="562" y="344" on="1"/>
        <pt x="562" y="238" on="1"/>
        <pt x="244" y="238" on="1"/>
        <pt x="244" y="124" on="1"/>
        <pt x="602" y="124" on="1"/>
        <pt x="602" y="-5" on="1"/>
        <pt x="566" y="-18" on="0"/>
        <pt x="521" y="-37" on="0"/>
        <pt x="497" y="-52" on="0"/>
        <pt x="489" y="-64" on="0"/>
        <pt x="489" y="-70" on="1"/>
        <pt x="489" y="-79" on="0"/>
        <pt x="503" y="-85" on="0"/>
        <pt x="516" y="-85" on="1"/>
        <pt x="523" y="-85" on="0"/>
        <pt x="546" y="-83" on="0"/>
        <pt x="571" y="-80" on="0"/>
        <pt x="595" y="-77" on="0"/>
        <pt x="603" y="-75" on="1"/>
        <pt x="603" y="-162" on="1"/>
        <pt x="583" y="-168" on="0"/>
        <pt x="541" y="-172" on="0"/>
      </contour>
    </TTGlyph>
    <TTGlyph name="Eth" xMin="5" yMin="-10" xMax="801" yMax="750">
      <contour>
        <pt x="5" y="440" on="1"/>
        <pt x="98" y="440" on="1"/>
        <pt x="98" y="738" on="1"/>
        <pt x="182" y="743" on="0"/>
        <pt x="322" y="750" on="0"/>
        <pt x="370" y="750" on="1"/>
        <pt x="593" y="750" on="0"/>
        <pt x="801" y="566" on="0"/>
        <pt x="801" y="369" on="1"/>
        <pt x="801" y="268" on="0"/>
        <pt x="748" y="124" on="0"/>
        <pt x="634" y="33" on="0"/>
        <pt x="455" y="-10" on="0"/>
        <pt x="329" y="-10" on="1"/>
        <pt x="295" y="-10" on="0"/>
        <pt x="227" y="-8" on="0"/>
        <pt x="166" y="-4" on="0"/>
        <pt x="115" y="2" on="0"/>
        <pt x="98" y="5" on="1"/>
        <pt x="98" y="306" on="1"/>
        <pt x="5" y="306" on="1"/>
      </contour>
      <contour>
        <pt x="399" y="131" on="1"/>
        <pt x="459" y="131" on="0"/>
        <pt x="543" y="156" on="0"/>
        <pt x="596" y="213" on="0"/>
        <pt x="619" y="303" on="0"/>
        <pt x="619" y="369" on="1"/>
        <pt x="619" y="434" on="0"/>
        <pt x="595" y="524" on="0"/>
        <pt x="541" y="581" on="0"/>
        <pt x="456" y="607" on="0"/>
        <pt x="395" y="607" on="1"/>
        <pt x="349" y="607" on="0"/>
        <pt x="276" y="601" on="1"/>
        <pt x="276" y="440" on="1"/>
        <pt x="413" y="440" on="1"/>
        <pt x="413" y="306" on="1"/>
        <pt x="276" y="306" on="1"/>
        <pt x="276" y="141" on="1"/>
        <pt x="332" y="131" on="0"/>
      </contour>
    </TTGlyph>
    <TTGlyph name="Eth.sc" xMin="13" yMin="-8" xMax="736" yMax="585">
      <contour>
        <pt x="13" y="348" on="1"/>
        <pt x="95" y="348" on="1"/>
        <pt x="95" y="575" on="1"/>
        <pt x="174" y="580" on="0"/>
        <pt x="302" y="585" on="0"/>
        <pt x="347" y="585" on="1"/>
        <pt x="548" y="585" on="0"/>
        <pt x="736" y="441" on="0"/>
        <pt x="736" y="287" on="1"/>
        <pt x="736" y="208" on="0"/>
        <pt x="688" y="96" on="0"/>
        <pt x="584" y="25" on="0"/>
        <pt x="420" y="-8" on="0"/>
        <pt x="305" y="-8" on="1"/>
        <pt x="274" y="-8" on="0"/>
        <pt x="211" y="-6" on="0"/>
        <pt x="156" y="-3" on="0"/>
        <pt x="110" y="1" on="0"/>
        <pt x="95" y="3" on="1"/>
        <pt x="95" y="232" on="1"/>
        <pt x="13" y="232" on="1"/>
      </contour>
      <contour>
        <pt x="374" y="125" on="1"/>
        <pt x="426" y="125" on="0"/>
        <pt x="498" y="141" on="0"/>
        <pt x="543" y="179" on="0"/>
        <pt x="562" y="241" on="0"/>
        <pt x="562" y="287" on="1"/>
        <pt x="562" y="332" on="0"/>
        <pt x="541" y="395" on="0"/>
        <pt x="496" y="434" on="0"/>
        <pt x="423" y="451" on="0"/>
        <pt x="371" y="451" on="1"/>
        <pt x="352" y="451" on="0"/>
        <pt x="300" y="449" on="0"/>
        <pt x="265" y="447" on="1"/>
        <pt x="265" y="348" on="1"/>
        <pt x="381" y="348" on="1"/>
        <pt x="381" y="232" on="1"/>
        <pt x="265" y="232" on="1"/>
        <pt x="265" y="132" on="1"/>
        <pt x="290" y="129" on="0"/>
        <pt x="345" y="125" on="0"/>
      </contour>
    </TTGlyph>
    <TTGlyph name="Etilde" xMin="77" yMin="0" xMax="655" yMax="984">
      <contour>
        <pt x="115" y="863" on="1"/>
        <pt x="150" y="924" on="0"/>
        <pt x="239" y="984" on="0"/>
        <pt x="281" y="984" on="1"/>
        <pt x="309" y="984" on="0"/>
        <pt x="361" y="972" on="0"/>
        <pt x="413" y="958" on="0"/>
        <pt x="465" y="946" on="0"/>
        <pt x="492" y="946" on="1"/>
        <pt x="517" y="946" on="0"/>
        <pt x="564" y="961" on="0"/>
        <pt x="595" y="983" on="1"/>
        <pt x="618" y="948" on="1"/>
        <pt x="583" y="888" on="0"/>
        <pt x="492" y="827" on="0"/>
        <pt x="451" y="827" on="1"/>
        <pt x="424" y="827" on="0"/>
        <pt x="371" y="839" on="0"/>
        <pt x="318" y="853" on="0"/>
        <pt x="266" y="865" on="0"/>
        <pt x="240" y="865" on="1"/>
        <pt x="215" y="865" on="0"/>
        <pt x="168" y="851" on="0"/>
        <pt x="139" y="829" on="1"/>
      </contour>
      <contour>
        <pt x="77" y="740" on="1"/>
        <pt x="645" y="740" on="1"/>
        <pt x="645" y="604" on="1"/>
        <pt x="255" y="604" on="1"/>
        <pt x="255" y="440" on="1"/>
        <pt x="612" y="440" on="1"/>
        <pt x="612" y="304" on="1"/>
        <pt x="255" y="304" on="1"/>
        <pt x="255" y="136" on="1"/>
        <pt x="655" y="136" on="1"/>
        <pt x="655" y="0" on="1"/>
        <pt x="77" y="0" on="1"/>
      </contour>
    </TTGlyph>
    <TTGlyph name="Etilde.sc" xMin="73" yMin="0" xMax="602" yMax="783">
      <contour>
        <pt x="107" y="674" on="1"/>
        <pt x="139" y="729" on="0"/>
        <pt x="221" y="783" on="0"/>
        <pt x="259" y="783" on="1"/>
        <pt x="284" y="783" on="0"/>
        <pt x="332" y="774" on="0"/>
        <pt x="380" y="764" on="0"/>
        <pt x="429" y="755" on="0"/>
        <pt x="454" y="755" on="1"/>
        <pt x="476" y="755" on="0"/>
        <pt x="518" y="766" on="0"/>
        <pt x="547" y="783" on="1"/>
        <pt x="568" y="754" on="1"/>
        <pt x="534" y="699" on="0"/>
        <pt x="451" y="644" on="0"/>
        <pt x="414" y="644" on="1"/>
        <pt x="389" y="644" on="0"/>
        <pt x="340" y="653" on="0"/>
        <pt x="292" y="664" on="0"/>
        <pt x="243" y="673" on="0"/>
        <pt x="219" y="673" on="1"/>
        <pt x="196" y="673" on="0"/>
        <pt x="155" y="661" on="0"/>
        <pt x="129" y="644" on="1"/>
      </contour>
      <contour>
        <pt x="73" y="577" on="1"/>
        <pt x="594" y="577" on="1"/>
        <pt x="594" y="454" on="1"/>
        <pt x="244" y="454" on="1"/>
        <pt x="244" y="344" on="1"/>
        <pt x="562" y="344" on="1"/>
        <pt x="562" y="238" on="1"/>
        <pt x="244" y="238" on="1"/>
        <pt x="244" y="124" on="1"/>
        <pt x="602" y="124" on="1"/>
        <pt x="602" y="0" on="1"/>
        <pt x="73" y="0" on="1"/>
      </contour>
    </TTGlyph>
    <TTGlyph name="Euro" xMin="38" yMin="-10" xMax="696" yMax="750">
      <contour>
        <pt x="38" y="503" on="1"/>
        <pt x="127" y="503" on="1"/>
        <pt x="156" y="628" on="0"/>
        <pt x="346" y="750" on="0"/>
        <pt x="520" y="750" on="1"/>
        <pt x="582" y="750" on="0"/>
        <pt x="670" y="737" on="0"/>
        <pt x="696" y="733" on="1"/>
        <pt x="651" y="591" on="1"/>
        <pt x="645" y="592" on="0"/>
        <pt x="624" y="595" on="0"/>
        <pt x="598" y="598" on="0"/>
        <pt x="571" y="600" on="0"/>
        <pt x="559" y="600" on="1"/>
        <pt x="500" y="600" on="0"/>
        <pt x="415" y="591" on="0"/>
        <pt x="356" y="569" on="0"/>
        <pt x="319" y="531" on="0"/>
        <pt x="309" y="503" on="1"/>
        <pt x="619" y="503" on="1"/>
        <pt x="601" y="405" on="1"/>
        <pt x="295" y="405" on="1"/>
        <pt x="294" y="396" on="0"/>
        <pt x="294" y="378" on="0"/>
        <pt x="294" y="369" on="1"/>
        <pt x="294" y="360" on="0"/>
        <pt x="294" y="343" on="0"/>
        <pt x="295" y="335" on="1"/>
        <pt x="585" y="335" on="1"/>
        <pt x="566" y="236" on="1"/>
        <pt x="310" y="236" on="1"/>
        <pt x="320" y="208" on="0"/>
        <pt x="357" y="171" on="0"/>
        <pt x="417" y="148" on="0"/>
        <pt x="501" y="139" on="0"/>
        <pt x="559" y="139" on="1"/>
        <pt x="592" y="139" on="0"/>
        <pt x="656" y="144" on="0"/>
        <pt x="691" y="152" on="1"/>
        <pt x="691" y="5" on="1"/>
        <pt x="666" y="-2" on="0"/>
        <pt x="582" y="-10" on="0"/>
        <pt x="534" y="-10" on="1"/>
        <pt x="352" y="-9" on="0"/>
        <pt x="157" y="113" on="0"/>
        <pt x="128" y="236" on="1"/>
        <pt x="38" y="236" on="1"/>
        <pt x="38" y="335" on="1"/>
        <pt x="115" y="335" on="1"/>
        <pt x="114" y="343" on="0"/>
        <pt x="114" y="360" on="0"/>
        <pt x="114" y="368" on="1"/>
        <pt x="114" y="377" on="0"/>
        <pt x="114" y="396" on="0"/>
        <pt x="115" y="405" on="1"/>
        <pt x="38" y="405" on="1"/>
      </contour>
    </TTGlyph>
    <TTGlyph name="Euro.tab" xMin="2" yMin="-10" xMax="627" yMax="750">
      <contour>
        <pt x="2" y="503" on="1"/>
        <pt x="87" y="503" on="1"/>
        <pt x="115" y="627" on="0"/>
        <pt x="293" y="750" on="0"/>
        <pt x="456" y="750" on="1"/>
        <pt x="516" y="750" on="0"/>
        <pt x="601" y="737" on="0"/>
        <pt x="627" y="733" on="1"/>
        <pt x="584" y="591" on="1"/>
        <pt x="579" y="592" on="0"/>
        <pt x="558" y="595" on="0"/>
        <pt x="532" y="598" on="0"/>
        <pt x="506" y="600" on="0"/>
        <pt x="495" y="600" on="1"/>
        <pt x="445" y="600" on="0"/>
        <pt x="369" y="590" on="0"/>
        <pt x="315" y="568" on="0"/>
        <pt x="280" y="530" on="0"/>
        <pt x="270" y="503" on="1"/>
        <pt x="556" y="503" on="1"/>
        <pt x="539" y="405" on="1"/>
        <pt x="250" y="405" on="1"/>
        <pt x="249" y="400" on="0"/>
        <pt x="249" y="374" on="0"/>
        <pt x="249" y="369" on="1"/>
        <pt x="249" y="364" on="0"/>
        <pt x="249" y="340" on="0"/>
        <pt x="250" y="335" on="1"/>
        <pt x="524" y="335" on="1"/>
        <pt x="506" y="236" on="1"/>
        <pt x="270" y="236" on="1"/>
        <pt x="290" y="182" on="0"/>
        <pt x="396" y="139" on="0"/>
        <pt x="496" y="139" on="1"/>
        <pt x="528" y="139" on="0"/>
        <pt x="589" y="144" on="0"/>
        <pt x="623" y="152" on="1"/>
        <pt x="623" y="5" on="1"/>
        <pt x="599" y="-2" on="0"/>
        <pt x="516" y="-10" on="0"/>
        <pt x="470" y="-10" on="1"/>
        <pt x="299" y="-9" on="0"/>
        <pt x="115" y="113" on="0"/>
        <pt x="87" y="236" on="1"/>
        <pt x="2" y="236" on="1"/>
        <pt x="2" y="335" on="1"/>
        <pt x="73" y="335" on="1"/>
        <pt x="73" y="405" on="1"/>
        <pt x="2" y="405" on="1"/>
      </contour>
    </TTGlyph>
    <TTGlyph name="F" xMin="77" yMin="0" xMax="645" yMax="740">
      <contour>
        <pt x="77" y="740" on="1"/>
        <pt x="645" y="740" on="1"/>
        <pt x="645" y="604" on="1"/>
        <pt x="255" y="604" on="1"/>
        <pt x="255" y="419" on="1"/>
        <pt x="606" y="419" on="1"/>
        <pt x="606" y="282" on="1"/>
        <pt x="255" y="282" on="1"/>
        <pt x="255" y="0" on="1"/>
        <pt x="77" y="0" on="1"/>
      </contour>
    </TTGlyph>
    <TTGlyph name="F.sc" xMin="73" yMin="0" xMax="594" yMax="577">
      <contour>
        <pt x="73" y="577" on="1"/>
        <pt x="594" y="577" on="1"/>
        <pt x="594" y="450" on="1"/>
        <pt x="244" y="450" on="1"/>
        <pt x="244" y="324" on="1"/>
        <pt x="558" y="324" on="1"/>
        <pt x="558" y="211" on="1"/>
        <pt x="244" y="211" on="1"/>
        <pt x="244" y="0" on="1"/>
        <pt x="73" y="0" on="1"/>
      </contour>
    </TTGlyph>
    <TTGlyph name="F_B.sc" xMin="73" yMin="-8" xMax="1273" yMax="585">
      <contour>
        <pt x="73" y="577" on="1"/>
        <pt x="594" y="577" on="1"/>
        <pt x="594" y="450" on="1"/>
        <pt x="244" y="450" on="1"/>
        <pt x="244" y="324" on="1"/>
        <pt x="558" y="324" on="1"/>
        <pt x="558" y="211" on="1"/>
        <pt x="244" y="211" on="1"/>
        <pt x="244" y="0" on="1"/>
        <pt x="73" y="0" on="1"/>
      </contour>
      <contour>
        <pt x="986" y="-8" on="1"/>
        <pt x="912" y="-8" on="0"/>
        <pt x="768" y="-2" on="0"/>
        <pt x="684" y="4" on="1"/>
        <pt x="684" y="573" on="1"/>
        <pt x="757" y="579" on="0"/>
        <pt x="887" y="585" on="0"/>
        <pt x="952" y="585" on="1"/>
        <pt x="1108" y="585" on="0"/>
        <pt x="1250" y="505" on="0"/>
        <pt x="1250" y="420" on="1"/>
        <pt x="1250" y="327" on="0"/>
        <pt x="1130" y="298" on="1"/>
        <pt x="1130" y="295" on="1"/>
        <pt x="1200" y="284" on="0"/>
        <pt x="1273" y="214" on="0"/>
        <pt x="1273" y="159" on="1"/>
        <pt x="1273" y="72" on="0"/>
        <pt x="1134" y="-8" on="0"/>
      </contour>
      <contour>
        <pt x="973" y="104" on="1"/>
        <pt x="1042" y="104" on="0"/>
        <pt x="1105" y="139" on="0"/>
        <pt x="1105" y="177" on="1"/>
        <pt x="1105" y="213" on="0"/>
        <pt x="1046" y="244" on="0"/>
        <pt x="980" y="244" on="1"/>
        <pt x="848" y="244" on="1"/>
        <pt x="848" y="107" on="1"/>
        <pt x="856" y="106" on="0"/>
        <pt x="874" y="105" on="0"/>
        <pt x="901" y="104" on="0"/>
        <pt x="941" y="104" on="0"/>
      </contour>
      <contour>
        <pt x="964" y="341" on="1"/>
        <pt x="1030" y="341" on="0"/>
        <pt x="1084" y="371" on="0"/>
        <pt x="1084" y="408" on="1"/>
        <pt x="1084" y="445" on="0"/>
        <pt x="1028" y="473" on="0"/>
        <pt x="957" y="473" on="1"/>
        <pt x="924" y="473" on="0"/>
        <pt x="869" y="472" on="0"/>
        <pt x="848" y="469" on="1"/>
        <pt x="848" y="341" on="1"/>
      </contour>
    </TTGlyph>
    <TTGlyph name="F_F.sc" xMin="73" yMin="0" xMax="1205" yMax="577">
      <contour>
        <pt x="73" y="577" on="1"/>
        <pt x="594" y="577" on="1"/>
        <pt x="594" y="450" on="1"/>
        <pt x="244" y="450" on="1"/>
        <pt x="244" y="324" on="1"/>
        <pt x="558" y="324" on="1"/>
        <pt x="558" y="211" on="1"/>
        <pt x="244" y="211" on="1"/>
        <pt x="244" y="0" on="1"/>
        <pt x="73" y="0" on="1"/>
      </contour>
      <contour>
        <pt x="684" y="577" on="1"/>
        <pt x="1205" y="577" on="1"/>
        <pt x="1205" y="450" on="1"/>
        <pt x="855" y="450" on="1"/>
        <pt x="855" y="324" on="1"/>
        <pt x="1169" y="324" on="1"/>
        <pt x="1169" y="211" on="1"/>
        <pt x="855" y="211" on="1"/>
        <pt x="855" y="0" on="1"/>
        <pt x="684" y="0" on="1"/>
      </contour>
    </TTGlyph>
    <TTGlyph name="F_F_B.sc" xMin="73" yMin="-8" xMax="1884" yMax="585">
      <contour>
        <pt x="73" y="577" on="1"/>
        <pt x="594" y="577" on="1"/>
        <pt x="594" y="450" on="1"/>
        <pt x="244" y="450" on="1"/>
        <pt x="244" y="324" on="1"/>
        <pt x="558" y="324" on="1"/>
        <pt x="558" y="211" on="1"/>
        <pt x="244" y="211" on="1"/>
        <pt x="244" y="0" on="1"/>
        <pt x="73" y="0" on="1"/>
      </contour>
      <contour>
        <pt x="684" y="577" on="1"/>
        <pt x="1205" y="577" on="1"/>
        <pt x="1205" y="450" on="1"/>
        <pt x="855" y="450" on="1"/>
        <pt x="855" y="324" on="1"/>
        <pt x="1169" y="324" on="1"/>
        <pt x="1169" y="211" on="1"/>
        <pt x="855" y="211" on="1"/>
        <pt x="855" y="0" on="1"/>
        <pt x="684" y="0" on="1"/>
      </contour>
      <contour>
        <pt x="1597" y="-8" on="1"/>
        <pt x="1523" y="-8" on="0"/>
        <pt x="1379" y="-2" on="0"/>
        <pt x="1295" y="4" on="1"/>
        <pt x="1295" y="573" on="1"/>
        <pt x="1368" y="579" on="0"/>
        <pt x="1498" y="585" on="0"/>
        <pt x="1563" y="585" on="1"/>
        <pt x="1719" y="585" on="0"/>
        <pt x="1861" y="505" on="0"/>
        <pt x="1861" y="420" on="1"/>
        <pt x="1861" y="327" on="0"/>
        <pt x="1741" y="298" on="1"/>
        <pt x="1741" y="295" on="1"/>
        <pt x="1811" y="284" on="0"/>
        <pt x="1884" y="214" on="0"/>
        <pt x="1884" y="159" on="1"/>
        <pt x="1884" y="72" on="0"/>
        <pt x="1745" y="-8" on="0"/>
      </contour>
      <contour>
        <pt x="1584" y="104" on="1"/>
        <pt x="1653" y="104" on="0"/>
        <pt x="1716" y="139" on="0"/>
        <pt x="1716" y="177" on="1"/>
        <pt x="1716" y="213" on="0"/>
        <pt x="1657" y="244" on="0"/>
        <pt x="1591" y="244" on="1"/>
        <pt x="1459" y="244" on="1"/>
        <pt x="1459" y="107" on="1"/>
        <pt x="1467" y="106" on="0"/>
        <pt x="1485" y="105" on="0"/>
        <pt x="1512" y="104" on="0"/>
        <pt x="1552" y="104" on="0"/>
      </contour>
      <contour>
        <pt x="1575" y="341" on="1"/>
        <pt x="1641" y="341" on="0"/>
        <pt x="1695" y="371" on="0"/>
        <pt x="1695" y="408" on="1"/>
        <pt x="1695" y="445" on="0"/>
        <pt x="1639" y="473" on="0"/>
        <pt x="1568" y="473" on="1"/>
        <pt x="1535" y="473" on="0"/>
        <pt x="1480" y="472" on="0"/>
        <pt x="1459" y="469" on="1"/>
        <pt x="1459" y="341" on="1"/>
      </contour>
    </TTGlyph>
    <TTGlyph name="F_F_H.sc" xMin="73" yMin="0" xMax="1945" yMax="577">
      <contour>
        <pt x="73" y="577" on="1"/>
        <pt x="594" y="577" on="1"/>
        <pt x="594" y="450" on="1"/>
        <pt x="244" y="450" on="1"/>
        <pt x="244" y="324" on="1"/>
        <pt x="558" y="324" on="1"/>
        <pt x="558" y="211" on="1"/>
        <pt x="244" y="211" on="1"/>
        <pt x="244" y="0" on="1"/>
        <pt x="73" y="0" on="1"/>
      </contour>
      <contour>
        <pt x="684" y="577" on="1"/>
        <pt x="1205" y="577" on="1"/>
        <pt x="1205" y="450" on="1"/>
        <pt x="855" y="450" on="1"/>
        <pt x="855" y="324" on="1"/>
        <pt x="1169" y="324" on="1"/>
        <pt x="1169" y="211" on="1"/>
        <pt x="855" y="211" on="1"/>
        <pt x="855" y="0" on="1"/>
        <pt x="684" y="0" on="1"/>
      </contour>
      <contour>
        <pt x="1295" y="577" on="1"/>
        <pt x="1466" y="577" on="1"/>
        <pt x="1466" y="360" on="1"/>
        <pt x="1775" y="360" on="1"/>
        <pt x="1775" y="577" on="1"/>
        <pt x="1945" y="577" on="1"/>
        <pt x="1945" y="0" on="1"/>
        <pt x="1775" y="0" on="1"/>
        <pt x="1775" y="233" on="1"/>
        <pt x="1466" y="233" on="1"/>
        <pt x="1466" y="0" on="1"/>
        <pt x="1295" y="0" on="1"/>
      </contour>
    </TTGlyph>
    <TTGlyph name="F_F_I.sc" xMin="73" yMin="0" xMax="1466" yMax="577">
      <contour>
        <pt x="73" y="577" on="1"/>
        <pt x="594" y="577" on="1"/>
        <pt x="594" y="450" on="1"/>
        <pt x="244" y="450" on="1"/>
        <pt x="244" y="324" on="1"/>
        <pt x="558" y="324" on="1"/>
        <pt x="558" y="211" on="1"/>
        <pt x="244" y="211" on="1"/>
        <pt x="244" y="0" on="1"/>
        <pt x="73" y="0" on="1"/>
      </contour>
      <contour>
        <pt x="684" y="577" on="1"/>
        <pt x="1205" y="577" on="1"/>
        <pt x="1205" y="450" on="1"/>
        <pt x="855" y="450" on="1"/>
        <pt x="855" y="324" on="1"/>
        <pt x="1169" y="324" on="1"/>
        <pt x="1169" y="211" on="1"/>
        <pt x="855" y="211" on="1"/>
        <pt x="855" y="0" on="1"/>
        <pt x="684" y="0" on="1"/>
      </contour>
      <contour>
        <pt x="1295" y="577" on="1"/>
        <pt x="1466" y="577" on="1"/>
        <pt x="1466" y="0" on="1"/>
        <pt x="1295" y="0" on="1"/>
      </contour>
    </TTGlyph>
    <TTGlyph name="F_F_J.sc" xMin="73" yMin="-169" xMax="1476" yMax="577">
      <contour>
        <pt x="73" y="577" on="1"/>
        <pt x="594" y="577" on="1"/>
        <pt x="594" y="450" on="1"/>
        <pt x="244" y="450" on="1"/>
        <pt x="244" y="324" on="1"/>
        <pt x="558" y="324" on="1"/>
        <pt x="558" y="211" on="1"/>
        <pt x="244" y="211" on="1"/>
        <pt x="244" y="0" on="1"/>
        <pt x="73" y="0" on="1"/>
      </contour>
      <contour>
        <pt x="684" y="577" on="1"/>
        <pt x="1205" y="577" on="1"/>
        <pt x="1205" y="450" on="1"/>
        <pt x="855" y="450" on="1"/>
        <pt x="855" y="324" on="1"/>
        <pt x="1169" y="324" on="1"/>
        <pt x="1169" y="211" on="1"/>
        <pt x="855" y="211" on="1"/>
        <pt x="855" y="0" on="1"/>
        <pt x="684" y="0" on="1"/>
      </contour>
      <contour>
        <pt x="1238" y="-122" on="1"/>
        <pt x="1257" y="-83" on="0"/>
        <pt x="1283" y="-16" on="0"/>
        <pt x="1298" y="48" on="0"/>
        <pt x="1305" y="116" on="0"/>
        <pt x="1305" y="156" on="1"/>
        <pt x="1305" y="577" on="1"/>
        <pt x="1476" y="577" on="1"/>
        <pt x="1476" y="144" on="1"/>
        <pt x="1476" y="103" on="0"/>
        <pt x="1463" y="29" on="0"/>
        <pt x="1433" y="-44" on="0"/>
        <pt x="1384" y="-123" on="0"/>
        <pt x="1348" y="-169" on="1"/>
      </contour>
    </TTGlyph>
    <TTGlyph name="F_F_K.sc" xMin="73" yMin="0" xMax="1931" yMax="577">
      <contour>
        <pt x="73" y="577" on="1"/>
        <pt x="594" y="577" on="1"/>
        <pt x="594" y="450" on="1"/>
        <pt x="244" y="450" on="1"/>
        <pt x="244" y="324" on="1"/>
        <pt x="558" y="324" on="1"/>
        <pt x="558" y="211" on="1"/>
        <pt x="244" y="211" on="1"/>
        <pt x="244" y="0" on="1"/>
        <pt x="73" y="0" on="1"/>
      </contour>
      <contour>
        <pt x="684" y="577" on="1"/>
        <pt x="1205" y="577" on="1"/>
        <pt x="1205" y="450" on="1"/>
        <pt x="855" y="450" on="1"/>
        <pt x="855" y="324" on="1"/>
        <pt x="1169" y="324" on="1"/>
        <pt x="1169" y="211" on="1"/>
        <pt x="855" y="211" on="1"/>
        <pt x="855" y="0" on="1"/>
        <pt x="684" y="0" on="1"/>
      </contour>
      <contour>
        <pt x="1295" y="577" on="1"/>
        <pt x="1466" y="577" on="1"/>
        <pt x="1466" y="353" on="1"/>
        <pt x="1565" y="353" on="1"/>
        <pt x="1726" y="577" on="1"/>
        <pt x="1916" y="577" on="1"/>
        <pt x="1726" y="328" on="1"/>
        <pt x="1681" y="308" on="1"/>
        <pt x="1681" y="301" on="1"/>
        <pt x="1728" y="279" on="1"/>
        <pt x="1931" y="0" on="1"/>
        <pt x="1741" y="0" on="1"/>
        <pt x="1581" y="225" on="1"/>
        <pt x="1466" y="225" on="1"/>
        <pt x="1466" y="0" on="1"/>
        <pt x="1295" y="0" on="1"/>
      </contour>
    </TTGlyph>
    <TTGlyph name="F_F_L.sc" xMin="73" yMin="0" xMax="1775" yMax="577">
      <contour>
        <pt x="1295" y="577" on="1"/>
        <pt x="1466" y="577" on="1"/>
        <pt x="1466" y="127" on="1"/>
        <pt x="1775" y="127" on="1"/>
        <pt x="1775" y="0" on="1"/>
        <pt x="1295" y="0" on="1"/>
      </contour>
      <contour>
        <pt x="73" y="577" on="1"/>
        <pt x="594" y="577" on="1"/>
        <pt x="594" y="450" on="1"/>
        <pt x="244" y="450" on="1"/>
        <pt x="244" y="324" on="1"/>
        <pt x="558" y="324" on="1"/>
        <pt x="558" y="211" on="1"/>
        <pt x="244" y="211" on="1"/>
        <pt x="244" y="0" on="1"/>
        <pt x="73" y="0" on="1"/>
      </contour>
      <contour>
        <pt x="684" y="577" on="1"/>
        <pt x="1205" y="577" on="1"/>
        <pt x="1205" y="450" on="1"/>
        <pt x="855" y="450" on="1"/>
        <pt x="855" y="324" on="1"/>
        <pt x="1169" y="324" on="1"/>
        <pt x="1169" y="211" on="1"/>
        <pt x="855" y="211" on="1"/>
        <pt x="855" y="0" on="1"/>
        <pt x="684" y="0" on="1"/>
      </contour>
    </TTGlyph>
    <TTGlyph name="F_F_T.sc" xMin="73" yMin="0" xMax="1804" yMax="577">
      <contour>
        <pt x="1429" y="450" on="1"/>
        <pt x="1225" y="450" on="1"/>
        <pt x="1225" y="577" on="1"/>
        <pt x="1804" y="577" on="1"/>
        <pt x="1804" y="450" on="1"/>
        <pt x="1599" y="450" on="1"/>
        <pt x="1599" y="0" on="1"/>
        <pt x="1429" y="0" on="1"/>
      </contour>
      <contour>
        <pt x="73" y="577" on="1"/>
        <pt x="594" y="577" on="1"/>
        <pt x="594" y="450" on="1"/>
        <pt x="244" y="450" on="1"/>
        <pt x="244" y="324" on="1"/>
        <pt x="558" y="324" on="1"/>
        <pt x="558" y="211" on="1"/>
        <pt x="244" y="211" on="1"/>
        <pt x="244" y="0" on="1"/>
        <pt x="73" y="0" on="1"/>
      </contour>
      <contour>
        <pt x="684" y="577" on="1"/>
        <pt x="1205" y="577" on="1"/>
        <pt x="1205" y="450" on="1"/>
        <pt x="855" y="450" on="1"/>
        <pt x="855" y="324" on="1"/>
        <pt x="1169" y="324" on="1"/>
        <pt x="1169" y="211" on="1"/>
        <pt x="855" y="211" on="1"/>
        <pt x="855" y="0" on="1"/>
        <pt x="684" y="0" on="1"/>
      </contour>
    </TTGlyph>
    <TTGlyph name="F_H.sc" xMin="73" yMin="0" xMax="1334" yMax="577">
      <contour>
        <pt x="73" y="577" on="1"/>
        <pt x="594" y="577" on="1"/>
        <pt x="594" y="450" on="1"/>
        <pt x="244" y="450" on="1"/>
        <pt x="244" y="324" on="1"/>
        <pt x="558" y="324" on="1"/>
        <pt x="558" y="211" on="1"/>
        <pt x="244" y="211" on="1"/>
        <pt x="244" y="0" on="1"/>
        <pt x="73" y="0" on="1"/>
      </contour>
      <contour>
        <pt x="684" y="577" on="1"/>
        <pt x="855" y="577" on="1"/>
        <pt x="855" y="360" on="1"/>
        <pt x="1164" y="360" on="1"/>
        <pt x="1164" y="577" on="1"/>
        <pt x="1334" y="577" on="1"/>
        <pt x="1334" y="0" on="1"/>
        <pt x="1164" y="0" on="1"/>
        <pt x="1164" y="233" on="1"/>
        <pt x="855" y="233" on="1"/>
        <pt x="855" y="0" on="1"/>
        <pt x="684" y="0" on="1"/>
      </contour>
    </TTGlyph>
    <TTGlyph name="F_I.sc" xMin="73" yMin="0" xMax="855" yMax="577">
      <contour>
        <pt x="73" y="577" on="1"/>
        <pt x="594" y="577" on="1"/>
        <pt x="594" y="450" on="1"/>
        <pt x="244" y="450" on="1"/>
        <pt x="244" y="324" on="1"/>
        <pt x="558" y="324" on="1"/>
        <pt x="558" y="211" on="1"/>
        <pt x="244" y="211" on="1"/>
        <pt x="244" y="0" on="1"/>
        <pt x="73" y="0" on="1"/>
      </contour>
      <contour>
        <pt x="684" y="577" on="1"/>
        <pt x="855" y="577" on="1"/>
        <pt x="855" y="0" on="1"/>
        <pt x="684" y="0" on="1"/>
      </contour>
    </TTGlyph>
    <TTGlyph name="F_J.sc" xMin="73" yMin="-169" xMax="864" yMax="577">
      <contour>
        <pt x="73" y="577" on="1"/>
        <pt x="594" y="577" on="1"/>
        <pt x="594" y="450" on="1"/>
        <pt x="244" y="450" on="1"/>
        <pt x="244" y="324" on="1"/>
        <pt x="558" y="324" on="1"/>
        <pt x="558" y="211" on="1"/>
        <pt x="244" y="211" on="1"/>
        <pt x="244" y="0" on="1"/>
        <pt x="73" y="0" on="1"/>
      </contour>
      <contour>
        <pt x="626" y="-122" on="1"/>
        <pt x="645" y="-83" on="0"/>
        <pt x="671" y="-16" on="0"/>
        <pt x="686" y="48" on="0"/>
        <pt x="693" y="116" on="0"/>
        <pt x="693" y="156" on="1"/>
        <pt x="693" y="577" on="1"/>
        <pt x="864" y="577" on="1"/>
        <pt x="864" y="144" on="1"/>
        <pt x="864" y="103" on="0"/>
        <pt x="851" y="29" on="0"/>
        <pt x="821" y="-44" on="0"/>
        <pt x="772" y="-123" on="0"/>
        <pt x="736" y="-169" on="1"/>
      </contour>
    </TTGlyph>
    <TTGlyph name="F_K.sc" xMin="73" yMin="0" xMax="1320" yMax="577">
      <contour>
        <pt x="73" y="577" on="1"/>
        <pt x="594" y="577" on="1"/>
        <pt x="594" y="450" on="1"/>
        <pt x="244" y="450" on="1"/>
        <pt x="244" y="324" on="1"/>
        <pt x="558" y="324" on="1"/>
        <pt x="558" y="211" on="1"/>
        <pt x="244" y="211" on="1"/>
        <pt x="244" y="0" on="1"/>
        <pt x="73" y="0" on="1"/>
      </contour>
      <contour>
        <pt x="684" y="577" on="1"/>
        <pt x="855" y="577" on="1"/>
        <pt x="855" y="353" on="1"/>
        <pt x="954" y="353" on="1"/>
        <pt x="1115" y="577" on="1"/>
        <pt x="1305" y="577" on="1"/>
        <pt x="1115" y="328" on="1"/>
        <pt x="1070" y="308" on="1"/>
        <pt x="1070" y="301" on="1"/>
        <pt x="1117" y="279" on="1"/>
        <pt x="1320" y="0" on="1"/>
        <pt x="1130" y="0" on="1"/>
        <pt x="970" y="225" on="1"/>
        <pt x="855" y="225" on="1"/>
        <pt x="855" y="0" on="1"/>
        <pt x="684" y="0" on="1"/>
      </contour>
    </TTGlyph>
    <TTGlyph name="F_L.sc" xMin="73" yMin="0" xMax="1164" yMax="577">
      <contour>
        <pt x="684" y="577" on="1"/>
        <pt x="855" y="577" on="1"/>
        <pt x="855" y="127" on="1"/>
        <pt x="1164" y="127" on="1"/>
        <pt x="1164" y="0" on="1"/>
        <pt x="684" y="0" on="1"/>
      </contour>
      <contour>
        <pt x="73" y="577" on="1"/>
        <pt x="594" y="577" on="1"/>
        <pt x="594" y="450" on="1"/>
        <pt x="244" y="450" on="1"/>
        <pt x="244" y="324" on="1"/>
        <pt x="558" y="324" on="1"/>
        <pt x="558" y="211" on="1"/>
        <pt x="244" y="211" on="1"/>
        <pt x="244" y="0" on="1"/>
        <pt x="73" y="0" on="1"/>
      </contour>
    </TTGlyph>
    <TTGlyph name="F_T.sc" xMin="73" yMin="0" xMax="1193" yMax="577">
      <contour>
        <pt x="818" y="450" on="1"/>
        <pt x="614" y="450" on="1"/>
        <pt x="614" y="577" on="1"/>
        <pt x="1193" y="577" on="1"/>
        <pt x="1193" y="450" on="1"/>
        <pt x="988" y="450" on="1"/>
        <pt x="988" y="0" on="1"/>
        <pt x="818" y="0" on="1"/>
      </contour>
      <contour>
        <pt x="73" y="577" on="1"/>
        <pt x="594" y="577" on="1"/>
        <pt x="594" y="450" on="1"/>
        <pt x="244" y="450" on="1"/>
        <pt x="244" y="324" on="1"/>
        <pt x="558" y="324" on="1"/>
        <pt x="558" y="211" on="1"/>
        <pt x="244" y="211" on="1"/>
        <pt x="244" y="0" on="1"/>
        <pt x="73" y="0" on="1"/>
      </contour>
    </TTGlyph>
    <TTGlyph name="G" xMin="41" yMin="-13" xMax="687" yMax="753">
      <contour>
        <pt x="438" y="-13" on="1"/>
        <pt x="236" y="-13" on="0"/>
        <pt x="41" y="175" on="0"/>
        <pt x="41" y="369" on="1"/>
        <pt x="41" y="753" on="0"/>
        <pt x="448" y="753" on="1"/>
        <pt x="505" y="753" on="0"/>
        <pt x="630" y="740" on="0"/>
        <pt x="677" y="728" on="1"/>
        <pt x="677" y="585" on="1"/>
        <pt x="606" y="597" on="0"/>
        <pt x="501" y="608" on="0"/>
        <pt x="461" y="608" on="1"/>
        <pt x="393" y="608" on="0"/>
        <pt x="302" y="584" on="0"/>
        <pt x="247" y="529" on="0"/>
        <pt x="224" y="437" on="0"/>
        <pt x="224" y="369" on="1"/>
        <pt x="224" y="303" on="0"/>
        <pt x="246" y="212" on="0"/>
        <pt x="296" y="157" on="0"/>
        <pt x="378" y="133" on="0"/>
        <pt x="439" y="133" on="1"/>
        <pt x="456" y="133" on="0"/>
        <pt x="499" y="135" on="0"/>
        <pt x="522" y="137" on="1"/>
        <pt x="522" y="376" on="1"/>
        <pt x="687" y="376" on="1"/>
        <pt x="687" y="30" on="1"/>
        <pt x="659" y="21" on="0"/>
        <pt x="593" y="5" on="0"/>
        <pt x="526" y="-7" on="0"/>
        <pt x="463" y="-13" on="0"/>
      </contour>
    </TTGlyph>
    <TTGlyph name="G.sc" xMin="41" yMin="-12" xMax="630" yMax="588">
      <contour>
        <pt x="402" y="-12" on="1"/>
        <pt x="217" y="-12" on="0"/>
        <pt x="41" y="135" on="0"/>
        <pt x="41" y="288" on="1"/>
        <pt x="41" y="440" on="0"/>
        <pt x="223" y="588" on="0"/>
        <pt x="411" y="588" on="1"/>
        <pt x="436" y="588" on="0"/>
        <pt x="493" y="585" on="0"/>
        <pt x="548" y="581" on="0"/>
        <pt x="599" y="573" on="0"/>
        <pt x="620" y="569" on="1"/>
        <pt x="620" y="438" on="1"/>
        <pt x="555" y="445" on="0"/>
        <pt x="458" y="451" on="0"/>
        <pt x="423" y="451" on="1"/>
        <pt x="360" y="451" on="0"/>
        <pt x="279" y="436" on="0"/>
        <pt x="233" y="399" on="0"/>
        <pt x="216" y="336" on="0"/>
        <pt x="216" y="288" on="1"/>
        <pt x="216" y="241" on="0"/>
        <pt x="233" y="179" on="0"/>
        <pt x="275" y="142" on="0"/>
        <pt x="347" y="127" on="0"/>
        <pt x="403" y="127" on="1"/>
        <pt x="407" y="127" on="0"/>
        <pt x="427" y="128" on="0"/>
        <pt x="448" y="129" on="0"/>
        <pt x="468" y="131" on="0"/>
        <pt x="472" y="132" on="1"/>
        <pt x="472" y="293" on="1"/>
        <pt x="630" y="293" on="1"/>
        <pt x="630" y="25" on="1"/>
        <pt x="604" y="17" on="0"/>
        <pt x="543" y="4" on="0"/>
        <pt x="482" y="-6" on="0"/>
        <pt x="424" y="-12" on="0"/>
      </contour>
    </TTGlyph>
    <TTGlyph name="Gacute" xMin="41" yMin="-13" xMax="687" yMax="986">
      <contour>
        <pt x="318" y="815" on="1"/>
        <pt x="385" y="986" on="1"/>
        <pt x="565" y="986" on="1"/>
        <pt x="446" y="806" on="1"/>
      </contour>
      <contour>
        <pt x="438" y="-13" on="1"/>
        <pt x="236" y="-13" on="0"/>
        <pt x="41" y="175" on="0"/>
        <pt x="41" y="369" on="1"/>
        <pt x="41" y="753" on="0"/>
        <pt x="448" y="753" on="1"/>
        <pt x="505" y="753" on="0"/>
        <pt x="630" y="740" on="0"/>
        <pt x="677" y="728" on="1"/>
        <pt x="677" y="585" on="1"/>
        <pt x="606" y="597" on="0"/>
        <pt x="501" y="608" on="0"/>
        <pt x="461" y="608" on="1"/>
        <pt x="393" y="608" on="0"/>
        <pt x="302" y="584" on="0"/>
        <pt x="247" y="529" on="0"/>
        <pt x="224" y="437" on="0"/>
        <pt x="224" y="369" on="1"/>
        <pt x="224" y="303" on="0"/>
        <pt x="246" y="212" on="0"/>
        <pt x="296" y="157" on="0"/>
        <pt x="378" y="133" on="0"/>
        <pt x="439" y="133" on="1"/>
        <pt x="456" y="133" on="0"/>
        <pt x="499" y="135" on="0"/>
        <pt x="522" y="137" on="1"/>
        <pt x="522" y="376" on="1"/>
        <pt x="687" y="376" on="1"/>
        <pt x="687" y="30" on="1"/>
        <pt x="659" y="21" on="0"/>
        <pt x="593" y="5" on="0"/>
        <pt x="526" y="-7" on="0"/>
        <pt x="463" y="-13" on="0"/>
      </contour>
    </TTGlyph>
    <TTGlyph name="Gacute.sc" xMin="41" yMin="-12" xMax="630" yMax="782">
      <contour>
        <pt x="402" y="-12" on="1"/>
        <pt x="218" y="-12" on="0"/>
        <pt x="41" y="134" on="0"/>
        <pt x="41" y="288" on="1"/>
        <pt x="41" y="440" on="0"/>
        <pt x="224" y="588" on="0"/>
        <pt x="411" y="588" on="1"/>
        <pt x="437" y="588" on="0"/>
        <pt x="493" y="585" on="0"/>
        <pt x="549" y="581" on="0"/>
        <pt x="600" y="573" on="0"/>
        <pt x="620" y="569" on="1"/>
        <pt x="620" y="434" on="1"/>
        <pt x="555" y="443" on="0"/>
        <pt x="458" y="451" on="0"/>
        <pt x="423" y="451" on="1"/>
        <pt x="362" y="451" on="0"/>
        <pt x="282" y="437" on="0"/>
        <pt x="235" y="401" on="0"/>
        <pt x="216" y="338" on="0"/>
        <pt x="216" y="288" on="1"/>
        <pt x="216" y="240" on="0"/>
        <pt x="234" y="177" on="0"/>
        <pt x="277" y="141" on="0"/>
        <pt x="349" y="127" on="0"/>
        <pt x="403" y="127" on="1"/>
        <pt x="407" y="127" on="0"/>
        <pt x="427" y="128" on="0"/>
        <pt x="448" y="129" on="0"/>
        <pt x="468" y="131" on="0"/>
        <pt x="472" y="132" on="1"/>
        <pt x="472" y="293" on="1"/>
        <pt x="630" y="293" on="1"/>
        <pt x="630" y="25" on="1"/>
        <pt x="605" y="17" on="0"/>
        <pt x="545" y="4" on="0"/>
        <pt x="484" y="-6" on="0"/>
        <pt x="426" y="-12" on="0"/>
      </contour>
      <contour>
        <pt x="289" y="638" on="1"/>
        <pt x="347" y="782" on="1"/>
        <pt x="518" y="782" on="1"/>
        <pt x="411" y="630" on="1"/>
      </contour>
    </TTGlyph>
    <TTGlyph name="Gbreve" xMin="41" yMin="-13" xMax="687" yMax="990">
      <contour>
        <pt x="402" y="813" on="1"/>
        <pt x="337" y="813" on="0"/>
        <pt x="249" y="840" on="0"/>
        <pt x="195" y="888" on="0"/>
        <pt x="171" y="952" on="0"/>
        <pt x="171" y="990" on="1"/>
        <pt x="288" y="990" on="1"/>
        <pt x="288" y="946" on="0"/>
        <pt x="338" y="898" on="0"/>
        <pt x="402" y="898" on="1"/>
        <pt x="466" y="898" on="0"/>
        <pt x="515" y="946" on="0"/>
        <pt x="515" y="990" on="1"/>
        <pt x="632" y="990" on="1"/>
        <pt x="632" y="951" on="0"/>
        <pt x="608" y="886" on="0"/>
        <pt x="554" y="839" on="0"/>
        <pt x="466" y="813" on="0"/>
      </contour>
      <contour>
        <pt x="438" y="-13" on="1"/>
        <pt x="236" y="-13" on="0"/>
        <pt x="41" y="175" on="0"/>
        <pt x="41" y="369" on="1"/>
        <pt x="41" y="753" on="0"/>
        <pt x="448" y="753" on="1"/>
        <pt x="505" y="753" on="0"/>
        <pt x="630" y="740" on="0"/>
        <pt x="677" y="728" on="1"/>
        <pt x="677" y="585" on="1"/>
        <pt x="606" y="597" on="0"/>
        <pt x="501" y="608" on="0"/>
        <pt x="461" y="608" on="1"/>
        <pt x="393" y="608" on="0"/>
        <pt x="302" y="584" on="0"/>
        <pt x="247" y="529" on="0"/>
        <pt x="224" y="437" on="0"/>
        <pt x="224" y="369" on="1"/>
        <pt x="224" y="303" on="0"/>
        <pt x="246" y="212" on="0"/>
        <pt x="296" y="157" on="0"/>
        <pt x="378" y="133" on="0"/>
        <pt x="439" y="133" on="1"/>
        <pt x="456" y="133" on="0"/>
        <pt x="499" y="135" on="0"/>
        <pt x="522" y="137" on="1"/>
        <pt x="522" y="376" on="1"/>
        <pt x="687" y="376" on="1"/>
        <pt x="687" y="30" on="1"/>
        <pt x="659" y="21" on="0"/>
        <pt x="593" y="5" on="0"/>
        <pt x="526" y="-7" on="0"/>
        <pt x="463" y="-13" on="0"/>
      </contour>
    </TTGlyph>
    <TTGlyph name="Gbreve.sc" xMin="41" yMin="-12" xMax="630" yMax="782">
      <contour>
        <pt x="402" y="-12" on="1"/>
        <pt x="218" y="-12" on="0"/>
        <pt x="41" y="134" on="0"/>
        <pt x="41" y="288" on="1"/>
        <pt x="41" y="440" on="0"/>
        <pt x="224" y="588" on="0"/>
        <pt x="411" y="588" on="1"/>
        <pt x="437" y="588" on="0"/>
        <pt x="493" y="585" on="0"/>
        <pt x="549" y="581" on="0"/>
        <pt x="600" y="573" on="0"/>
        <pt x="620" y="569" on="1"/>
        <pt x="620" y="434" on="1"/>
        <pt x="555" y="443" on="0"/>
        <pt x="458" y="451" on="0"/>
        <pt x="423" y="451" on="1"/>
        <pt x="362" y="451" on="0"/>
        <pt x="282" y="437" on="0"/>
        <pt x="235" y="401" on="0"/>
        <pt x="216" y="338" on="0"/>
        <pt x="216" y="288" on="1"/>
        <pt x="216" y="240" on="0"/>
        <pt x="234" y="177" on="0"/>
        <pt x="277" y="141" on="0"/>
        <pt x="349" y="127" on="0"/>
        <pt x="403" y="127" on="1"/>
        <pt x="407" y="127" on="0"/>
        <pt x="427" y="128" on="0"/>
        <pt x="448" y="129" on="0"/>
        <pt x="468" y="131" on="0"/>
        <pt x="472" y="132" on="1"/>
        <pt x="472" y="293" on="1"/>
        <pt x="630" y="293" on="1"/>
        <pt x="630" y="25" on="1"/>
        <pt x="605" y="17" on="0"/>
        <pt x="545" y="4" on="0"/>
        <pt x="484" y="-6" on="0"/>
        <pt x="426" y="-12" on="0"/>
      </contour>
      <contour>
        <pt x="368" y="634" on="1"/>
        <pt x="308" y="634" on="0"/>
        <pt x="227" y="657" on="0"/>
        <pt x="178" y="698" on="0"/>
        <pt x="157" y="752" on="0"/>
        <pt x="157" y="782" on="1"/>
        <pt x="266" y="782" on="1"/>
        <pt x="266" y="749" on="0"/>
        <pt x="311" y="711" on="0"/>
        <pt x="368" y="711" on="1"/>
        <pt x="427" y="711" on="0"/>
        <pt x="470" y="749" on="0"/>
        <pt x="470" y="782" on="1"/>
        <pt x="581" y="782" on="1"/>
        <pt x="581" y="750" on="0"/>
        <pt x="560" y="696" on="0"/>
        <pt x="510" y="657" on="0"/>
        <pt x="428" y="634" on="0"/>
      </contour>
    </TTGlyph>
    <TTGlyph name="Gcircumflex" xMin="41" yMin="-13" xMax="687" yMax="1001">
      <contour>
        <pt x="438" y="-13" on="1"/>
        <pt x="236" y="-13" on="0"/>
        <pt x="41" y="175" on="0"/>
        <pt x="41" y="369" on="1"/>
        <pt x="41" y="753" on="0"/>
        <pt x="448" y="753" on="1"/>
        <pt x="505" y="753" on="0"/>
        <pt x="630" y="740" on="0"/>
        <pt x="677" y="728" on="1"/>
        <pt x="677" y="585" on="1"/>
        <pt x="606" y="597" on="0"/>
        <pt x="501" y="608" on="0"/>
        <pt x="461" y="608" on="1"/>
        <pt x="393" y="608" on="0"/>
        <pt x="302" y="584" on="0"/>
        <pt x="247" y="529" on="0"/>
        <pt x="224" y="437" on="0"/>
        <pt x="224" y="369" on="1"/>
        <pt x="224" y="303" on="0"/>
        <pt x="246" y="212" on="0"/>
        <pt x="296" y="157" on="0"/>
        <pt x="378" y="133" on="0"/>
        <pt x="439" y="133" on="1"/>
        <pt x="456" y="133" on="0"/>
        <pt x="499" y="135" on="0"/>
        <pt x="522" y="137" on="1"/>
        <pt x="522" y="376" on="1"/>
        <pt x="687" y="376" on="1"/>
        <pt x="687" y="30" on="1"/>
        <pt x="659" y="21" on="0"/>
        <pt x="593" y="5" on="0"/>
        <pt x="526" y="-7" on="0"/>
        <pt x="463" y="-13" on="0"/>
      </contour>
      <contour>
        <pt x="178" y="921" on="1"/>
        <pt x="387" y="1001" on="1"/>
        <pt x="601" y="921" on="1"/>
        <pt x="601" y="803" on="1"/>
        <pt x="389" y="882" on="1"/>
        <pt x="178" y="803" on="1"/>
      </contour>
    </TTGlyph>
    <TTGlyph name="Gcircumflex.sc" xMin="41" yMin="-12" xMax="630" yMax="796">
      <contour>
        <pt x="402" y="-12" on="1"/>
        <pt x="218" y="-12" on="0"/>
        <pt x="41" y="134" on="0"/>
        <pt x="41" y="288" on="1"/>
        <pt x="41" y="440" on="0"/>
        <pt x="224" y="588" on="0"/>
        <pt x="411" y="588" on="1"/>
        <pt x="437" y="588" on="0"/>
        <pt x="493" y="585" on="0"/>
        <pt x="549" y="581" on="0"/>
        <pt x="600" y="573" on="0"/>
        <pt x="620" y="569" on="1"/>
        <pt x="620" y="434" on="1"/>
        <pt x="555" y="443" on="0"/>
        <pt x="458" y="451" on="0"/>
        <pt x="423" y="451" on="1"/>
        <pt x="362" y="451" on="0"/>
        <pt x="282" y="437" on="0"/>
        <pt x="235" y="401" on="0"/>
        <pt x="216" y="338" on="0"/>
        <pt x="216" y="288" on="1"/>
        <pt x="216" y="240" on="0"/>
        <pt x="234" y="177" on="0"/>
        <pt x="277" y="141" on="0"/>
        <pt x="349" y="127" on="0"/>
        <pt x="403" y="127" on="1"/>
        <pt x="407" y="127" on="0"/>
        <pt x="427" y="128" on="0"/>
        <pt x="448" y="129" on="0"/>
        <pt x="468" y="131" on="0"/>
        <pt x="472" y="132" on="1"/>
        <pt x="472" y="293" on="1"/>
        <pt x="630" y="293" on="1"/>
        <pt x="630" y="25" on="1"/>
        <pt x="605" y="17" on="0"/>
        <pt x="545" y="4" on="0"/>
        <pt x="484" y="-6" on="0"/>
        <pt x="426" y="-12" on="0"/>
      </contour>
      <contour>
        <pt x="162" y="732" on="1"/>
        <pt x="354" y="796" on="1"/>
        <pt x="551" y="732" on="1"/>
        <pt x="551" y="624" on="1"/>
        <pt x="356" y="687" on="1"/>
        <pt x="162" y="624" on="1"/>
      </contour>
    </TTGlyph>
    <TTGlyph name="Gcommaaccent" xMin="41" yMin="-220" xMax="687" yMax="753">
      <contour>
        <pt x="307" y="-70" on="1"/>
        <pt x="488" y="-70" on="1"/>
        <pt x="398" y="-220" on="1"/>
        <pt x="265" y="-220" on="1"/>
      </contour>
      <contour>
        <pt x="438" y="-13" on="1"/>
        <pt x="236" y="-13" on="0"/>
        <pt x="41" y="175" on="0"/>
        <pt x="41" y="369" on="1"/>
        <pt x="41" y="753" on="0"/>
        <pt x="448" y="753" on="1"/>
        <pt x="505" y="753" on="0"/>
        <pt x="630" y="740" on="0"/>
        <pt x="677" y="728" on="1"/>
        <pt x="677" y="585" on="1"/>
        <pt x="606" y="597" on="0"/>
        <pt x="501" y="608" on="0"/>
        <pt x="461" y="608" on="1"/>
        <pt x="393" y="608" on="0"/>
        <pt x="302" y="584" on="0"/>
        <pt x="247" y="529" on="0"/>
        <pt x="224" y="437" on="0"/>
        <pt x="224" y="369" on="1"/>
        <pt x="224" y="303" on="0"/>
        <pt x="246" y="212" on="0"/>
        <pt x="296" y="157" on="0"/>
        <pt x="378" y="133" on="0"/>
        <pt x="439" y="133" on="1"/>
        <pt x="456" y="133" on="0"/>
        <pt x="499" y="135" on="0"/>
        <pt x="522" y="137" on="1"/>
        <pt x="522" y="376" on="1"/>
        <pt x="687" y="376" on="1"/>
        <pt x="687" y="30" on="1"/>
        <pt x="659" y="21" on="0"/>
        <pt x="593" y="5" on="0"/>
        <pt x="526" y="-7" on="0"/>
        <pt x="463" y="-13" on="0"/>
      </contour>
    </TTGlyph>
    <TTGlyph name="Gcommaaccent.sc" xMin="41" yMin="-172" xMax="630" yMax="588">
      <contour>
        <pt x="402" y="-12" on="1"/>
        <pt x="218" y="-12" on="0"/>
        <pt x="41" y="134" on="0"/>
        <pt x="41" y="288" on="1"/>
        <pt x="41" y="440" on="0"/>
        <pt x="224" y="588" on="0"/>
        <pt x="411" y="588" on="1"/>
        <pt x="437" y="588" on="0"/>
        <pt x="493" y="585" on="0"/>
        <pt x="549" y="581" on="0"/>
        <pt x="600" y="573" on="0"/>
        <pt x="620" y="569" on="1"/>
        <pt x="620" y="434" on="1"/>
        <pt x="555" y="443" on="0"/>
        <pt x="458" y="451" on="0"/>
        <pt x="423" y="451" on="1"/>
        <pt x="362" y="451" on="0"/>
        <pt x="282" y="437" on="0"/>
        <pt x="235" y="401" on="0"/>
        <pt x="216" y="338" on="0"/>
        <pt x="216" y="288" on="1"/>
        <pt x="216" y="240" on="0"/>
        <pt x="234" y="177" on="0"/>
        <pt x="277" y="141" on="0"/>
        <pt x="349" y="127" on="0"/>
        <pt x="403" y="127" on="1"/>
        <pt x="407" y="127" on="0"/>
        <pt x="427" y="128" on="0"/>
        <pt x="448" y="129" on="0"/>
        <pt x="468" y="131" on="0"/>
        <pt x="472" y="132" on="1"/>
        <pt x="472" y="293" on="1"/>
        <pt x="630" y="293" on="1"/>
        <pt x="630" y="25" on="1"/>
        <pt x="605" y="17" on="0"/>
        <pt x="545" y="4" on="0"/>
        <pt x="484" y="-6" on="0"/>
        <pt x="426" y="-12" on="0"/>
      </contour>
      <contour>
        <pt x="277" y="-55" on="1"/>
        <pt x="449" y="-55" on="1"/>
        <pt x="367" y="-172" on="1"/>
        <pt x="241" y="-172" on="1"/>
      </contour>
    </TTGlyph>
    <TTGlyph name="Gdotaccent" xMin="41" yMin="-13" xMax="687" yMax="992">
      <contour>
        <pt x="406" y="804" on="1"/>
        <pt x="354" y="804" on="0"/>
        <pt x="309" y="847" on="0"/>
        <pt x="309" y="898" on="1"/>
        <pt x="309" y="947" on="0"/>
        <pt x="354" y="992" on="0"/>
        <pt x="406" y="992" on="1"/>
        <pt x="458" y="992" on="0"/>
        <pt x="502" y="946" on="0"/>
        <pt x="502" y="898" on="1"/>
        <pt x="502" y="850" on="0"/>
        <pt x="458" y="804" on="0"/>
      </contour>
      <contour>
        <pt x="438" y="-13" on="1"/>
        <pt x="236" y="-13" on="0"/>
        <pt x="41" y="175" on="0"/>
        <pt x="41" y="369" on="1"/>
        <pt x="41" y="753" on="0"/>
        <pt x="448" y="753" on="1"/>
        <pt x="505" y="753" on="0"/>
        <pt x="630" y="740" on="0"/>
        <pt x="677" y="728" on="1"/>
        <pt x="677" y="585" on="1"/>
        <pt x="606" y="597" on="0"/>
        <pt x="501" y="608" on="0"/>
        <pt x="461" y="608" on="1"/>
        <pt x="393" y="608" on="0"/>
        <pt x="302" y="584" on="0"/>
        <pt x="247" y="529" on="0"/>
        <pt x="224" y="437" on="0"/>
        <pt x="224" y="369" on="1"/>
        <pt x="224" y="303" on="0"/>
        <pt x="246" y="212" on="0"/>
        <pt x="296" y="157" on="0"/>
        <pt x="378" y="133" on="0"/>
        <pt x="439" y="133" on="1"/>
        <pt x="456" y="133" on="0"/>
        <pt x="499" y="135" on="0"/>
        <pt x="522" y="137" on="1"/>
        <pt x="522" y="376" on="1"/>
        <pt x="687" y="376" on="1"/>
        <pt x="687" y="30" on="1"/>
        <pt x="659" y="21" on="0"/>
        <pt x="593" y="5" on="0"/>
        <pt x="526" y="-7" on="0"/>
        <pt x="463" y="-13" on="0"/>
      </contour>
    </TTGlyph>
    <TTGlyph name="Gdotaccent.sc" xMin="41" yMin="-12" xMax="630" yMax="795">
      <contour>
        <pt x="402" y="-12" on="1"/>
        <pt x="218" y="-12" on="0"/>
        <pt x="41" y="134" on="0"/>
        <pt x="41" y="288" on="1"/>
        <pt x="41" y="440" on="0"/>
        <pt x="224" y="588" on="0"/>
        <pt x="411" y="588" on="1"/>
        <pt x="437" y="588" on="0"/>
        <pt x="493" y="585" on="0"/>
        <pt x="549" y="581" on="0"/>
        <pt x="600" y="573" on="0"/>
        <pt x="620" y="569" on="1"/>
        <pt x="620" y="434" on="1"/>
        <pt x="555" y="443" on="0"/>
        <pt x="458" y="451" on="0"/>
        <pt x="423" y="451" on="1"/>
        <pt x="362" y="451" on="0"/>
        <pt x="282" y="437" on="0"/>
        <pt x="235" y="401" on="0"/>
        <pt x="216" y="338" on="0"/>
        <pt x="216" y="288" on="1"/>
        <pt x="216" y="240" on="0"/>
        <pt x="234" y="177" on="0"/>
        <pt x="277" y="141" on="0"/>
        <pt x="349" y="127" on="0"/>
        <pt x="403" y="127" on="1"/>
        <pt x="407" y="127" on="0"/>
        <pt x="427" y="128" on="0"/>
        <pt x="448" y="129" on="0"/>
        <pt x="468" y="131" on="0"/>
        <pt x="472" y="132" on="1"/>
        <pt x="472" y="293" on="1"/>
        <pt x="630" y="293" on="1"/>
        <pt x="630" y="25" on="1"/>
        <pt x="605" y="17" on="0"/>
        <pt x="545" y="4" on="0"/>
        <pt x="484" y="-6" on="0"/>
        <pt x="426" y="-12" on="0"/>
      </contour>
      <contour>
        <pt x="372" y="622" on="1"/>
        <pt x="324" y="622" on="0"/>
        <pt x="281" y="662" on="0"/>
        <pt x="281" y="709" on="1"/>
        <pt x="281" y="754" on="0"/>
        <pt x="324" y="795" on="0"/>
        <pt x="372" y="795" on="1"/>
        <pt x="423" y="795" on="0"/>
        <pt x="463" y="752" on="0"/>
        <pt x="463" y="709" on="1"/>
        <pt x="463" y="665" on="0"/>
        <pt x="423" y="622" on="0"/>
      </contour>
    </TTGlyph>
    <TTGlyph name="H" xMin="77" yMin="0" xMax="788" yMax="740">
      <contour>
        <pt x="77" y="740" on="1"/>
        <pt x="255" y="740" on="1"/>
        <pt x="255" y="448" on="1"/>
        <pt x="610" y="448" on="1"/>
        <pt x="610" y="740" on="1"/>
        <pt x="788" y="740" on="1"/>
        <pt x="788" y="0" on="1"/>
        <pt x="610" y="0" on="1"/>
        <pt x="610" y="312" on="1"/>
        <pt x="255" y="312" on="1"/>
        <pt x="255" y="0" on="1"/>
        <pt x="77" y="0" on="1"/>
      </contour>
    </TTGlyph>
    <TTGlyph name="H.sc" xMin="73" yMin="0" xMax="723" yMax="577">
      <contour>
        <pt x="73" y="577" on="1"/>
        <pt x="244" y="577" on="1"/>
        <pt x="244" y="360" on="1"/>
        <pt x="553" y="360" on="1"/>
        <pt x="553" y="577" on="1"/>
        <pt x="723" y="577" on="1"/>
        <pt x="723" y="0" on="1"/>
        <pt x="553" y="0" on="1"/>
        <pt x="553" y="233" on="1"/>
        <pt x="244" y="233" on="1"/>
        <pt x="244" y="0" on="1"/>
        <pt x="73" y="0" on="1"/>
      </contour>
    </TTGlyph>
    <TTGlyph name="Hbar" xMin="8" yMin="0" xMax="871" yMax="740">
      <contour>
        <pt x="8" y="622" on="1"/>
        <pt x="83" y="622" on="1"/>
        <pt x="83" y="740" on="1"/>
        <pt x="261" y="740" on="1"/>
        <pt x="261" y="622" on="1"/>
        <pt x="616" y="622" on="1"/>
        <pt x="616" y="740" on="1"/>
        <pt x="794" y="740" on="1"/>
        <pt x="794" y="622" on="1"/>
        <pt x="871" y="622" on="1"/>
        <pt x="871" y="538" on="1"/>
        <pt x="794" y="538" on="1"/>
        <pt x="794" y="0" on="1"/>
        <pt x="616" y="0" on="1"/>
        <pt x="616" y="312" on="1"/>
        <pt x="261" y="312" on="1"/>
        <pt x="261" y="0" on="1"/>
        <pt x="83" y="0" on="1"/>
        <pt x="83" y="538" on="1"/>
        <pt x="8" y="538" on="1"/>
      </contour>
      <contour>
        <pt x="616" y="448" on="1"/>
        <pt x="616" y="538" on="1"/>
        <pt x="261" y="538" on="1"/>
        <pt x="261" y="448" on="1"/>
      </contour>
    </TTGlyph>
    <TTGlyph name="Hbar.sc" xMin="15" yMin="0" xMax="794" yMax="577">
      <contour>
        <pt x="15" y="494" on="1"/>
        <pt x="79" y="494" on="1"/>
        <pt x="79" y="577" on="1"/>
        <pt x="249" y="577" on="1"/>
        <pt x="249" y="494" on="1"/>
        <pt x="559" y="494" on="1"/>
        <pt x="559" y="577" on="1"/>
        <pt x="728" y="577" on="1"/>
        <pt x="728" y="494" on="1"/>
        <pt x="794" y="494" on="1"/>
        <pt x="794" y="417" on="1"/>
        <pt x="728" y="417" on="1"/>
        <pt x="728" y="0" on="1"/>
        <pt x="559" y="0" on="1"/>
        <pt x="559" y="218" on="1"/>
        <pt x="249" y="218" on="1"/>
        <pt x="249" y="0" on="1"/>
        <pt x="79" y="0" on="1"/>
        <pt x="79" y="417" on="1"/>
        <pt x="15" y="417" on="1"/>
      </contour>
      <contour>
        <pt x="559" y="346" on="1"/>
        <pt x="559" y="417" on="1"/>
        <pt x="249" y="417" on="1"/>
        <pt x="249" y="346" on="1"/>
      </contour>
    </TTGlyph>
    <TTGlyph name="Hcircumflex" xMin="77" yMin="0" xMax="788" yMax="1001">
      <contour>
        <pt x="77" y="740" on="1"/>
        <pt x="255" y="740" on="1"/>
        <pt x="255" y="448" on="1"/>
        <pt x="610" y="448" on="1"/>
        <pt x="610" y="740" on="1"/>
        <pt x="788" y="740" on="1"/>
        <pt x="788" y="0" on="1"/>
        <pt x="610" y="0" on="1"/>
        <pt x="610" y="312" on="1"/>
        <pt x="255" y="312" on="1"/>
        <pt x="255" y="0" on="1"/>
        <pt x="77" y="0" on="1"/>
      </contour>
      <contour>
        <pt x="220" y="921" on="1"/>
        <pt x="429" y="1001" on="1"/>
        <pt x="643" y="921" on="1"/>
        <pt x="643" y="803" on="1"/>
        <pt x="431" y="882" on="1"/>
        <pt x="220" y="803" on="1"/>
      </contour>
    </TTGlyph>
    <TTGlyph name="Hcircumflex.sc" xMin="73" yMin="0" xMax="723" yMax="796">
      <contour>
        <pt x="73" y="577" on="1"/>
        <pt x="244" y="577" on="1"/>
        <pt x="244" y="360" on="1"/>
        <pt x="553" y="360" on="1"/>
        <pt x="553" y="577" on="1"/>
        <pt x="723" y="577" on="1"/>
        <pt x="723" y="0" on="1"/>
        <pt x="553" y="0" on="1"/>
        <pt x="553" y="233" on="1"/>
        <pt x="244" y="233" on="1"/>
        <pt x="244" y="0" on="1"/>
        <pt x="73" y="0" on="1"/>
      </contour>
      <contour>
        <pt x="204" y="732" on="1"/>
        <pt x="396" y="796" on="1"/>
        <pt x="593" y="732" on="1"/>
        <pt x="593" y="624" on="1"/>
        <pt x="398" y="687" on="1"/>
        <pt x="204" y="624" on="1"/>
      </contour>
    </TTGlyph>
    <TTGlyph name="Hdotbelow" xMin="77" yMin="-206" xMax="788" yMax="740">
      <contour>
        <pt x="77" y="740" on="1"/>
        <pt x="255" y="740" on="1"/>
        <pt x="255" y="448" on="1"/>
        <pt x="610" y="448" on="1"/>
        <pt x="610" y="740" on="1"/>
        <pt x="788" y="740" on="1"/>
        <pt x="788" y="0" on="1"/>
        <pt x="610" y="0" on="1"/>
        <pt x="610" y="312" on="1"/>
        <pt x="255" y="312" on="1"/>
        <pt x="255" y="0" on="1"/>
        <pt x="77" y="0" on="1"/>
      </contour>
      <contour>
        <pt x="433" y="-206" on="1"/>
        <pt x="393" y="-206" on="0"/>
        <pt x="357" y="-171" on="0"/>
        <pt x="357" y="-133" on="1"/>
        <pt x="357" y="-94" on="0"/>
        <pt x="393" y="-59" on="0"/>
        <pt x="433" y="-59" on="1"/>
        <pt x="475" y="-59" on="0"/>
        <pt x="509" y="-95" on="0"/>
        <pt x="509" y="-133" on="1"/>
        <pt x="509" y="-171" on="0"/>
        <pt x="475" y="-206" on="0"/>
      </contour>
    </TTGlyph>
    <TTGlyph name="Hdotbelow.sc" xMin="73" yMin="-168" xMax="723" yMax="577">
      <contour>
        <pt x="73" y="577" on="1"/>
        <pt x="244" y="577" on="1"/>
        <pt x="244" y="360" on="1"/>
        <pt x="553" y="360" on="1"/>
        <pt x="553" y="577" on="1"/>
        <pt x="723" y="577" on="1"/>
        <pt x="723" y="0" on="1"/>
        <pt x="553" y="0" on="1"/>
        <pt x="553" y="233" on="1"/>
        <pt x="244" y="233" on="1"/>
        <pt x="244" y="0" on="1"/>
        <pt x="73" y="0" on="1"/>
      </contour>
      <contour>
        <pt x="398" y="-168" on="1"/>
        <pt x="360" y="-168" on="0"/>
        <pt x="328" y="-137" on="0"/>
        <pt x="328" y="-103" on="1"/>
        <pt x="328" y="-69" on="0"/>
        <pt x="360" y="-38" on="0"/>
        <pt x="398" y="-38" on="1"/>
        <pt x="437" y="-38" on="0"/>
        <pt x="469" y="-71" on="0"/>
        <pt x="469" y="-103" on="1"/>
        <pt x="469" y="-135" on="0"/>
        <pt x="437" y="-168" on="0"/>
      </contour>
    </TTGlyph>
    <TTGlyph name="I" xMin="77" yMin="0" xMax="255" yMax="740">
      <contour>
        <pt x="77" y="740" on="1"/>
        <pt x="255" y="740" on="1"/>
        <pt x="255" y="0" on="1"/>
        <pt x="77" y="0" on="1"/>
      </contour>
    </TTGlyph>
    <TTGlyph name="I.sc" xMin="73" yMin="0" xMax="244" yMax="577">
      <contour>
        <pt x="73" y="577" on="1"/>
        <pt x="244" y="577" on="1"/>
        <pt x="244" y="0" on="1"/>
        <pt x="73" y="0" on="1"/>
      </contour>
    </TTGlyph>
    <TTGlyph name="IJ" xMin="77" yMin="-208" xMax="589" yMax="740">
      <contour>
        <pt x="77" y="740" on="1"/>
        <pt x="255" y="740" on="1"/>
        <pt x="255" y="0" on="1"/>
        <pt x="77" y="0" on="1"/>
      </contour>
      <contour>
        <pt x="334" y="-158" on="1"/>
        <pt x="356" y="-109" on="0"/>
        <pt x="385" y="-24" on="0"/>
        <pt x="403" y="58" on="0"/>
        <pt x="411" y="144" on="0"/>
        <pt x="411" y="196" on="1"/>
        <pt x="411" y="740" on="1"/>
        <pt x="589" y="740" on="1"/>
        <pt x="589" y="183" on="1"/>
        <pt x="589" y="131" on="0"/>
        <pt x="575" y="40" on="0"/>
        <pt x="543" y="-52" on="0"/>
        <pt x="489" y="-150" on="0"/>
        <pt x="450" y="-208" on="1"/>
      </contour>
    </TTGlyph>
    <TTGlyph name="Iacute" xMin="77" yMin="0" xMax="345" yMax="986">
      <contour>
        <pt x="77" y="740" on="1"/>
        <pt x="255" y="740" on="1"/>
        <pt x="255" y="0" on="1"/>
        <pt x="77" y="0" on="1"/>
      </contour>
      <contour>
        <pt x="98" y="815" on="1"/>
        <pt x="165" y="986" on="1"/>
        <pt x="345" y="986" on="1"/>
        <pt x="226" y="806" on="1"/>
      </contour>
    </TTGlyph>
    <TTGlyph name="Iacute.sc" xMin="73" yMin="0" xMax="323" yMax="782">
      <contour>
        <pt x="73" y="577" on="1"/>
        <pt x="244" y="577" on="1"/>
        <pt x="244" y="0" on="1"/>
        <pt x="73" y="0" on="1"/>
      </contour>
      <contour>
        <pt x="94" y="638" on="1"/>
        <pt x="152" y="782" on="1"/>
        <pt x="323" y="782" on="1"/>
        <pt x="215" y="630" on="1"/>
      </contour>
    </TTGlyph>
    <TTGlyph name="Ibreve" xMin="-65" yMin="0" xMax="396" yMax="990">
      <contour>
        <pt x="77" y="740" on="1"/>
        <pt x="255" y="740" on="1"/>
        <pt x="255" y="0" on="1"/>
        <pt x="77" y="0" on="1"/>
      </contour>
      <contour>
        <pt x="166" y="813" on="1"/>
        <pt x="101" y="813" on="0"/>
        <pt x="13" y="840" on="0"/>
        <pt x="-41" y="888" on="0"/>
        <pt x="-65" y="952" on="0"/>
        <pt x="-65" y="990" on="1"/>
        <pt x="52" y="990" on="1"/>
        <pt x="52" y="946" on="0"/>
        <pt x="102" y="898" on="0"/>
        <pt x="166" y="898" on="1"/>
        <pt x="230" y="898" on="0"/>
        <pt x="279" y="946" on="0"/>
        <pt x="279" y="990" on="1"/>
        <pt x="396" y="990" on="1"/>
        <pt x="396" y="951" on="0"/>
        <pt x="372" y="886" on="0"/>
        <pt x="318" y="839" on="0"/>
        <pt x="230" y="813" on="0"/>
      </contour>
    </TTGlyph>
    <TTGlyph name="Ibreve.sc" xMin="-54" yMin="0" xMax="370" yMax="782">
      <contour>
        <pt x="73" y="577" on="1"/>
        <pt x="244" y="577" on="1"/>
        <pt x="244" y="0" on="1"/>
        <pt x="73" y="0" on="1"/>
      </contour>
      <contour>
        <pt x="158" y="634" on="1"/>
        <pt x="98" y="634" on="0"/>
        <pt x="17" y="657" on="0"/>
        <pt x="-33" y="698" on="0"/>
        <pt x="-54" y="752" on="0"/>
        <pt x="-54" y="782" on="1"/>
        <pt x="56" y="782" on="1"/>
        <pt x="56" y="749" on="0"/>
        <pt x="100" y="711" on="0"/>
        <pt x="158" y="711" on="1"/>
        <pt x="217" y="711" on="0"/>
        <pt x="260" y="749" on="0"/>
        <pt x="260" y="782" on="1"/>
        <pt x="370" y="782" on="1"/>
        <pt x="370" y="750" on="0"/>
        <pt x="349" y="696" on="0"/>
        <pt x="299" y="657" on="0"/>
        <pt x="218" y="634" on="0"/>
      </contour>
    </TTGlyph>
    <TTGlyph name="Icircumflex" xMin="-43" yMin="0" xMax="380" yMax="1001">
      <contour>
        <pt x="77" y="740" on="1"/>
        <pt x="255" y="740" on="1"/>
        <pt x="255" y="0" on="1"/>
        <pt x="77" y="0" on="1"/>
      </contour>
      <contour>
        <pt x="-43" y="921" on="1"/>
        <pt x="166" y="1001" on="1"/>
        <pt x="380" y="921" on="1"/>
        <pt x="380" y="803" on="1"/>
        <pt x="168" y="882" on="1"/>
        <pt x="-43" y="803" on="1"/>
      </contour>
    </TTGlyph>
    <TTGlyph name="Icircumflex.sc" xMin="-33" yMin="0" xMax="355" yMax="796">
      <contour>
        <pt x="73" y="577" on="1"/>
        <pt x="244" y="577" on="1"/>
        <pt x="244" y="0" on="1"/>
        <pt x="73" y="0" on="1"/>
      </contour>
      <contour>
        <pt x="-33" y="732" on="1"/>
        <pt x="159" y="796" on="1"/>
        <pt x="355" y="732" on="1"/>
        <pt x="355" y="624" on="1"/>
        <pt x="161" y="687" on="1"/>
        <pt x="-33" y="624" on="1"/>
      </contour>
    </TTGlyph>
    <TTGlyph name="Idblgrave" xMin="-110" yMin="0" xMax="350" yMax="983">
      <contour>
        <pt x="77" y="740" on="1"/>
        <pt x="255" y="740" on="1"/>
        <pt x="255" y="0" on="1"/>
        <pt x="77" y="0" on="1"/>
      </contour>
      <contour>
        <pt x="9" y="803" on="1"/>
        <pt x="-110" y="983" on="1"/>
        <pt x="67" y="983" on="1"/>
        <pt x="133" y="815" on="1"/>
      </contour>
      <contour>
        <pt x="227" y="803" on="1"/>
        <pt x="107" y="983" on="1"/>
        <pt x="284" y="983" on="1"/>
        <pt x="350" y="815" on="1"/>
      </contour>
    </TTGlyph>
    <TTGlyph name="Idblgrave.sc" xMin="-97" yMin="0" xMax="332" yMax="781">
      <contour>
        <pt x="73" y="577" on="1"/>
        <pt x="244" y="577" on="1"/>
        <pt x="244" y="0" on="1"/>
        <pt x="73" y="0" on="1"/>
      </contour>
      <contour>
        <pt x="11" y="629" on="1"/>
        <pt x="-97" y="781" on="1"/>
        <pt x="72" y="781" on="1"/>
        <pt x="130" y="638" on="1"/>
      </contour>
      <contour>
        <pt x="213" y="629" on="1"/>
        <pt x="104" y="781" on="1"/>
        <pt x="273" y="781" on="1"/>
        <pt x="332" y="638" on="1"/>
      </contour>
    </TTGlyph>
    <TTGlyph name="Idieresis" xMin="-80" yMin="0" xMax="419" yMax="994">
      <contour>
        <pt x="77" y="740" on="1"/>
        <pt x="255" y="740" on="1"/>
        <pt x="255" y="0" on="1"/>
        <pt x="77" y="0" on="1"/>
      </contour>
      <contour>
        <pt x="17" y="805" on="1"/>
        <pt x="-35" y="805" on="0"/>
        <pt x="-80" y="849" on="0"/>
        <pt x="-80" y="900" on="1"/>
        <pt x="-80" y="949" on="0"/>
        <pt x="-35" y="994" on="0"/>
        <pt x="17" y="994" on="1"/>
        <pt x="69" y="994" on="0"/>
        <pt x="113" y="948" on="0"/>
        <pt x="113" y="900" on="1"/>
        <pt x="113" y="852" on="0"/>
        <pt x="69" y="805" on="0"/>
      </contour>
      <contour>
        <pt x="323" y="805" on="1"/>
        <pt x="271" y="805" on="0"/>
        <pt x="226" y="849" on="0"/>
        <pt x="226" y="900" on="1"/>
        <pt x="226" y="949" on="0"/>
        <pt x="271" y="994" on="0"/>
        <pt x="323" y="994" on="1"/>
        <pt x="375" y="994" on="0"/>
        <pt x="419" y="948" on="0"/>
        <pt x="419" y="900" on="1"/>
        <pt x="419" y="852" on="0"/>
        <pt x="375" y="805" on="0"/>
      </contour>
    </TTGlyph>
    <TTGlyph name="Idieresis.sc" xMin="-68" yMin="0" xMax="391" yMax="796">
      <contour>
        <pt x="73" y="577" on="1"/>
        <pt x="244" y="577" on="1"/>
        <pt x="244" y="0" on="1"/>
        <pt x="73" y="0" on="1"/>
      </contour>
      <contour>
        <pt x="24" y="623" on="1"/>
        <pt x="-25" y="623" on="0"/>
        <pt x="-68" y="663" on="0"/>
        <pt x="-68" y="709" on="1"/>
        <pt x="-68" y="754" on="0"/>
        <pt x="-25" y="796" on="0"/>
        <pt x="24" y="796" on="1"/>
        <pt x="74" y="796" on="0"/>
        <pt x="114" y="753" on="0"/>
        <pt x="114" y="709" on="1"/>
        <pt x="114" y="665" on="0"/>
        <pt x="74" y="623" on="0"/>
      </contour>
      <contour>
        <pt x="301" y="623" on="1"/>
        <pt x="252" y="623" on="0"/>
        <pt x="210" y="663" on="0"/>
        <pt x="210" y="709" on="1"/>
        <pt x="210" y="754" on="0"/>
        <pt x="252" y="796" on="0"/>
        <pt x="301" y="796" on="1"/>
        <pt x="350" y="796" on="0"/>
        <pt x="391" y="753" on="0"/>
        <pt x="391" y="709" on="1"/>
        <pt x="391" y="665" on="0"/>
        <pt x="350" y="623" on="0"/>
      </contour>
    </TTGlyph>
    <TTGlyph name="Idotaccent" xMin="70" yMin="0" xMax="263" yMax="992">
      <contour>
        <pt x="77" y="740" on="1"/>
        <pt x="255" y="740" on="1"/>
        <pt x="255" y="0" on="1"/>
        <pt x="77" y="0" on="1"/>
      </contour>
      <contour>
        <pt x="167" y="804" on="1"/>
        <pt x="115" y="804" on="0"/>
        <pt x="70" y="847" on="0"/>
        <pt x="70" y="898" on="1"/>
        <pt x="70" y="947" on="0"/>
        <pt x="115" y="992" on="0"/>
        <pt x="167" y="992" on="1"/>
        <pt x="219" y="992" on="0"/>
        <pt x="263" y="946" on="0"/>
        <pt x="263" y="898" on="1"/>
        <pt x="263" y="850" on="0"/>
        <pt x="219" y="804" on="0"/>
      </contour>
    </TTGlyph>
    <TTGlyph name="Idotaccent.sc" xMin="68" yMin="0" xMax="250" yMax="795">
      <contour>
        <pt x="73" y="577" on="1"/>
        <pt x="244" y="577" on="1"/>
        <pt x="244" y="0" on="1"/>
        <pt x="73" y="0" on="1"/>
      </contour>
      <contour>
        <pt x="160" y="622" on="1"/>
        <pt x="111" y="622" on="0"/>
        <pt x="68" y="662" on="0"/>
        <pt x="68" y="709" on="1"/>
        <pt x="68" y="754" on="0"/>
        <pt x="111" y="795" on="0"/>
        <pt x="160" y="795" on="1"/>
        <pt x="210" y="795" on="0"/>
        <pt x="250" y="752" on="0"/>
        <pt x="250" y="709" on="1"/>
        <pt x="250" y="665" on="0"/>
        <pt x="210" y="622" on="0"/>
      </contour>
    </TTGlyph>
    <TTGlyph name="Idotbelow" xMin="77" yMin="-206" xMax="255" yMax="740">
      <contour>
        <pt x="77" y="740" on="1"/>
        <pt x="255" y="740" on="1"/>
        <pt x="255" y="0" on="1"/>
        <pt x="77" y="0" on="1"/>
      </contour>
      <contour>
        <pt x="166" y="-206" on="1"/>
        <pt x="126" y="-206" on="0"/>
        <pt x="90" y="-171" on="0"/>
        <pt x="90" y="-133" on="1"/>
        <pt x="90" y="-94" on="0"/>
        <pt x="126" y="-59" on="0"/>
        <pt x="166" y="-59" on="1"/>
        <pt x="208" y="-59" on="0"/>
        <pt x="242" y="-95" on="0"/>
        <pt x="242" y="-133" on="1"/>
        <pt x="242" y="-171" on="0"/>
        <pt x="208" y="-206" on="0"/>
      </contour>
    </TTGlyph>
    <TTGlyph name="Idotbelow.sc" xMin="73" yMin="-168" xMax="244" yMax="577">
      <contour>
        <pt x="73" y="577" on="1"/>
        <pt x="244" y="577" on="1"/>
        <pt x="244" y="0" on="1"/>
        <pt x="73" y="0" on="1"/>
      </contour>
      <contour>
        <pt x="159" y="-168" on="1"/>
        <pt x="121" y="-168" on="0"/>
        <pt x="89" y="-137" on="0"/>
        <pt x="89" y="-103" on="1"/>
        <pt x="89" y="-69" on="0"/>
        <pt x="121" y="-38" on="0"/>
        <pt x="159" y="-38" on="1"/>
        <pt x="198" y="-38" on="0"/>
        <pt x="230" y="-71" on="0"/>
        <pt x="230" y="-103" on="1"/>
        <pt x="230" y="-135" on="0"/>
        <pt x="198" y="-168" on="0"/>
      </contour>
    </TTGlyph>
    <TTGlyph name="Igrave" xMin="0" yMin="0" xMax="255" yMax="986">
      <contour>
        <pt x="77" y="740" on="1"/>
        <pt x="255" y="740" on="1"/>
        <pt x="255" y="0" on="1"/>
        <pt x="77" y="0" on="1"/>
      </contour>
      <contour>
        <pt x="119" y="806" on="1"/>
        <pt x="0" y="986" on="1"/>
        <pt x="180" y="986" on="1"/>
        <pt x="247" y="817" on="1"/>
      </contour>
    </TTGlyph>
    <TTGlyph name="Igrave.sc" xMin="6" yMin="0" xMax="244" yMax="782">
      <contour>
        <pt x="73" y="577" on="1"/>
        <pt x="244" y="577" on="1"/>
        <pt x="244" y="0" on="1"/>
        <pt x="73" y="0" on="1"/>
      </contour>
      <contour>
        <pt x="115" y="630" on="1"/>
        <pt x="6" y="782" on="1"/>
        <pt x="178" y="782" on="1"/>
        <pt x="236" y="638" on="1"/>
      </contour>
    </TTGlyph>
    <TTGlyph name="Iinvertedbreve" xMin="-62" yMin="0" xMax="400" yMax="997">
      <contour>
        <pt x="77" y="740" on="1"/>
        <pt x="255" y="740" on="1"/>
        <pt x="255" y="0" on="1"/>
        <pt x="77" y="0" on="1"/>
      </contour>
      <contour>
        <pt x="283" y="820" on="1"/>
        <pt x="283" y="863" on="0"/>
        <pt x="233" y="911" on="0"/>
        <pt x="169" y="911" on="1"/>
        <pt x="105" y="911" on="0"/>
        <pt x="55" y="863" on="0"/>
        <pt x="55" y="820" on="1"/>
        <pt x="-62" y="820" on="1"/>
        <pt x="-62" y="857" on="0"/>
        <pt x="-38" y="922" on="0"/>
        <pt x="16" y="970" on="0"/>
        <pt x="104" y="997" on="0"/>
        <pt x="169" y="997" on="1"/>
        <pt x="233" y="997" on="0"/>
        <pt x="321" y="970" on="0"/>
        <pt x="376" y="923" on="0"/>
        <pt x="400" y="858" on="0"/>
        <pt x="400" y="820" on="1"/>
      </contour>
    </TTGlyph>
    <TTGlyph name="Iinvertedbreve.sc" xMin="-51" yMin="0" xMax="373" yMax="789">
      <contour>
        <pt x="73" y="577" on="1"/>
        <pt x="244" y="577" on="1"/>
        <pt x="244" y="0" on="1"/>
        <pt x="73" y="0" on="1"/>
      </contour>
      <contour>
        <pt x="263" y="641" on="1"/>
        <pt x="263" y="673" on="0"/>
        <pt x="221" y="710" on="0"/>
        <pt x="162" y="710" on="1"/>
        <pt x="104" y="710" on="0"/>
        <pt x="60" y="673" on="0"/>
        <pt x="60" y="641" on="1"/>
        <pt x="-51" y="641" on="1"/>
        <pt x="-51" y="671" on="0"/>
        <pt x="-30" y="725" on="0"/>
        <pt x="20" y="765" on="0"/>
        <pt x="102" y="789" on="0"/>
        <pt x="162" y="789" on="1"/>
        <pt x="222" y="789" on="0"/>
        <pt x="303" y="766" on="0"/>
        <pt x="352" y="726" on="0"/>
        <pt x="373" y="672" on="0"/>
        <pt x="373" y="641" on="1"/>
      </contour>
    </TTGlyph>
    <TTGlyph name="Imacron" xMin="-38" yMin="0" xMax="381" yMax="959">
      <contour>
        <pt x="77" y="740" on="1"/>
        <pt x="255" y="740" on="1"/>
        <pt x="255" y="0" on="1"/>
        <pt x="77" y="0" on="1"/>
      </contour>
      <contour>
        <pt x="-38" y="959" on="1"/>
        <pt x="381" y="959" on="1"/>
        <pt x="381" y="843" on="1"/>
        <pt x="-38" y="843" on="1"/>
      </contour>
    </TTGlyph>
    <TTGlyph name="Imacron.sc" xMin="-28" yMin="0" xMax="358" yMax="766">
      <contour>
        <pt x="73" y="577" on="1"/>
        <pt x="244" y="577" on="1"/>
        <pt x="244" y="0" on="1"/>
        <pt x="73" y="0" on="1"/>
      </contour>
      <contour>
        <pt x="-28" y="766" on="1"/>
        <pt x="358" y="766" on="1"/>
        <pt x="358" y="658" on="1"/>
        <pt x="-28" y="658" on="1"/>
      </contour>
    </TTGlyph>
    <TTGlyph name="Iogonek" xMin="16" yMin="-220" xMax="255" yMax="740">
      <contour>
        <pt x="77" y="740" on="1"/>
        <pt x="255" y="740" on="1"/>
        <pt x="255" y="-10" on="1"/>
        <pt x="185" y="-40" on="0"/>
        <pt x="129" y="-81" on="0"/>
        <pt x="129" y="-104" on="1"/>
        <pt x="129" y="-129" on="0"/>
        <pt x="163" y="-129" on="1"/>
        <pt x="177" y="-129" on="0"/>
        <pt x="231" y="-120" on="0"/>
        <pt x="255" y="-114" on="1"/>
        <pt x="255" y="-208" on="1"/>
        <pt x="217" y="-220" on="0"/>
        <pt x="165" y="-220" on="1"/>
        <pt x="93" y="-220" on="0"/>
        <pt x="16" y="-174" on="0"/>
        <pt x="16" y="-129" on="1"/>
        <pt x="16" y="-94" on="0"/>
        <pt x="65" y="-26" on="0"/>
        <pt x="111" y="0" on="1"/>
        <pt x="77" y="0" on="1"/>
      </contour>
    </TTGlyph>
    <TTGlyph name="Iogonek.sc" xMin="24" yMin="-172" xMax="244" yMax="577">
      <contour>
        <pt x="73" y="577" on="1"/>
        <pt x="244" y="577" on="1"/>
        <pt x="244" y="-5" on="1"/>
        <pt x="207" y="-18" on="0"/>
        <pt x="163" y="-37" on="0"/>
        <pt x="139" y="-52" on="0"/>
        <pt x="131" y="-64" on="0"/>
        <pt x="131" y="-70" on="1"/>
        <pt x="131" y="-79" on="0"/>
        <pt x="144" y="-85" on="0"/>
        <pt x="158" y="-85" on="1"/>
        <pt x="165" y="-85" on="0"/>
        <pt x="188" y="-83" on="0"/>
        <pt x="212" y="-80" on="0"/>
        <pt x="236" y="-77" on="0"/>
        <pt x="244" y="-75" on="1"/>
        <pt x="244" y="-162" on="1"/>
        <pt x="224" y="-168" on="0"/>
        <pt x="182" y="-172" on="0"/>
        <pt x="162" y="-172" on="1"/>
        <pt x="96" y="-172" on="0"/>
        <pt x="24" y="-131" on="0"/>
        <pt x="24" y="-97" on="1"/>
        <pt x="24" y="-67" on="0"/>
        <pt x="66" y="-17" on="0"/>
        <pt x="101" y="0" on="1"/>
        <pt x="73" y="0" on="1"/>
      </contour>
    </TTGlyph>
    <TTGlyph name="Itilde" xMin="-79" yMin="0" xMax="424" yMax="984">
      <contour>
        <pt x="77" y="740" on="1"/>
        <pt x="255" y="740" on="1"/>
        <pt x="255" y="0" on="1"/>
        <pt x="77" y="0" on="1"/>
      </contour>
      <contour>
        <pt x="-79" y="863" on="1"/>
        <pt x="-44" y="924" on="0"/>
        <pt x="45" y="984" on="0"/>
        <pt x="87" y="984" on="1"/>
        <pt x="115" y="984" on="0"/>
        <pt x="167" y="972" on="0"/>
        <pt x="219" y="958" on="0"/>
        <pt x="271" y="946" on="0"/>
        <pt x="298" y="946" on="1"/>
        <pt x="323" y="946" on="0"/>
        <pt x="370" y="961" on="0"/>
        <pt x="401" y="983" on="1"/>
        <pt x="424" y="948" on="1"/>
        <pt x="389" y="888" on="0"/>
        <pt x="298" y="827" on="0"/>
        <pt x="257" y="827" on="1"/>
        <pt x="230" y="827" on="0"/>
        <pt x="177" y="839" on="0"/>
        <pt x="124" y="853" on="0"/>
        <pt x="72" y="865" on="0"/>
        <pt x="46" y="865" on="1"/>
        <pt x="21" y="865" on="0"/>
        <pt x="-26" y="851" on="0"/>
        <pt x="-55" y="829" on="1"/>
      </contour>
    </TTGlyph>
    <TTGlyph name="Itilde.sc" xMin="-67" yMin="0" xMax="393" yMax="783">
      <contour>
        <pt x="73" y="577" on="1"/>
        <pt x="244" y="577" on="1"/>
        <pt x="244" y="0" on="1"/>
        <pt x="73" y="0" on="1"/>
      </contour>
      <contour>
        <pt x="-67" y="674" on="1"/>
        <pt x="-35" y="729" on="0"/>
        <pt x="47" y="783" on="0"/>
        <pt x="85" y="783" on="1"/>
        <pt x="110" y="783" on="0"/>
        <pt x="158" y="774" on="0"/>
        <pt x="206" y="764" on="0"/>
        <pt x="255" y="755" on="0"/>
        <pt x="280" y="755" on="1"/>
        <pt x="302" y="755" on="0"/>
        <pt x="344" y="766" on="0"/>
        <pt x="372" y="783" on="1"/>
        <pt x="393" y="754" on="1"/>
        <pt x="360" y="699" on="0"/>
        <pt x="276" y="644" on="0"/>
        <pt x="239" y="644" on="1"/>
        <pt x="215" y="644" on="0"/>
        <pt x="166" y="653" on="0"/>
        <pt x="118" y="664" on="0"/>
        <pt x="69" y="673" on="0"/>
        <pt x="45" y="673" on="1"/>
        <pt x="22" y="673" on="0"/>
        <pt x="-20" y="661" on="0"/>
        <pt x="-46" y="644" on="1"/>
      </contour>
    </TTGlyph>
    <TTGlyph name="J" xMin="2" yMin="-208" xMax="257" yMax="740">
      <contour>
        <pt x="2" y="-158" on="1"/>
        <pt x="24" y="-109" on="0"/>
        <pt x="53" y="-24" on="0"/>
        <pt x="71" y="58" on="0"/>
        <pt x="79" y="144" on="0"/>
        <pt x="79" y="196" on="1"/>
        <pt x="79" y="740" on="1"/>
        <pt x="257" y="740" on="1"/>
        <pt x="257" y="183" on="1"/>
        <pt x="257" y="131" on="0"/>
        <pt x="243" y="40" on="0"/>
        <pt x="211" y="-52" on="0"/>
        <pt x="157" y="-150" on="0"/>
        <pt x="118" y="-208" on="1"/>
      </contour>
    </TTGlyph>
    <TTGlyph name="J.sc" xMin="8" yMin="-169" xMax="246" yMax="577">
      <contour>
        <pt x="8" y="-122" on="1"/>
        <pt x="27" y="-83" on="0"/>
        <pt x="53" y="-16" on="0"/>
        <pt x="68" y="48" on="0"/>
        <pt x="75" y="116" on="0"/>
        <pt x="75" y="156" on="1"/>
        <pt x="75" y="577" on="1"/>
        <pt x="246" y="577" on="1"/>
        <pt x="246" y="144" on="1"/>
        <pt x="246" y="103" on="0"/>
        <pt x="233" y="29" on="0"/>
        <pt x="203" y="-44" on="0"/>
        <pt x="154" y="-123" on="0"/>
        <pt x="118" y="-169" on="1"/>
      </contour>
    </TTGlyph>
    <TTGlyph name="Jcircumflex" xMin="-41" yMin="-208" xMax="382" yMax="1001">
      <contour>
        <pt x="2" y="-158" on="1"/>
        <pt x="24" y="-109" on="0"/>
        <pt x="53" y="-24" on="0"/>
        <pt x="71" y="58" on="0"/>
        <pt x="79" y="144" on="0"/>
        <pt x="79" y="196" on="1"/>
        <pt x="79" y="740" on="1"/>
        <pt x="257" y="740" on="1"/>
        <pt x="257" y="183" on="1"/>
        <pt x="257" y="131" on="0"/>
        <pt x="243" y="40" on="0"/>
        <pt x="211" y="-52" on="0"/>
        <pt x="157" y="-150" on="0"/>
        <pt x="118" y="-208" on="1"/>
      </contour>
      <contour>
        <pt x="-41" y="921" on="1"/>
        <pt x="168" y="1001" on="1"/>
        <pt x="382" y="921" on="1"/>
        <pt x="382" y="803" on="1"/>
        <pt x="170" y="882" on="1"/>
        <pt x="-41" y="803" on="1"/>
      </contour>
    </TTGlyph>
    <TTGlyph name="Jcircumflex.sc" xMin="-33" yMin="-169" xMax="357" yMax="796">
      <contour>
        <pt x="7" y="-122" on="1"/>
        <pt x="26" y="-83" on="0"/>
        <pt x="52" y="-16" on="0"/>
        <pt x="68" y="48" on="0"/>
        <pt x="75" y="116" on="0"/>
        <pt x="75" y="156" on="1"/>
        <pt x="75" y="577" on="1"/>
        <pt x="245" y="577" on="1"/>
        <pt x="245" y="144" on="1"/>
        <pt x="245" y="103" on="0"/>
        <pt x="232" y="29" on="0"/>
        <pt x="202" y="-44" on="0"/>
        <pt x="153" y="-123" on="0"/>
        <pt x="117" y="-169" on="1"/>
      </contour>
      <contour>
        <pt x="-33" y="732" on="1"/>
        <pt x="160" y="796" on="1"/>
        <pt x="357" y="732" on="1"/>
        <pt x="357" y="624" on="1"/>
        <pt x="162" y="687" on="1"/>
        <pt x="-33" y="624" on="1"/>
      </contour>
    </TTGlyph>
    <TTGlyph name="K" xMin="77" yMin="0" xMax="773" yMax="740">
      <contour>
        <pt x="77" y="740" on="1"/>
        <pt x="255" y="740" on="1"/>
        <pt x="255" y="441" on="1"/>
        <pt x="371" y="441" on="1"/>
        <pt x="557" y="740" on="1"/>
        <pt x="756" y="740" on="1"/>
        <pt x="541" y="417" on="1"/>
        <pt x="494" y="391" on="1"/>
        <pt x="494" y="383" on="1"/>
        <pt x="544" y="356" on="1"/>
        <pt x="773" y="0" on="1"/>
        <pt x="574" y="0" on="1"/>
        <pt x="388" y="304" on="1"/>
        <pt x="255" y="304" on="1"/>
        <pt x="255" y="0" on="1"/>
        <pt x="77" y="0" on="1"/>
      </contour>
    </TTGlyph>
    <TTGlyph name="K.sc" xMin="73" yMin="0" xMax="709" yMax="577">
      <contour>
        <pt x="73" y="577" on="1"/>
        <pt x="244" y="577" on="1"/>
        <pt x="244" y="353" on="1"/>
        <pt x="343" y="353" on="1"/>
        <pt x="504" y="577" on="1"/>
        <pt x="694" y="577" on="1"/>
        <pt x="504" y="328" on="1"/>
        <pt x="459" y="308" on="1"/>
        <pt x="459" y="301" on="1"/>
        <pt x="506" y="279" on="1"/>
        <pt x="709" y="0" on="1"/>
        <pt x="519" y="0" on="1"/>
        <pt x="359" y="225" on="1"/>
        <pt x="244" y="225" on="1"/>
        <pt x="244" y="0" on="1"/>
        <pt x="73" y="0" on="1"/>
      </contour>
    </TTGlyph>
    <TTGlyph name="Kcommaaccent" xMin="77" yMin="-220" xMax="773" yMax="740">
      <contour>
        <pt x="276" y="-70" on="1"/>
        <pt x="457" y="-70" on="1"/>
        <pt x="367" y="-220" on="1"/>
        <pt x="234" y="-220" on="1"/>
      </contour>
      <contour>
        <pt x="77" y="740" on="1"/>
        <pt x="255" y="740" on="1"/>
        <pt x="255" y="441" on="1"/>
        <pt x="371" y="441" on="1"/>
        <pt x="557" y="740" on="1"/>
        <pt x="756" y="740" on="1"/>
        <pt x="541" y="417" on="1"/>
        <pt x="494" y="391" on="1"/>
        <pt x="494" y="383" on="1"/>
        <pt x="544" y="356" on="1"/>
        <pt x="773" y="0" on="1"/>
        <pt x="574" y="0" on="1"/>
        <pt x="388" y="304" on="1"/>
        <pt x="255" y="304" on="1"/>
        <pt x="255" y="0" on="1"/>
        <pt x="77" y="0" on="1"/>
      </contour>
    </TTGlyph>
    <TTGlyph name="Kcommaaccent.sc" xMin="73" yMin="-172" xMax="709" yMax="577">
      <contour>
        <pt x="73" y="577" on="1"/>
        <pt x="244" y="577" on="1"/>
        <pt x="244" y="353" on="1"/>
        <pt x="343" y="353" on="1"/>
        <pt x="504" y="577" on="1"/>
        <pt x="694" y="577" on="1"/>
        <pt x="504" y="328" on="1"/>
        <pt x="459" y="308" on="1"/>
        <pt x="459" y="301" on="1"/>
        <pt x="506" y="279" on="1"/>
        <pt x="709" y="0" on="1"/>
        <pt x="519" y="0" on="1"/>
        <pt x="359" y="225" on="1"/>
        <pt x="244" y="225" on="1"/>
        <pt x="244" y="0" on="1"/>
        <pt x="73" y="0" on="1"/>
      </contour>
      <contour>
        <pt x="284" y="-55" on="1"/>
        <pt x="456" y="-55" on="1"/>
        <pt x="374" y="-172" on="1"/>
        <pt x="248" y="-172" on="1"/>
      </contour>
    </TTGlyph>
    <TTGlyph name="L" xMin="77" yMin="0" xMax="601" yMax="740">
      <contour>
        <pt x="77" y="740" on="1"/>
        <pt x="255" y="740" on="1"/>
        <pt x="255" y="135" on="1"/>
        <pt x="601" y="135" on="1"/>
        <pt x="601" y="0" on="1"/>
        <pt x="77" y="0" on="1"/>
      </contour>
    </TTGlyph>
    <TTGlyph name="L.sc" xMin="73" yMin="0" xMax="553" yMax="577">
      <contour>
        <pt x="73" y="577" on="1"/>
        <pt x="244" y="577" on="1"/>
        <pt x="244" y="127" on="1"/>
        <pt x="553" y="127" on="1"/>
        <pt x="553" y="0" on="1"/>
        <pt x="73" y="0" on="1"/>
      </contour>
    </TTGlyph>
    <TTGlyph name="Lacute" xMin="77" yMin="0" xMax="601" yMax="986">
      <contour>
        <pt x="104" y="815" on="1"/>
        <pt x="171" y="986" on="1"/>
        <pt x="351" y="986" on="1"/>
        <pt x="232" y="806" on="1"/>
      </contour>
      <contour>
        <pt x="77" y="740" on="1"/>
        <pt x="255" y="740" on="1"/>
        <pt x="255" y="135" on="1"/>
        <pt x="601" y="135" on="1"/>
        <pt x="601" y="0" on="1"/>
        <pt x="77" y="0" on="1"/>
      </contour>
    </TTGlyph>
    <TTGlyph name="Lacute.sc" xMin="73" yMin="0" xMax="553" yMax="782">
      <contour>
        <pt x="73" y="577" on="1"/>
        <pt x="244" y="577" on="1"/>
        <pt x="244" y="127" on="1"/>
        <pt x="553" y="127" on="1"/>
        <pt x="553" y="0" on="1"/>
        <pt x="73" y="0" on="1"/>
      </contour>
      <contour>
        <pt x="100" y="638" on="1"/>
        <pt x="158" y="782" on="1"/>
        <pt x="329" y="782" on="1"/>
        <pt x="221" y="630" on="1"/>
      </contour>
    </TTGlyph>
    <TTGlyph name="Lcaron" xMin="77" yMin="0" xMax="601" yMax="789">
      <contour>
        <pt x="422" y="789" on="1"/>
        <pt x="560" y="789" on="1"/>
        <pt x="516" y="561" on="1"/>
        <pt x="422" y="561" on="1"/>
      </contour>
      <contour>
        <pt x="77" y="740" on="1"/>
        <pt x="255" y="740" on="1"/>
        <pt x="255" y="135" on="1"/>
        <pt x="601" y="135" on="1"/>
        <pt x="601" y="0" on="1"/>
        <pt x="77" y="0" on="1"/>
      </contour>
    </TTGlyph>
    <TTGlyph name="Lcaron.sc" xMin="73" yMin="0" xMax="553" yMax="625">
      <contour>
        <pt x="73" y="577" on="1"/>
        <pt x="244" y="577" on="1"/>
        <pt x="244" y="127" on="1"/>
        <pt x="553" y="127" on="1"/>
        <pt x="553" y="0" on="1"/>
        <pt x="73" y="0" on="1"/>
      </contour>
      <contour>
        <pt x="384" y="625" on="1"/>
        <pt x="515" y="625" on="1"/>
        <pt x="474" y="447" on="1"/>
        <pt x="384" y="447" on="1"/>
      </contour>
    </TTGlyph>
    <TTGlyph name="Lcommaaccent" xMin="77" yMin="-220" xMax="601" yMax="740">
      <contour>
        <pt x="227" y="-70" on="1"/>
        <pt x="408" y="-70" on="1"/>
        <pt x="318" y="-220" on="1"/>
        <pt x="185" y="-220" on="1"/>
      </contour>
      <contour>
        <pt x="77" y="740" on="1"/>
        <pt x="255" y="740" on="1"/>
        <pt x="255" y="135" on="1"/>
        <pt x="601" y="135" on="1"/>
        <pt x="601" y="0" on="1"/>
        <pt x="77" y="0" on="1"/>
      </contour>
    </TTGlyph>
    <TTGlyph name="Lcommaaccent.sc" xMin="73" yMin="-172" xMax="553" yMax="577">
      <contour>
        <pt x="73" y="577" on="1"/>
        <pt x="244" y="577" on="1"/>
        <pt x="244" y="127" on="1"/>
        <pt x="553" y="127" on="1"/>
        <pt x="553" y="0" on="1"/>
        <pt x="73" y="0" on="1"/>
      </contour>
      <contour>
        <pt x="205" y="-55" on="1"/>
        <pt x="376" y="-55" on="1"/>
        <pt x="294" y="-172" on="1"/>
        <pt x="168" y="-172" on="1"/>
      </contour>
    </TTGlyph>
    <TTGlyph name="Ldot" xMin="77" yMin="0" xMax="604" yMax="740">
      <contour>
        <pt x="77" y="740" on="1"/>
        <pt x="255" y="740" on="1"/>
        <pt x="255" y="135" on="1"/>
        <pt x="601" y="135" on="1"/>
        <pt x="601" y="0" on="1"/>
        <pt x="77" y="0" on="1"/>
      </contour>
      <contour>
        <pt x="508" y="300" on="1"/>
        <pt x="456" y="300" on="0"/>
        <pt x="411" y="344" on="0"/>
        <pt x="411" y="394" on="1"/>
        <pt x="411" y="444" on="0"/>
        <pt x="456" y="488" on="0"/>
        <pt x="508" y="488" on="1"/>
        <pt x="560" y="488" on="0"/>
        <pt x="604" y="442" on="0"/>
        <pt x="604" y="394" on="1"/>
        <pt x="604" y="346" on="0"/>
        <pt x="560" y="300" on="0"/>
      </contour>
    </TTGlyph>
    <TTGlyph name="Ldot.sc" xMin="73" yMin="0" xMax="559" yMax="577">
      <contour>
        <pt x="73" y="577" on="1"/>
        <pt x="244" y="577" on="1"/>
        <pt x="244" y="127" on="1"/>
        <pt x="553" y="127" on="1"/>
        <pt x="553" y="0" on="1"/>
        <pt x="73" y="0" on="1"/>
      </contour>
      <contour>
        <pt x="469" y="228" on="1"/>
        <pt x="420" y="228" on="0"/>
        <pt x="377" y="268" on="0"/>
        <pt x="377" y="314" on="1"/>
        <pt x="377" y="360" on="0"/>
        <pt x="420" y="401" on="0"/>
        <pt x="469" y="401" on="1"/>
        <pt x="519" y="401" on="0"/>
        <pt x="559" y="358" on="0"/>
        <pt x="559" y="314" on="1"/>
        <pt x="559" y="270" on="0"/>
        <pt x="519" y="228" on="0"/>
      </contour>
    </TTGlyph>
    <TTGlyph name="Lslash" xMin="13" yMin="0" xMax="620" yMax="740">
      <contour>
        <pt x="13" y="355" on="1"/>
        <pt x="96" y="394" on="1"/>
        <pt x="96" y="740" on="1"/>
        <pt x="274" y="740" on="1"/>
        <pt x="274" y="479" on="1"/>
        <pt x="424" y="551" on="1"/>
        <pt x="424" y="422" on="1"/>
        <pt x="274" y="350" on="1"/>
        <pt x="274" y="135" on="1"/>
        <pt x="620" y="135" on="1"/>
        <pt x="620" y="0" on="1"/>
        <pt x="96" y="0" on="1"/>
        <pt x="96" y="265" on="1"/>
        <pt x="13" y="226" on="1"/>
      </contour>
    </TTGlyph>
    <TTGlyph name="Lslash.sc" xMin="17" yMin="0" xMax="569" yMax="577">
      <contour>
        <pt x="17" y="296" on="1"/>
        <pt x="90" y="327" on="1"/>
        <pt x="90" y="577" on="1"/>
        <pt x="259" y="577" on="1"/>
        <pt x="259" y="387" on="1"/>
        <pt x="391" y="443" on="1"/>
        <pt x="391" y="324" on="1"/>
        <pt x="259" y="267" on="1"/>
        <pt x="259" y="127" on="1"/>
        <pt x="569" y="127" on="1"/>
        <pt x="569" y="0" on="1"/>
        <pt x="90" y="0" on="1"/>
        <pt x="90" y="207" on="1"/>
        <pt x="17" y="176" on="1"/>
      </contour>
    </TTGlyph>
    <TTGlyph name="M" xMin="77" yMin="0" xMax="964" yMax="740">
      <contour>
        <pt x="77" y="740" on="1"/>
        <pt x="317" y="740" on="1"/>
        <pt x="462" y="390" on="1"/>
        <pt x="517" y="226" on="1"/>
        <pt x="523" y="226" on="1"/>
        <pt x="579" y="390" on="1"/>
        <pt x="723" y="740" on="1"/>
        <pt x="964" y="740" on="1"/>
        <pt x="964" y="0" on="1"/>
        <pt x="807" y="0" on="1"/>
        <pt x="807" y="547" on="1"/>
        <pt x="799" y="547" on="1"/>
        <pt x="717" y="316" on="1"/>
        <pt x="592" y="28" on="1"/>
        <pt x="448" y="28" on="1"/>
        <pt x="323" y="316" on="1"/>
        <pt x="242" y="547" on="1"/>
        <pt x="233" y="547" on="1"/>
        <pt x="233" y="0" on="1"/>
        <pt x="77" y="0" on="1"/>
      </contour>
    </TTGlyph>
    <TTGlyph name="M.sc" xMin="73" yMin="0" xMax="880" yMax="577">
      <contour>
        <pt x="73" y="577" on="1"/>
        <pt x="291" y="577" on="1"/>
        <pt x="418" y="334" on="1"/>
        <pt x="472" y="210" on="1"/>
        <pt x="481" y="210" on="1"/>
        <pt x="535" y="334" on="1"/>
        <pt x="662" y="577" on="1"/>
        <pt x="880" y="577" on="1"/>
        <pt x="880" y="0" on="1"/>
        <pt x="730" y="0" on="1"/>
        <pt x="730" y="402" on="1"/>
        <pt x="722" y="402" on="1"/>
        <pt x="641" y="216" on="1"/>
        <pt x="542" y="21" on="1"/>
        <pt x="411" y="21" on="1"/>
        <pt x="312" y="216" on="1"/>
        <pt x="232" y="402" on="1"/>
        <pt x="224" y="402" on="1"/>
        <pt x="224" y="0" on="1"/>
        <pt x="73" y="0" on="1"/>
      </contour>
    </TTGlyph>
    <TTGlyph name="N" xMin="77" yMin="0" xMax="782" yMax="740">
      <contour>
        <pt x="77" y="740" on="1"/>
        <pt x="217" y="740" on="1"/>
        <pt x="552" y="338" on="1"/>
        <pt x="617" y="251" on="1"/>
        <pt x="626" y="251" on="1"/>
        <pt x="626" y="740" on="1"/>
        <pt x="782" y="740" on="1"/>
        <pt x="782" y="0" on="1"/>
        <pt x="641" y="0" on="1"/>
        <pt x="315" y="393" on="1"/>
        <pt x="241" y="488" on="1"/>
        <pt x="233" y="488" on="1"/>
        <pt x="233" y="0" on="1"/>
        <pt x="77" y="0" on="1"/>
      </contour>
    </TTGlyph>
    <TTGlyph name="N.sc" xMin="73" yMin="0" xMax="693" yMax="577">
      <contour>
        <pt x="73" y="577" on="1"/>
        <pt x="202" y="577" on="1"/>
        <pt x="474" y="294" on="1"/>
        <pt x="535" y="227" on="1"/>
        <pt x="543" y="227" on="1"/>
        <pt x="543" y="577" on="1"/>
        <pt x="693" y="577" on="1"/>
        <pt x="693" y="0" on="1"/>
        <pt x="564" y="0" on="1"/>
        <pt x="301" y="272" on="1"/>
        <pt x="232" y="349" on="1"/>
        <pt x="224" y="349" on="1"/>
        <pt x="224" y="0" on="1"/>
        <pt x="73" y="0" on="1"/>
      </contour>
    </TTGlyph>
    <TTGlyph name="Nacute" xMin="77" yMin="0" xMax="782" yMax="986">
      <contour>
        <pt x="337" y="815" on="1"/>
        <pt x="404" y="986" on="1"/>
        <pt x="584" y="986" on="1"/>
        <pt x="465" y="806" on="1"/>
      </contour>
      <contour>
        <pt x="77" y="740" on="1"/>
        <pt x="217" y="740" on="1"/>
        <pt x="552" y="338" on="1"/>
        <pt x="617" y="251" on="1"/>
        <pt x="626" y="251" on="1"/>
        <pt x="626" y="740" on="1"/>
        <pt x="782" y="740" on="1"/>
        <pt x="782" y="0" on="1"/>
        <pt x="641" y="0" on="1"/>
        <pt x="315" y="393" on="1"/>
        <pt x="241" y="488" on="1"/>
        <pt x="233" y="488" on="1"/>
        <pt x="233" y="0" on="1"/>
        <pt x="77" y="0" on="1"/>
      </contour>
    </TTGlyph>
    <TTGlyph name="Nacute.sc" xMin="73" yMin="0" xMax="693" yMax="782">
      <contour>
        <pt x="73" y="577" on="1"/>
        <pt x="202" y="577" on="1"/>
        <pt x="474" y="294" on="1"/>
        <pt x="535" y="227" on="1"/>
        <pt x="543" y="227" on="1"/>
        <pt x="543" y="577" on="1"/>
        <pt x="693" y="577" on="1"/>
        <pt x="693" y="0" on="1"/>
        <pt x="564" y="0" on="1"/>
        <pt x="301" y="272" on="1"/>
        <pt x="232" y="349" on="1"/>
        <pt x="224" y="349" on="1"/>
        <pt x="224" y="0" on="1"/>
        <pt x="73" y="0" on="1"/>
      </contour>
      <contour>
        <pt x="298" y="638" on="1"/>
        <pt x="357" y="782" on="1"/>
        <pt x="528" y="782" on="1"/>
        <pt x="419" y="630" on="1"/>
      </contour>
    </TTGlyph>
    <TTGlyph name="Ncaron" xMin="77" yMin="0" xMax="782" yMax="1001">
      <contour>
        <pt x="220" y="1001" on="1"/>
        <pt x="432" y="921" on="1"/>
        <pt x="643" y="1001" on="1"/>
        <pt x="643" y="882" on="1"/>
        <pt x="429" y="803" on="1"/>
        <pt x="220" y="882" on="1"/>
      </contour>
      <contour>
        <pt x="77" y="740" on="1"/>
        <pt x="217" y="740" on="1"/>
        <pt x="552" y="338" on="1"/>
        <pt x="617" y="251" on="1"/>
        <pt x="626" y="251" on="1"/>
        <pt x="626" y="740" on="1"/>
        <pt x="782" y="740" on="1"/>
        <pt x="782" y="0" on="1"/>
        <pt x="641" y="0" on="1"/>
        <pt x="315" y="393" on="1"/>
        <pt x="241" y="488" on="1"/>
        <pt x="233" y="488" on="1"/>
        <pt x="233" y="0" on="1"/>
        <pt x="77" y="0" on="1"/>
      </contour>
    </TTGlyph>
    <TTGlyph name="Ncaron.sc" xMin="73" yMin="0" xMax="693" yMax="796">
      <contour>
        <pt x="73" y="577" on="1"/>
        <pt x="202" y="577" on="1"/>
        <pt x="474" y="294" on="1"/>
        <pt x="535" y="227" on="1"/>
        <pt x="543" y="227" on="1"/>
        <pt x="543" y="577" on="1"/>
        <pt x="693" y="577" on="1"/>
        <pt x="693" y="0" on="1"/>
        <pt x="564" y="0" on="1"/>
        <pt x="301" y="272" on="1"/>
        <pt x="232" y="349" on="1"/>
        <pt x="224" y="349" on="1"/>
        <pt x="224" y="0" on="1"/>
        <pt x="73" y="0" on="1"/>
      </contour>
      <contour>
        <pt x="191" y="687" on="1"/>
        <pt x="191" y="796" on="1"/>
        <pt x="385" y="733" on="1"/>
        <pt x="580" y="796" on="1"/>
        <pt x="580" y="687" on="1"/>
        <pt x="383" y="624" on="1"/>
      </contour>
    </TTGlyph>
    <TTGlyph name="Ncommaaccent" xMin="77" yMin="-220" xMax="782" yMax="740">
      <contour>
        <pt x="347" y="-70" on="1"/>
        <pt x="528" y="-70" on="1"/>
        <pt x="438" y="-220" on="1"/>
        <pt x="305" y="-220" on="1"/>
      </contour>
      <contour>
        <pt x="77" y="740" on="1"/>
        <pt x="217" y="740" on="1"/>
        <pt x="552" y="338" on="1"/>
        <pt x="617" y="251" on="1"/>
        <pt x="626" y="251" on="1"/>
        <pt x="626" y="740" on="1"/>
        <pt x="782" y="740" on="1"/>
        <pt x="782" y="0" on="1"/>
        <pt x="641" y="0" on="1"/>
        <pt x="315" y="393" on="1"/>
        <pt x="241" y="488" on="1"/>
        <pt x="233" y="488" on="1"/>
        <pt x="233" y="0" on="1"/>
        <pt x="77" y="0" on="1"/>
      </contour>
    </TTGlyph>
</ttFont>
